<?xml version="1.0" standalone="no"?>
<!DOCTYPE svg PUBLIC "-//W3C//DTD SVG 20010904//EN"
 "http://www.w3.org/TR/2001/REC-SVG-20010904/DTD/svg10.dtd">
<svg version="1.0" xmlns="http://www.w3.org/2000/svg"
 width="64.000000pt" height="64.000000pt" viewBox="0 0 64.000000 64.000000"
 preserveAspectRatio="xMidYMid meet">

<g transform="translate(0.000000,64.000000) scale(0.100000,-0.100000)"
fill="#000000" stroke="none">
<path d="M261 620 c-34 -15 -21 -21 19 -10 22 6 47 6 71 0 77 -21 115 -77 106
-156 -14 -129 -189 -169 -257 -59 -24 38 -26 108 -5 145 21 36 18 49 -5 20
-71 -91 5 -242 122 -242 58 0 89 14 125 55 84 96 22 244 -106 254 -25 1 -57
-2 -70 -7z"/>
<path d="M247 525 c-4 -8 -2 -17 3 -20 6 -4 10 0 10 7 0 10 3 9 10 -2 11 -18
25 -7 17 15 -8 19 -33 20 -40 0z"/>
<path d="M353 525 c-3 -9 -2 -19 2 -23 4 -4 10 -1 13 7 4 11 6 11 13 0 6 -10
9 -8 9 9 0 25 -27 31 -37 7z"/>
<path d="M240 458 c0 -33 41 -68 82 -68 35 0 78 40 78 72 -1 20 -3 18 -15 -10
-27 -62 -103 -62 -130 0 -14 33 -14 33 -15 6z"/>
<path d="M113 352 c-8 -13 -7 -22 2 -35 11 -16 13 -16 29 1 15 18 15 20 -2 35
-16 15 -19 15 -29 -1z"/>
<path d="M494 352 c-9 -14 -8 -22 2 -37 14 -18 14 -18 28 0 10 15 11 23 2 37
-6 10 -13 18 -16 18 -3 0 -10 -8 -16 -18z"/>
<path d="M363 299 c-7 -7 -34 -13 -60 -13 -46 -1 -48 -2 -51 -31 -2 -16 -11
-38 -19 -47 -15 -16 -14 -20 11 -44 35 -36 34 -55 -2 -21 -15 15 -32 27 -38
27 -5 0 -36 27 -68 59 -49 50 -62 58 -78 50 -29 -15 -22 -31 42 -94 33 -33 60
-64 60 -70 0 -7 11 -22 24 -34 14 -13 27 -35 29 -50 4 -24 4 -23 6 5 0 20 -6
37 -19 49 -24 22 -25 38 -5 55 13 11 20 9 38 -9 33 -31 141 -31 174 0 18 18
25 20 38 9 20 -17 19 -33 -5 -55 -13 -12 -19 -29 -19 -49 2 -28 2 -29 6 -5 2
15 15 37 29 50 13 12 24 28 24 34 0 6 11 22 25 35 14 13 25 28 25 34 0 5 -14
-3 -30 -19 -23 -22 -33 -26 -42 -17 -9 9 0 24 42 67 30 30 60 55 67 55 18 0
16 -25 -2 -40 -9 -7 -13 -15 -10 -18 7 -8 45 29 45 44 0 7 -8 18 -18 23 -16 8
-29 0 -78 -50 -32 -32 -63 -59 -68 -59 -6 0 -23 -12 -38 -27 -36 -34 -37 -15
-2 21 26 25 26 27 10 45 -15 16 -15 22 -4 40 20 33 -13 76 -39 50z m-223 -84
c43 -43 52 -57 42 -67 -10 -10 -24 -1 -67 42 -54 53 -68 80 -42 80 7 0 37 -25
67 -55z m240 -13 c0 -39 -26 -72 -57 -72 -38 0 -63 27 -63 67 l0 33 60 0 c59
0 60 0 60 -28z"/>
<path d="M280 200 c0 -5 5 -10 10 -10 6 0 10 5 10 10 0 6 -4 10 -10 10 -5 0
-10 -4 -10 -10z"/>
<path d="M340 200 c0 -5 5 -10 10 -10 6 0 10 5 10 10 0 6 -4 10 -10 10 -5 0
-10 -4 -10 -10z"/>
<path d="M310 190 c0 -5 5 -10 10 -10 6 0 10 5 10 10 0 6 -4 10 -10 10 -5 0
-10 -4 -10 -10z"/>
<path d="M303 155 c2 -5 10 -10 17 -10 7 0 15 5 17 10 2 6 -6 11 -17 11 -11 0
-19 -5 -17 -11z"/>
</g>
</svg>
