<?xml version="1.0" encoding="utf-8"?>
<!-- Uploaded to: SVG Repo, www.svgrepo.com, Generator: SVG Repo Mixer Tools -->
<!DOCTYPE svg PUBLIC "-//W3C//DTD SVG 1.1//EN" "http://www.w3.org/Graphics/SVG/1.1/DTD/svg11.dtd">
<svg xmlns="http://www.w3.org/2000/svg" xmlns:xlink="http://www.w3.org/1999/xlink" version="1.1" id="Layer_1"  width="512" height="512" viewBox="0 0 512 512" enable-background="new 0 0 512 512" xml:space="preserve">
<g id="cookies">
	<g>
		<path fill="#46CEAD" d="M0.003,289.437v85.421c0,23.577,71.702,42.701,160.146,42.701c88.443,0,160.146-19.124,160.146-42.701    v-85.421H0.003z"/>
	</g>
	<g>
		<path fill="#35BB9B" d="M320.295,289.437c0,23.594-71.703,42.702-160.146,42.702c-88.444,0-160.146-19.108-160.146-42.702    c0-23.577,71.702-42.702,160.146-42.702C248.592,246.734,320.295,265.859,320.295,289.437z"/>
	</g>
	<path fill="#35BB9B" d="M160.149,364.17c-88.444,0-160.146-19.109-160.146-42.703v21.359c0,23.578,71.702,42.703,160.146,42.703   c88.443,0,160.146-19.125,160.146-42.703v-21.359C320.295,345.061,248.592,364.17,160.149,364.17z"/>
	<g>
		<path fill="#AC92EA" d="M343.357,96.019l-73.922,42.812c-20.406,11.812-1.015,83.436,43.312,159.981    c44.327,76.53,96.811,128.997,117.217,117.17l73.904-42.796L343.357,96.019z"/>
	</g>
	<g>
		<path fill="#967ADA" d="M503.869,373.186C483.463,384.998,430.98,332.545,386.668,256    c-44.342-76.53-63.717-148.169-43.311-159.981c20.405-11.828,72.889,40.64,117.216,117.17    C504.9,289.733,524.291,361.357,503.869,373.186z"/>
	</g>
	<path fill="#967ADA" d="M358.95,272.047c-44.327-76.53-63.718-148.154-43.312-159.981l-18.484,10.703   c-20.406,11.828-1.016,83.452,43.312,159.981c44.326,76.546,96.811,128.998,117.216,117.186l18.483-10.702   C455.745,401.06,403.277,348.592,358.95,272.047z"/>
</g>
</svg>