<?xml version="1.0" standalone="no"?>
<!DOCTYPE svg PUBLIC "-//W3C//DTD SVG 20010904//EN"
 "http://www.w3.org/TR/2001/REC-SVG-20010904/DTD/svg10.dtd">
<svg version="1.0" xmlns="http://www.w3.org/2000/svg"
 width="10364.000000pt" height="9858.000000pt" viewBox="0 0 10364.000000 9858.000000"
 preserveAspectRatio="xMidYMid meet">

<g transform="translate(0.000000,9858.000000) scale(0.100000,-0.100000)"
fill="#000000" stroke="none">
<path d="M64999 91156 c-2 -2 -80 -6 -174 -10 -93 -4 -183 -9 -200 -11 -16 -2
-72 -6 -124 -10 -176 -11 -367 -33 -611 -70 -52 -8 -106 -17 -120 -20 -13 -2
-42 -7 -64 -11 -22 -3 -43 -7 -46 -9 -3 -2 -21 -6 -40 -9 -51 -8 -323 -73
-405 -97 -360 -105 -730 -284 -944 -455 -110 -88 -248 -234 -282 -297 -81
-152 -19 -307 189 -474 142 -115 235 -173 787 -498 410 -242 645 -408 838
-594 145 -140 232 -254 298 -387 54 -110 89 -244 89 -347 0 -218 -127 -695
-378 -1417 -46 -133 -281 -765 -342 -920 -23 -58 -54 -139 -69 -180 -117 -310
-658 -1638 -884 -2170 -24 -58 -68 -161 -97 -230 -29 -69 -79 -188 -112 -265
-33 -77 -82 -194 -110 -260 -28 -66 -60 -140 -71 -165 -10 -25 -30 -70 -42
-100 -13 -30 -40 -93 -60 -140 -20 -47 -43 -101 -50 -120 -7 -19 -36 -86 -64
-149 -28 -63 -49 -116 -47 -118 2 -2 16 25 31 59 15 35 45 104 68 153 22 50
50 115 62 145 13 30 39 91 58 135 19 44 55 130 81 190 25 61 54 126 62 145 9
19 83 193 165 385 82 193 160 375 174 405 13 30 52 120 85 200 33 80 72 170
85 200 13 30 37 87 54 125 16 39 72 171 124 295 137 323 326 783 537 1305 53
130 181 456 212 538 17 45 38 102 48 127 139 359 341 937 415 1190 135 461
158 649 105 855 -25 99 -112 277 -182 370 -65 88 -296 320 -408 408 -173 138
-320 234 -915 603 -408 252 -567 379 -624 497 -28 58 -26 94 7 148 29 45 145
162 217 220 223 177 557 333 930 434 120 32 366 85 460 99 23 4 50 8 60 10 21
4 94 15 135 21 14 2 70 9 125 15 55 6 110 13 122 15 12 2 63 6 115 10 51 4
103 8 115 10 170 26 1361 26 1593 1 19 -3 82 -7 140 -11 58 -3 123 -8 145 -10
22 -2 74 -7 115 -10 122 -9 378 -34 475 -46 83 -10 654 -87 700 -94 52 -8 166
-27 218 -35 31 -6 83 -14 115 -20 113 -18 269 -49 412 -80 216 -47 512 -104
645 -126 17 -2 41 -6 55 -9 14 -3 41 -7 60 -10 19 -3 46 -7 60 -10 14 -3 39
-7 55 -9 17 -3 89 -14 160 -26 253 -41 419 -67 476 -75 25 -3 57 -8 70 -10 24
-4 260 -42 309 -50 24 -4 543 -90 605 -100 17 -3 53 -10 80 -15 28 -5 88 -17
135 -25 478 -85 1168 -239 1510 -336 58 -17 137 -39 175 -50 64 -18 385 -125
495 -164 378 -136 796 -350 1048 -539 268 -201 474 -453 558 -683 31 -85 32
-84 -61 -145 -149 -100 -438 -231 -1130 -513 -82 -33 -207 -88 -305 -133 -30
-13 -100 -45 -155 -69 -154 -68 -525 -261 -670 -348 -167 -101 -320 -211 -439
-315 -28 -24 -59 -51 -70 -60 -43 -35 -182 -200 -225 -265 -344 -528 -668
-1813 -926 -3675 -47 -342 -142 -1088 -180 -1425 -55 -479 -80 -700 -115
-1020 -91 -832 -123 -1108 -161 -1425 -35 -290 -79 -632 -93 -718 -3 -15 -12
-72 -21 -127 -49 -301 -99 -521 -133 -581 -5 -9 -30 24 -71 94 -99 165 -356
551 -476 712 -648 870 -1283 1365 -2135 1662 -125 43 -193 64 -415 124 -110
30 -216 59 -235 64 -94 26 -739 182 -842 204 -129 28 -196 40 -338 61 -52 8
-108 16 -125 19 -16 2 -57 7 -90 11 -33 3 -73 8 -90 10 -227 26 -872 27 -1037
0 -13 -2 -50 -6 -83 -10 -33 -3 -71 -8 -85 -10 -14 -2 -43 -7 -65 -10 -22 -3
-51 -7 -65 -10 -14 -2 -41 -6 -60 -9 -257 -37 -671 -150 -1005 -276 -216 -81
-625 -272 -625 -292 0 -7 5 -7 13 1 17 14 189 98 287 141 41 18 89 38 105 46
47 21 228 94 245 99 8 2 67 22 130 45 278 98 703 199 985 234 124 15 253 28
355 35 116 8 617 6 700 -3 25 -3 93 -10 151 -16 166 -17 182 -19 375 -50 213
-35 547 -113 879 -206 28 -7 111 -30 185 -49 74 -20 149 -41 165 -46 17 -5 75
-22 130 -38 338 -98 595 -196 854 -326 660 -330 1207 -853 1750 -1670 111
-166 198 -308 381 -620 53 -90 95 -125 149 -125 115 0 184 144 271 566 24 118
75 411 95 549 81 558 99 690 240 1810 152 1207 241 1854 345 2531 42 266 123
746 165 974 19 102 39 212 45 245 135 736 345 1522 524 1963 135 330 244 484
476 672 269 217 746 479 1270 695 30 13 93 40 140 60 47 20 117 49 155 65 39
15 153 62 255 105 102 42 210 87 240 100 160 66 212 90 347 157 310 153 439
271 459 419 14 106 -101 381 -245 584 -104 146 -330 364 -516 497 -231 164
-556 334 -900 471 -188 74 -426 157 -595 207 -41 12 -86 26 -100 31 -39 13
-341 94 -480 128 -417 102 -836 187 -1342 271 -35 6 -85 15 -113 20 -27 5 -72
12 -98 15 -27 4 -56 8 -65 10 -10 1 -52 8 -95 15 -43 6 -88 13 -100 15 -26 5
-219 34 -262 40 -16 2 -93 14 -170 25 -165 25 -141 21 -375 54 -102 15 -196
29 -209 31 -14 2 -75 12 -135 21 -61 9 -120 17 -131 19 -11 2 -56 8 -100 15
-97 14 -351 56 -420 70 -271 53 -430 83 -540 101 -33 5 -82 14 -110 19 -27 5
-72 12 -100 16 -27 4 -57 8 -65 9 -75 11 -395 56 -430 60 -25 3 -61 7 -80 9
-19 3 -57 7 -85 11 -27 3 -68 7 -90 10 -191 23 -399 41 -780 70 -33 2 -116 7
-185 10 -69 4 -145 9 -170 11 -59 6 -1045 15 -1051 10z"/>
<path d="M66231 87718 c-5 -13 -136 -279 -291 -593 -155 -313 -297 -601 -315
-640 -18 -38 -97 -200 -175 -360 -78 -159 -277 -571 -442 -915 -166 -344 -393
-812 -506 -1040 -256 -520 -357 -727 -392 -810 -15 -36 -60 -139 -100 -230
-70 -160 -234 -559 -250 -610 -5 -14 -30 -79 -55 -145 -137 -352 -355 -997
-355 -1050 0 -36 30 -9 82 73 318 500 843 1509 1073 2062 12 30 53 127 89 215
37 88 75 180 86 205 11 25 76 182 146 350 69 168 138 334 154 370 15 36 50
119 78 185 27 66 93 222 146 347 96 227 268 641 418 1008 44 107 99 242 123
300 24 58 64 157 90 220 26 63 63 153 82 200 19 47 54 132 78 190 39 98 174
428 244 599 17 41 28 78 25 83 -9 15 -24 8 -33 -14z"/>
<path d="M68095 87458 c-4 -13 -42 -133 -85 -268 -177 -554 -234 -732 -280
-875 -74 -230 -118 -368 -305 -965 -47 -151 -99 -315 -115 -365 -15 -49 -51
-164 -80 -255 -62 -196 -138 -435 -150 -470 -18 -51 -130 -410 -179 -570 -117
-386 -313 -1138 -405 -1551 -72 -324 -64 -321 62 21 135 366 143 391 251 715
182 546 309 977 531 1800 5 17 44 158 88 315 44 157 119 422 166 590 47 168
178 643 291 1055 113 413 212 769 220 792 7 24 10 45 5 48 -5 3 -11 -5 -15
-17z"/>
<path d="M70306 87158 c-13 -41 -269 -1774 -355 -2403 -46 -330 -89 -627 -155
-1065 -59 -391 -93 -808 -104 -1270 -7 -295 1 -830 12 -849 13 -21 35 2 50 52
109 377 231 1003 295 1512 31 246 39 344 61 695 11 179 22 350 25 380 2 30 7
91 10 135 3 44 16 222 30 395 34 431 70 939 100 1405 14 215 27 422 30 460 3
39 9 147 15 240 5 94 13 205 16 248 5 66 3 77 -11 77 -8 0 -17 -6 -19 -12z"/>
<path d="M67695 81642 c-131 -62 -245 -281 -319 -612 -30 -137 -52 -261 -61
-350 l-7 -65 103 101 c149 145 224 201 344 259 62 31 200 27 282 -7 276 -116
618 -525 899 -1078 36 -72 69 -129 71 -126 3 3 -18 83 -46 178 -155 532 -379
1020 -601 1313 -128 169 -303 318 -440 374 -76 32 -173 37 -225 13z"/>
<path d="M61826 81545 c-22 -52 -19 -58 5 -12 11 22 18 41 15 44 -3 3 -12 -12
-20 -32z"/>
<path d="M61776 81429 c-15 -34 -25 -63 -23 -66 2 -2 16 24 31 58 15 34 25 63
23 66 -2 2 -16 -24 -31 -58z"/>
<path d="M61730 81328 c0 -3 -7 -22 -15 -42 -8 -20 -13 -36 -10 -36 8 0 36 73
30 78 -3 3 -5 3 -5 0z"/>
<path d="M61665 81169 c-9 -17 -14 -33 -11 -36 3 -3 10 7 16 22 6 15 13 32 16
36 3 5 3 9 0 9 -3 0 -13 -14 -21 -31z"/>
<path d="M61616 81055 c-9 -26 -7 -32 5 -12 6 10 9 21 6 23 -2 3 -7 -2 -11
-11z"/>
<path d="M61556 80915 c-9 -26 -7 -32 5 -12 6 10 9 21 6 23 -2 3 -7 -2 -11
-11z"/>
<path d="M64257 80160 c-169 -29 -455 -158 -656 -294 -29 -20 -63 -36 -75 -36
-84 0 -660 -174 -844 -255 -44 -19 -83 -35 -87 -35 -26 0 -495 -244 -605 -315
-319 -205 -465 -314 -715 -537 -440 -391 -865 -928 -1144 -1445 -85 -159 -153
-293 -147 -293 2 0 30 48 61 108 89 165 171 305 260 442 145 223 271 390 488
645 154 180 551 562 671 644 12 8 23 17 26 21 3 3 50 39 105 81 91 69 167 122
310 215 195 127 530 298 765 391 142 56 406 148 455 158 11 2 43 10 70 19 28
8 78 21 113 29 73 17 71 9 -14 -54 -28 -20 -57 -43 -65 -51 -8 -7 -37 -31 -64
-53 -28 -22 -55 -44 -61 -50 -6 -5 -42 -37 -80 -70 -155 -135 -478 -454 -470
-463 3 -2 60 31 127 73 408 256 844 442 1212 517 157 31 423 31 542 0 152 -41
292 -132 325 -213 7 -16 16 -29 20 -29 11 0 46 85 72 176 18 65 23 104 23 216
l0 137 45 -4 c25 -2 83 -6 130 -10 47 -3 96 -8 110 -10 14 -2 57 -6 95 -10 61
-5 131 -15 225 -30 227 -37 304 -51 456 -85 188 -41 271 -62 419 -105 50 -15
104 -30 120 -34 126 -34 484 -169 700 -264 182 -80 531 -270 718 -391 607
-393 1137 -916 1552 -1531 250 -372 478 -820 634 -1249 60 -162 132 -405 135
-447 1 -28 -3 -32 -39 -43 -60 -18 -202 -92 -270 -141 -84 -60 -193 -167 -259
-254 -68 -91 -157 -261 -184 -356 -53 -179 -49 -362 10 -478 22 -44 19 -53
-21 -62 -37 -8 -193 -100 -269 -158 -163 -126 -338 -367 -413 -570 -119 -324
-87 -660 91 -954 l41 -66 -70 -64 c-39 -35 -98 -101 -132 -146 -68 -91 -159
-269 -185 -362 -22 -79 -30 -278 -15 -358 38 -202 163 -451 315 -630 31 -37
56 -70 56 -75 0 -11 -227 -233 -345 -337 -111 -99 -323 -272 -430 -351 -44
-32 -82 -61 -85 -64 -8 -8 -194 -139 -295 -207 -350 -235 -769 -464 -1130
-617 -60 -26 -126 -54 -145 -62 -185 -83 -714 -253 -869 -280 -14 -3 -51 -11
-81 -19 -55 -13 -211 -44 -325 -64 -104 -18 -366 -50 -480 -58 -224 -16 -732
-9 -925 13 -259 30 -688 107 -790 143 -14 5 -59 19 -100 31 -468 137 -950 400
-1355 739 -130 109 -416 397 -527 531 -438 530 -764 1117 -1021 1841 -81 228
-187 598 -187 653 0 7 38 38 84 69 169 112 331 269 404 390 146 243 130 583
-37 795 l-40 50 36 28 c20 15 62 53 93 85 141 142 232 302 276 486 24 98 26
121 21 248 -6 167 -27 258 -92 392 -78 161 -227 332 -387 447 l-68 48 43 22
c53 28 102 92 122 158 30 101 14 202 -56 346 -44 91 -62 115 -142 195 -85 86
-140 127 -152 116 -2 -3 19 -30 48 -60 170 -175 258 -423 198 -555 -33 -72
-148 -164 -190 -151 -9 3 -50 20 -91 37 -227 96 -459 138 -740 134 -121 -1
-275 -13 -365 -29 -77 -12 -115 -21 -235 -51 -406 -100 -812 -289 -1195 -555
-49 -35 -85 -64 -79 -66 6 -2 46 13 89 32 289 132 879 330 1095 368 14 3 63
12 110 20 47 9 103 19 125 22 23 3 51 7 63 10 90 17 416 23 547 11 233 -23
426 -76 605 -166 530 -268 724 -776 481 -1258 -32 -64 -105 -173 -158 -239
l-34 -42 -57 43 c-143 107 -302 167 -532 201 -89 13 -471 15 -525 2 -11 -3
-45 -8 -75 -12 -288 -37 -687 -161 -997 -310 -92 -44 -133 -69 -133 -80 0 -10
6 -15 13 -12 275 102 675 210 868 233 30 3 57 8 60 10 30 17 503 26 629 12 36
-5 119 -21 185 -38 283 -69 453 -212 510 -426 19 -71 22 -241 5 -304 -50 -186
-244 -387 -655 -682 -67 -47 -158 -92 -285 -141 -97 -36 -203 -73 -240 -83
-198 -54 -355 -88 -445 -99 -27 -3 -81 -9 -120 -14 -96 -11 -362 -11 -465 0
-490 54 -929 277 -1319 670 -383 387 -627 861 -722 1404 -73 423 -37 848 106
1230 104 280 218 482 414 735 81 106 348 376 442 450 39 30 76 60 83 66 69 64
339 212 481 264 175 65 365 110 535 127 98 10 411 10 522 0 89 -8 286 -49 414
-86 90 -26 283 -100 355 -136 77 -39 260 -157 354 -228 132 -99 142 -102 29
-9 -263 216 -587 376 -909 448 -44 9 -83 20 -88 24 -4 3 6 35 22 71 135 297
156 662 61 1039 -16 63 -40 145 -54 183 -95 249 -273 490 -474 642 -96 73
-262 161 -362 193 -256 83 -536 63 -774 -54 -221 -110 -415 -289 -517 -479
-169 -313 -121 -695 132 -1056 149 -213 241 -401 305 -624 l35 -120 -23 -18
c-13 -10 -61 -45 -108 -79 -150 -107 -368 -310 -505 -468 -112 -129 -260 -344
-342 -495 -150 -280 -242 -551 -288 -850 -23 -143 -30 -443 -16 -605 70 -775
470 -1493 1096 -1965 336 -253 657 -387 1070 -446 141 -20 516 -17 655 5 418
68 724 166 1102 354 4 2 10 -9 14 -25 36 -163 164 -562 247 -773 472 -1209
1239 -2152 2167 -2666 413 -228 771 -354 1295 -454 93 -18 278 -44 380 -55 33
-3 76 -8 95 -10 198 -25 784 -25 985 -1 17 2 66 7 110 11 44 4 82 8 85 10 3 1
36 6 75 10 38 4 72 8 75 10 3 1 25 6 50 9 222 30 657 136 925 225 499 164 999
396 1455 673 99 60 452 294 545 361 54 39 359 275 380 294 11 10 49 43 85 73
125 106 212 185 328 294 l72 70 53 -51 c136 -133 412 -331 657 -473 172 -99
465 -242 585 -285 104 -38 290 -89 360 -100 22 -3 67 -10 100 -15 168 -26 548
-35 710 -17 116 13 216 27 300 43 894 172 1643 715 2112 1534 231 402 356 757
404 1145 16 129 16 432 0 560 -76 618 -379 1221 -862 1720 l-59 60 94 165
c192 340 215 367 461 543 77 54 226 217 295 322 99 151 185 330 205 427 44
223 -3 505 -125 753 -122 246 -270 394 -515 514 -140 69 -245 106 -365 127
-373 66 -756 -22 -1102 -253 -327 -218 -543 -484 -687 -844 -99 -247 -146
-470 -167 -792 l-6 -98 -31 6 c-147 25 -484 25 -667 0 -14 -2 -50 -7 -80 -10
-30 -4 -62 -9 -70 -10 -8 -2 -49 -6 -90 -10 -41 -4 -79 -8 -84 -8 -5 -1 -14
14 -19 33 -196 695 -522 1357 -954 1935 -265 355 -585 691 -918 966 -582 479
-1303 854 -2060 1069 -305 87 -783 182 -1075 214 -134 15 -256 26 -345 31
-195 12 -209 14 -225 38 -56 83 -175 161 -291 191 -61 15 -190 18 -262 6z
m-6615 -630 c314 -48 643 -291 838 -619 151 -253 238 -655 210 -963 -14 -148
-56 -320 -103 -419 -51 -106 -45 -102 -103 -84 -55 17 -188 42 -279 53 -80 9
-364 9 -445 -1 -194 -23 -401 -87 -588 -181 l-88 -44 -23 81 c-33 120 -118
329 -179 437 -29 52 -91 149 -138 215 -101 142 -174 281 -210 402 -32 108 -43
288 -25 385 43 218 186 413 423 574 224 152 450 204 710 164z m15657 -2025
c238 -32 505 -165 642 -320 119 -133 209 -327 249 -535 16 -84 14 -258 -5
-331 -18 -71 -110 -244 -190 -359 -68 -96 -161 -190 -265 -265 -234 -169 -282
-228 -485 -587 l-100 -178 -100 100 c-150 148 -269 237 -455 338 -178 97 -506
209 -690 236 -46 7 -184 25 -237 32 l-43 5 0 97 c0 208 42 454 116 681 38 118
167 366 241 464 256 343 672 592 1038 624 39 3 71 7 73 8 5 4 162 -3 211 -10z
m-1949 -1979 c58 -14 141 -34 185 -46 44 -12 89 -23 100 -25 71 -16 312 -86
410 -120 451 -158 762 -326 1050 -566 442 -368 803 -970 914 -1524 102 -509
35 -1006 -203 -1501 -263 -546 -596 -947 -1039 -1252 -336 -232 -788 -405
-1187 -457 -30 -4 -64 -9 -74 -11 -48 -9 -233 -18 -356 -18 -194 0 -315 12
-505 49 -135 26 -299 78 -418 134 -305 143 -500 251 -694 384 -101 69 -215
184 -385 387 -226 271 -365 517 -414 731 -20 87 -15 267 10 344 34 108 158
294 249 375 31 27 38 29 43 16 3 -9 10 -16 15 -16 6 0 5 9 -1 21 -7 11 -10 22
-8 23 23 17 116 69 145 82 105 45 166 56 318 60 178 3 266 -11 465 -76 305
-100 690 -330 1068 -638 57 -46 105 -82 108 -80 12 13 -374 369 -531 489 -232
178 -538 346 -745 408 -142 42 -157 45 -285 60 -70 8 -242 6 -274 -3 -9 -3
-32 -8 -51 -11 -58 -10 -181 -55 -246 -90 l-62 -33 -15 36 c-98 232 -114 531
-41 749 74 224 270 482 461 609 289 191 674 238 1138 138 652 -141 1297 -575
1659 -1118 36 -54 66 -94 66 -89 0 5 -12 38 -26 73 -211 520 -717 1001 -1306
1242 -123 50 -147 58 -269 97 -178 55 -412 88 -609 85 -147 -2 -204 -8 -325
-36 -126 -28 -128 -28 -136 7 -24 108 0 251 65 396 83 184 206 337 346 427
179 117 484 237 725 287 190 39 501 40 665 1z"/>
<path d="M62240 79910 c-8 -5 -12 -12 -9 -15 4 -3 12 1 19 10 14 17 11 19 -10
5z"/>
<path d="M62165 79870 c-27 -16 -46 -30 -42 -30 13 0 85 39 92 50 9 14 6 13
-50 -20z"/>
<path d="M62090 79830 c-8 -5 -12 -12 -9 -15 4 -3 12 1 19 10 14 17 11 19 -10
5z"/>
<path d="M62027 79795 c-58 -34 -69 -50 -12 -19 58 32 60 33 54 37 -2 2 -21
-6 -42 -18z"/>
<path d="M61908 79724 c-16 -8 -28 -17 -28 -19 0 -10 16 -4 40 15 30 23 25 25
-12 4z"/>
<path d="M61850 79690 c-8 -5 -12 -12 -9 -15 4 -3 12 1 19 10 14 17 11 19 -10
5z"/>
<path d="M61799 79653 c-13 -17 -13 -17 6 -3 11 8 22 16 24 17 2 2 0 3 -6 3
-6 0 -17 -8 -24 -17z"/>
<path d="M61710 79600 c-9 -6 -10 -10 -3 -10 6 0 15 5 18 10 8 12 4 12 -15 0z"/>
<path d="M63310 78574 c-278 -58 -524 -206 -790 -473 -267 -268 -464 -559
-681 -1006 -222 -457 -362 -891 -419 -1297 -24 -164 -24 -259 -2 -153 29 135
117 437 167 574 213 585 548 1130 933 1518 139 140 294 271 314 266 4 -2 8 1
8 5 0 5 6 9 13 9 6 0 46 16 87 36 216 101 464 134 646 86 225 -59 412 -230
543 -495 95 -193 115 -302 116 -609 0 -248 -2 -262 -80 -580 -128 -518 -262
-931 -440 -1348 -57 -136 120 153 230 373 121 242 186 401 276 675 160 481
223 829 213 1175 -19 681 -313 1143 -793 1245 -83 17 -257 17 -341 -1z"/>
<path d="M67328 78465 c-2 -2 -28 -5 -58 -9 -105 -11 -173 -29 -310 -78 -243
-88 -442 -216 -657 -422 -99 -95 -271 -294 -346 -401 -162 -230 -297 -459
-414 -705 -70 -146 -96 -205 -180 -410 -75 -184 -154 -414 -209 -610 -19 -69
-38 -134 -41 -145 -5 -17 -4 -18 11 -6 9 7 16 18 16 23 0 23 119 305 211 502
283 601 597 1074 949 1426 120 120 225 214 242 216 4 1 9 2 11 4 1 1 9 3 17 5
8 2 33 11 55 21 22 10 45 19 50 20 6 1 32 10 59 19 190 65 387 88 565 65 74
-10 95 -15 201 -52 170 -60 370 -215 478 -370 21 -32 41 -55 44 -53 5 5 29
-80 48 -166 32 -150 41 -467 20 -694 -38 -415 -177 -958 -392 -1535 -38 -102
-67 -192 -65 -200 3 -17 155 253 272 485 290 576 456 1178 456 1660 0 380 -96
734 -276 1012 -119 182 -338 341 -528 382 -49 11 -221 22 -229 16z"/>
<path d="M63327 77040 c-61 -19 -62 -28 -5 -89 29 -30 70 -64 90 -74 249 -124
276 -754 56 -1290 -22 -54 -46 -120 -53 -146 -19 -65 -51 -172 -59 -196 l-8
-20 17 20 c47 57 194 331 250 466 114 273 172 515 182 750 5 117 3 160 -12
225 -32 149 -111 272 -213 331 -38 23 -59 27 -131 30 -47 1 -99 -2 -114 -7z"/>
<path d="M66975 76823 c-83 -13 -195 -59 -195 -81 0 -4 20 -28 45 -52 l44 -43
83 -1 c72 -1 89 -5 131 -29 194 -114 242 -512 116 -962 -141 -501 -463 -950
-753 -1048 -66 -23 -160 -22 -212 2 -85 39 -148 130 -186 269 -29 108 -29 341
0 502 34 188 102 397 182 560 29 60 80 223 80 256 0 38 -145 -185 -235 -361
-272 -535 -310 -1063 -94 -1308 143 -164 416 -148 663 37 145 110 245 231 386
471 198 336 317 617 386 910 25 108 28 138 29 300 0 162 -2 188 -24 255 -32
103 -55 145 -114 207 -84 90 -214 135 -332 116z"/>
<path d="M62871 76639 c-53 -66 -212 -371 -269 -514 -72 -185 -127 -381 -151
-542 -16 -108 -14 -321 5 -406 35 -156 125 -292 230 -343 106 -52 251 -28 388
64 64 43 163 138 183 176 l15 28 -39 -30 c-39 -31 -115 -57 -139 -48 -7 3 -39
-6 -70 -21 -83 -38 -166 -37 -231 3 -282 174 -250 949 61 1502 41 74 82 179
73 189 -3 2 -28 -24 -56 -58z"/>
<path d="M63346 76498 c-3 -7 -14 -47 -26 -88 -28 -96 -52 -142 -102 -196 -53
-58 -98 -71 -153 -44 -22 11 -51 36 -64 57 -23 35 -24 36 -38 17 -47 -61 -153
-335 -185 -475 -26 -120 -29 -271 -5 -350 44 -146 159 -236 235 -183 18 13 22
25 22 72 0 145 82 322 171 368 43 22 92 18 123 -11 14 -13 26 -29 26 -35 0
-22 21 -8 39 28 82 163 142 392 143 545 0 133 -21 197 -84 260 -47 47 -94 63
-102 35z"/>
<path d="M66830 76237 c0 -14 -12 -65 -26 -113 -94 -327 -288 -479 -408 -321
-15 19 -26 39 -26 45 0 21 -18 13 -40 -18 -53 -74 -128 -265 -154 -391 -70
-340 21 -542 250 -557 67 -4 73 -3 84 18 9 17 9 32 0 66 -18 64 -8 215 19 283
58 144 158 212 224 153 24 -21 56 -89 57 -119 0 -27 11 -29 33 -5 24 27 133
239 162 317 65 172 84 363 47 467 -34 95 -115 177 -189 193 -30 6 -33 4 -33
-18z"/>
<path d="M67950 74587 c-3 -3 -43 -7 -89 -11 -66 -5 -267 -40 -351 -62 -8 -2
-33 -8 -55 -14 -22 -6 -48 -12 -58 -15 -9 -2 -21 -6 -25 -9 -5 -3 -19 -7 -33
-10 -94 -18 -434 -167 -599 -263 -385 -224 -741 -536 -1000 -877 -33 -44 -58
-82 -55 -84 3 -3 28 14 57 37 624 496 1163 804 1693 966 110 34 273 76 342 90
63 12 272 44 323 50 30 3 73 8 95 11 67 10 424 11 530 3 89 -8 299 -33 351
-43 10 -2 47 -10 82 -16 34 -7 65 -10 69 -6 10 10 -194 101 -313 140 -108 35
-292 79 -389 92 -27 3 -59 8 -70 11 -25 6 -499 15 -505 10z"/>
<path d="M61048 74525 c-2 -1 -37 -5 -78 -9 -121 -9 -315 -64 -333 -93 -3 -4
52 -6 121 -5 246 7 498 -34 787 -128 317 -103 548 -234 733 -414 65 -64 76
-62 41 7 -42 81 -103 163 -184 243 -206 204 -514 343 -865 390 -40 5 -218 12
-222 9z"/>
<path d="M54750 73389 c-309 -36 -333 -40 -433 -76 -96 -34 -108 -36 -207 -34
-132 3 -480 -40 -568 -70 -60 -20 -66 -20 -100 -6 -20 9 -75 28 -122 43 -47
14 -103 33 -125 42 -63 24 -313 29 -395 8 -97 -25 -161 -58 -223 -114 -32 -29
-72 -55 -94 -61 -50 -14 -188 -28 -343 -36 -69 -4 -199 -15 -290 -26 -91 -10
-205 -24 -255 -29 -113 -13 -116 -14 -259 -62 -65 -21 -142 -54 -170 -72 -44
-28 -67 -35 -152 -44 -54 -7 -169 -14 -254 -16 -143 -4 -407 -32 -540 -56
-144 -26 -249 -61 -389 -130 -144 -71 -329 -142 -466 -180 -38 -11 -117 -33
-175 -50 -67 -18 -180 -39 -310 -55 -113 -14 -239 -29 -280 -35 -41 -5 -115
-12 -165 -15 -49 -3 -121 -10 -160 -15 -38 -5 -113 -14 -165 -20 -116 -13
-253 -36 -338 -56 -68 -16 -275 -110 -325 -148 -27 -21 -57 -27 -202 -45 -93
-12 -201 -25 -240 -30 -38 -6 -117 -15 -175 -21 -58 -6 -125 -16 -150 -22 -25
-5 -78 -16 -117 -24 -130 -25 -341 -117 -494 -215 -39 -25 -42 -25 -102 -13
-34 7 -84 16 -112 22 -109 21 -386 0 -605 -47 -106 -23 -311 -90 -368 -120
-47 -26 -169 -81 -178 -81 -3 0 -34 -13 -68 -29 -325 -151 -425 -203 -556
-287 -105 -68 -151 -89 -215 -102 -27 -5 -113 -23 -190 -39 -77 -17 -180 -35
-230 -42 -203 -25 -426 -76 -510 -116 -80 -37 -189 -84 -255 -109 -25 -9 -62
-29 -82 -44 -156 -114 -164 -119 -264 -146 -315 -88 -464 -148 -637 -255 -62
-38 -123 -72 -137 -76 -34 -10 -87 -42 -134 -81 -40 -35 -141 -74 -187 -74
-15 0 -45 10 -66 22 -30 18 -57 23 -133 26 -165 7 -290 -37 -398 -142 -37 -35
-95 -78 -129 -95 -71 -35 -226 -170 -242 -209 -5 -15 -11 -36 -13 -46 -2 -14
-21 -27 -61 -42 -65 -25 -238 -137 -277 -179 -14 -15 -60 -45 -103 -67 -45
-23 -93 -58 -115 -82 -39 -44 -102 -71 -221 -97 -30 -6 -91 -26 -135 -44 -45
-18 -112 -42 -151 -54 -70 -23 -344 -160 -420 -211 -22 -15 -73 -44 -113 -65
l-74 -38 -94 13 c-101 14 -189 9 -266 -14 -123 -38 -225 -115 -247 -186 -5
-19 -19 -59 -29 -88 l-20 -54 -133 -61 c-112 -52 -144 -72 -192 -119 -50 -50
-63 -58 -96 -58 -126 0 -628 -69 -916 -126 -1236 -244 -2501 -750 -3593 -1435
-1283 -806 -2222 -1802 -2666 -2828 -150 -346 -263 -769 -291 -1091 -3 -41
-15 -111 -25 -155 -47 -200 -79 -458 -85 -700 -8 -315 27 -553 132 -894 20
-64 36 -139 37 -171 1 -46 7 -63 29 -90 l28 -33 -55 -49 c-64 -57 -104 -131
-112 -209 -8 -76 -34 -199 -49 -229 -7 -14 -25 -36 -40 -50 -28 -26 -75 -109
-75 -133 0 -8 -11 -35 -24 -60 -32 -60 -56 -141 -56 -189 0 -23 -8 -50 -20
-66 -15 -21 -20 -50 -25 -127 -4 -85 -9 -105 -31 -139 -14 -21 -51 -105 -82
-185 -55 -145 -55 -147 -57 -264 l-2 -118 -40 -42 c-54 -58 -71 -87 -89 -159
-17 -66 -14 -127 10 -196 13 -35 12 -43 -5 -83 -11 -24 -22 -64 -25 -89 -17
-151 -18 -155 -135 -269 -138 -136 -142 -152 -75 -291 6 -14 26 -34 43 -45 29
-18 32 -24 29 -65 -5 -74 -27 -129 -62 -156 -52 -40 -93 -139 -104 -254 -6
-61 -4 -80 9 -104 9 -16 22 -40 30 -55 22 -42 53 -71 101 -96 l45 -23 -1 -118
c-1 -66 -7 -141 -14 -169 -14 -61 -26 -159 -40 -327 -10 -122 -6 -214 19 -488
5 -50 4 -99 -2 -120 -19 -69 15 -325 53 -400 12 -25 36 -59 52 -76 l30 -32 3
-318 c2 -215 -1 -326 -8 -339 -15 -28 -26 -288 -15 -360 11 -73 54 -168 99
-220 l34 -38 -130 -124 c-171 -164 -331 -306 -430 -380 -721 -542 -2157 -1133
-3032 -1248 -215 -28 -377 -14 -656 56 -153 38 -403 138 -395 158 2 5 43 38
91 75 117 88 282 242 367 342 117 139 176 236 334 553 167 335 213 456 245
649 22 130 27 366 11 482 -24 170 -157 604 -232 759 -110 226 -285 401 -514
518 -123 63 -603 226 -734 249 -154 28 -952 39 -1115 15 -683 -99 -1161 -397
-1532 -955 -74 -110 -207 -369 -257 -498 -71 -182 -135 -467 -156 -692 -6 -65
-13 -122 -15 -126 -3 -5 -16 -61 -31 -126 -42 -198 -56 -340 -57 -584 -1 -334
24 -476 157 -906 84 -272 115 -355 181 -487 204 -407 543 -774 959 -1036 247
-156 484 -263 882 -401 611 -212 848 -266 1399 -316 200 -19 976 -28 1155 -14
1215 95 2142 296 3015 653 132 54 732 321 827 368 l67 33 65 -62 c58 -56 168
-122 204 -122 31 0 23 -32 -20 -78 -36 -39 -47 -59 -60 -117 -26 -111 -20
-170 23 -235 47 -71 66 -87 125 -109 41 -16 49 -23 52 -47 2 -16 10 -53 18
-83 14 -48 14 -55 -1 -71 -23 -25 -46 -106 -46 -161 -1 -58 23 -105 66 -130
l34 -20 -20 -32 c-26 -43 -24 -80 6 -116 41 -47 109 -65 231 -58 l103 5 42
-127 c111 -337 320 -792 507 -1105 85 -144 88 -151 79 -185 -6 -20 -28 -55
-49 -79 -45 -49 -58 -79 -58 -130 0 -70 53 -125 148 -153 40 -11 43 -15 38
-38 -19 -79 -18 -110 3 -145 27 -43 68 -69 143 -91 58 -16 115 -64 198 -164
19 -23 56 -64 83 -91 45 -47 47 -52 47 -106 0 -54 2 -58 44 -98 122 -113 138
-125 188 -141 29 -10 66 -27 81 -38 33 -22 137 -57 173 -57 29 0 50 -31 58
-90 4 -24 11 -49 16 -56 10 -12 27 -80 36 -149 10 -75 15 -88 52 -126 20 -21
48 -53 61 -70 24 -31 110 -79 142 -79 9 0 45 -13 81 -29 36 -17 89 -33 119
-36 30 -4 83 -16 118 -26 35 -10 80 -19 100 -20 20 0 58 -8 86 -17 43 -15 53
-23 72 -62 12 -25 22 -58 22 -75 1 -16 8 -43 16 -59 8 -15 15 -41 15 -58 0
-41 24 -82 62 -109 18 -12 54 -41 79 -64 25 -23 63 -48 85 -55 91 -29 198
-101 279 -189 205 -223 210 -228 253 -242 20 -6 62 -26 92 -44 74 -45 216 -72
428 -82 82 -4 92 -7 86 -21 -16 -35 -16 -100 0 -130 33 -63 146 -112 261 -112
131 0 348 -68 460 -145 20 -13 52 -29 72 -36 20 -6 52 -22 71 -35 20 -14 61
-31 91 -40 104 -28 261 -101 330 -152 18 -14 52 -32 75 -41 22 -9 62 -29 87
-44 83 -49 234 -69 354 -46 28 5 96 13 152 18 55 5 120 15 143 21 47 13 74 7
112 -25 15 -13 51 -31 80 -40 29 -10 60 -24 68 -31 25 -21 87 -44 148 -55 74
-13 107 -26 162 -63 63 -44 79 -66 80 -108 0 -30 7 -42 37 -67 37 -30 105 -51
168 -51 40 0 154 -55 163 -78 13 -36 74 -123 95 -137 20 -13 59 -28 162 -63
154 -51 352 -57 647 -18 108 15 215 33 238 41 40 14 41 14 86 -20 25 -19 64
-40 87 -47 48 -15 257 -17 359 -4 43 6 94 5 140 -2 40 -6 99 -14 131 -18 66
-7 87 -23 87 -63 0 -16 6 -34 14 -40 7 -6 26 -39 41 -74 27 -62 65 -141 96
-201 36 -67 95 -95 204 -95 83 -1 143 6 554 58 173 22 318 38 323 35 14 -9
392 -5 503 5 61 6 142 13 180 16 39 3 77 8 86 11 61 18 105 6 248 -66 l144
-73 124 -5 c113 -4 189 2 368 28 33 5 105 14 160 20 55 7 147 20 204 31 139
26 178 24 301 -12 58 -17 125 -36 150 -41 25 -6 81 -19 125 -30 164 -41 170
-42 329 -29 83 6 183 16 221 21 132 18 220 29 306 39 139 17 315 67 399 114
l75 42 140 0 c94 0 166 -6 220 -17 172 -36 203 -40 364 -44 113 -3 201 0 276
10 61 9 151 20 200 26 50 6 124 18 166 26 50 10 121 14 200 12 145 -3 354 7
424 22 28 6 96 17 153 25 57 8 127 22 155 30 32 10 108 18 199 21 l147 5 65
-40 c83 -50 109 -58 237 -71 203 -22 446 25 734 139 206 83 328 117 515 146
25 4 88 18 140 31 52 14 178 35 280 49 102 14 221 30 265 36 89 12 310 54 365
69 184 49 205 52 395 55 113 2 225 9 275 18 47 8 107 18 135 22 47 7 73 15
250 84 48 19 116 35 170 42 50 6 123 17 163 26 49 10 97 12 145 8 40 -3 126
-2 192 4 122 11 146 14 430 51 88 11 196 25 240 30 82 10 114 18 270 65 131
40 178 50 290 64 107 13 354 73 471 114 107 38 173 74 302 167 24 18 74 39
115 50 39 10 103 32 140 49 38 17 74 31 80 31 7 0 50 16 97 36 181 76 475 184
548 203 199 50 620 132 757 147 32 3 104 19 160 35 55 16 108 29 118 29 29 0
293 85 527 170 58 21 148 54 200 73 120 43 357 165 430 220 30 23 75 55 100
71 25 16 65 46 89 67 31 28 53 39 75 39 73 0 327 53 392 81 47 21 106 33 246
49 47 6 112 19 145 29 131 43 228 82 265 106 22 14 60 38 86 52 26 14 56 33
67 43 23 19 149 102 183 120 13 6 40 26 60 44 36 31 145 82 227 106 42 13 358
167 412 201 18 11 72 29 120 38 49 10 119 31 156 45 37 15 96 36 131 46 36 10
91 32 123 48 32 16 103 52 158 79 55 28 121 66 146 86 26 19 55 39 65 45 21
11 181 37 284 47 36 4 112 21 170 40 58 18 137 43 175 54 78 22 171 68 225
110 19 15 59 40 89 56 29 16 72 45 95 65 64 55 320 221 368 239 15 6 46 22 70
37 24 15 77 45 118 65 41 21 95 51 120 68 25 17 50 31 56 31 9 0 52 27 265
165 34 22 87 55 117 72 30 18 70 46 91 61 20 16 58 41 85 57 28 15 68 45 90
65 23 20 57 47 76 60 19 13 51 38 71 57 36 34 114 63 170 63 49 0 184 40 264
79 75 35 115 67 275 216 19 18 58 50 87 72 28 21 70 60 94 86 44 50 107 85
231 126 36 12 95 40 129 62 35 21 96 55 134 75 39 20 86 48 105 63 19 14 64
46 101 71 122 81 203 144 254 197 122 127 175 199 175 238 0 39 62 135 117
182 32 26 71 63 88 82 16 19 53 57 81 85 28 28 59 63 68 78 15 22 38 34 115
57 53 16 125 34 161 41 186 34 364 147 406 257 14 37 16 52 7 86 -14 51 -11
54 80 115 38 24 83 64 100 89 52 71 208 233 258 267 25 17 84 56 130 87 46 31
127 98 179 149 94 91 198 175 275 221 38 22 87 64 235 198 36 32 93 83 126
113 34 29 89 77 123 106 34 30 84 71 112 93 27 22 65 64 83 92 19 29 44 61 56
72 12 11 33 40 46 65 30 56 84 131 132 185 20 23 45 55 54 71 10 16 33 48 52
72 20 24 38 59 41 80 12 74 16 82 59 131 24 27 47 60 51 73 12 41 77 162 106
198 16 19 29 40 29 47 0 6 16 33 36 58 35 47 68 120 59 134 -10 18 56 94 111
127 32 19 107 84 165 142 107 107 129 143 129 209 0 13 5 43 12 68 11 39 29
60 141 162 141 129 158 149 177 207 7 22 21 53 30 70 29 49 33 89 15 132 l-16
39 28 20 c43 31 136 127 158 165 21 36 153 144 219 180 63 35 239 222 263 279
10 22 13 51 9 80 -3 25 -8 67 -10 93 -3 25 -10 57 -17 70 -8 14 -12 60 -12
123 1 90 5 111 41 211 42 117 79 183 117 208 31 20 85 105 85 133 0 13 7 37
15 54 9 16 27 62 40 101 13 39 33 80 43 92 31 34 52 82 52 120 0 30 5 38 33
52 41 22 291 273 334 337 18 26 42 79 53 115 11 37 36 99 55 137 39 80 56 162
54 261 -1 76 6 204 23 454 6 91 12 201 13 245 1 44 5 110 10 147 5 45 4 88 -5
130 -6 35 -13 101 -14 148 -1 47 -10 108 -18 135 -9 28 -19 81 -23 120 -3 38
-18 103 -32 145 -24 70 -25 81 -18 190 4 63 9 151 11 195 9 262 32 594 43 635
6 19 21 67 35 105 23 64 25 87 28 280 3 232 0 255 -56 348 -19 31 -40 74 -47
94 -6 21 -22 59 -35 85 -36 71 -32 89 35 163 91 100 141 218 141 335 0 30 7
78 16 105 9 28 18 97 20 155 8 209 15 338 26 495 6 88 10 187 10 220 0 33 -1
114 -1 180 -1 136 -15 199 -67 292 l-34 61 19 45 c28 65 43 148 41 235 -1 82
15 347 26 422 15 107 -48 271 -134 352 l-48 45 54 49 c38 33 64 67 83 108 18
41 49 82 94 126 71 69 94 104 106 160 4 19 17 58 29 86 41 92 3 169 -106 215
l-55 24 5 40 c3 22 11 61 19 87 14 51 -42 -19 1790 2282 144 181 264 334 266
340 2 6 -23 -14 -55 -45 -166 -159 -2086 -1899 -2095 -1899 -8 0 -9 12 -3 38
4 20 7 51 6 67 -1 21 9 44 33 74 47 59 62 110 48 164 -6 23 -9 56 -6 74 4 22
-3 49 -20 85 -14 29 -28 65 -31 79 -8 38 -42 77 -89 100 -23 12 -54 32 -69 46
-25 24 -26 26 -11 60 11 28 13 58 8 137 -6 94 -9 105 -43 154 l-36 54 13 60
c11 54 10 63 -9 103 -26 53 -78 89 -166 113 l-67 18 -58 167 -57 167 71 42
c40 22 167 96 282 163 307 179 756 440 860 500 l90 52 87 185 86 185 -52 172
c-28 94 -56 175 -61 180 -15 15 -518 203 -1295 485 -69 25 -181 66 -250 91
-69 26 -179 66 -245 90 -66 24 -169 62 -230 84 l-110 41 -138 -61 -138 -60
-47 15 c-43 15 -47 15 -63 -1 -9 -10 -172 -225 -362 -479 l-345 -461 -65 -31
c-105 -50 -271 -102 -380 -118 -192 -30 -567 -22 -1037 22 -266 25 -367 29
-640 28 -213 -1 -278 -4 -329 -18 -65 -17 -176 -68 -263 -122 -26 -16 -97 -60
-157 -97 -117 -72 -164 -87 -282 -87 -71 0 -207 -25 -273 -51 -28 -11 -86 -28
-130 -39 -43 -11 -113 -36 -156 -55 -43 -19 -90 -35 -106 -35 -15 0 -65 -5
-111 -12 -62 -9 -109 -9 -186 -1 -57 6 -133 7 -172 3 -241 -26 -288 -33 -360
-52 -164 -42 -321 -69 -512 -89 -92 -10 -112 -9 -198 10 -53 12 -108 27 -123
35 -36 18 -75 27 -152 36 -245 29 -306 49 -468 157 l-83 56 55 51 c115 107
116 217 4 286 -26 16 -56 38 -66 47 -11 10 -34 31 -51 47 -18 16 -43 51 -57
77 -44 88 -145 130 -312 131 -193 0 -375 -66 -492 -180 -36 -34 -76 -65 -90
-68 -14 -3 -38 -10 -55 -15 -16 -5 -77 -14 -135 -19 -58 -6 -132 -18 -165 -26
-121 -32 -133 -33 -196 -25 -251 35 -293 43 -332 63 -23 11 -64 27 -92 34 -71
19 -391 19 -520 -1 -277 -41 -306 -41 -518 -4 -33 6 -91 14 -130 19 -40 5
-101 14 -137 20 -36 5 -106 7 -156 4 l-91 -7 -28 37 c-31 41 -224 143 -311
165 -27 7 -64 24 -82 37 l-32 25 30 43 c16 24 34 62 39 85 5 23 16 53 25 67
10 13 21 62 26 107 18 151 19 146 -64 233 l-74 77 29 40 c16 23 37 66 46 96 9
31 29 79 44 107 16 28 29 56 29 63 0 6 11 28 25 49 13 20 28 56 34 80 5 24 11
45 13 47 1 1 33 17 69 34 55 26 77 45 130 109 35 42 78 99 96 127 19 31 50 61
80 80 28 17 71 44 96 60 49 32 70 71 46 86 -22 14 -120 10 -164 -7 -22 -8
-112 -24 -200 -35 -162 -20 -455 -71 -517 -90 -18 -6 -134 -15 -258 -20 -124
-5 -251 -12 -283 -15 -50 -5 -63 -2 -103 21 -25 14 -68 35 -97 45 -29 10 -80
31 -115 45 -85 35 -203 43 -334 21 -129 -21 -176 -20 -231 4 -31 14 -94 25
-194 35 -81 9 -168 20 -193 26 -51 12 -158 70 -186 100 -10 12 -31 27 -46 35
-24 13 -26 17 -23 71 4 69 15 111 45 177 12 26 20 59 17 72 -5 29 15 110 39
155 16 31 30 105 39 214 5 64 23 152 34 174 6 11 11 40 11 65 0 39 -6 52 -37
87 -21 23 -38 51 -38 62 0 23 -18 28 -289 83 -50 10 -96 25 -103 33 -39 47
-70 90 -87 124 -22 42 -78 81 -149 102 -24 7 -61 22 -82 34 -22 12 -44 21 -49
21 -5 0 -30 13 -55 29 -25 16 -70 36 -99 46 -44 14 -59 26 -93 71 -48 66 -47
85 12 171 21 32 39 65 39 73 0 8 14 32 30 54 16 21 32 51 35 68 4 16 20 55 36
85 16 30 29 67 29 82 1 14 7 37 15 51 8 14 14 35 15 47 0 12 11 43 25 69 15
28 25 64 25 88 0 74 7 83 91 127 136 71 209 153 209 234 0 72 -41 117 -137
151 -45 16 -52 22 -58 50 -12 67 -104 125 -225 143 -104 16 -221 40 -270 56
-25 8 -67 17 -95 20 -27 3 -61 7 -75 9 -14 1 -54 -1 -90 -5z m-695 -821 c49
-18 82 -22 178 -23 l118 0 -55 -50 c-180 -165 -184 -169 -196 -215 -7 -25 -21
-62 -32 -83 -11 -21 -22 -59 -24 -85 -12 -154 -13 -157 -66 -208 -57 -55 -73
-83 -83 -139 -4 -22 -13 -61 -20 -87 -14 -48 -6 -110 15 -123 5 -3 15 -25 21
-48 8 -32 31 -61 105 -133 56 -54 94 -99 94 -111 0 -11 -12 -30 -26 -44 -42
-39 -57 -77 -51 -130 12 -101 50 -144 147 -164 19 -4 64 -21 99 -37 73 -34
155 -50 215 -42 33 5 53 1 92 -19 27 -14 57 -34 67 -45 10 -11 33 -26 50 -33
18 -7 46 -25 62 -40 17 -15 56 -39 88 -53 76 -34 74 -50 -10 -74 -50 -15 -143
-76 -173 -114 -21 -27 -41 -105 -43 -163 0 -36 52 -121 90 -146 15 -10 52 -24
80 -30 29 -6 53 -12 53 -14 0 -3 -8 -24 -19 -47 -25 -58 -51 -139 -51 -161 0
-10 -14 -32 -31 -49 -34 -35 -49 -66 -49 -105 0 -34 58 -88 106 -100 44 -10
72 -50 73 -104 1 -21 11 -52 26 -73 14 -20 28 -48 31 -63 4 -14 28 -50 53 -79
25 -30 57 -68 71 -84 14 -17 50 -41 80 -53 30 -13 71 -33 90 -45 68 -43 125
-54 320 -59 103 -2 222 0 270 6 47 6 126 16 175 21 50 6 112 17 138 25 102 30
165 37 189 21 59 -37 137 -49 284 -42 112 5 159 3 220 -10 97 -20 232 -15 353
15 47 11 86 19 88 17 2 -2 -10 -25 -26 -52 -17 -26 -31 -57 -31 -68 0 -12 -10
-41 -21 -66 -11 -25 -22 -65 -24 -90 -3 -42 -13 -109 -33 -235 -5 -27 -14 -61
-21 -73 -12 -22 -20 -86 -23 -172 -2 -65 18 -177 36 -204 9 -15 38 -40 64 -56
26 -15 61 -39 77 -53 43 -35 82 -53 147 -67 l56 -13 -4 -61 c-12 -149 -12
-280 -2 -300 6 -12 46 -55 89 -97 83 -82 122 -102 236 -119 32 -5 92 -16 133
-25 59 -13 98 -15 180 -9 240 16 286 10 496 -71 64 -25 95 -31 184 -40 30 -3
80 -10 111 -16 32 -6 93 -9 140 -5 259 18 364 19 414 2 114 -39 396 -51 542
-22 43 8 107 17 143 21 36 3 88 13 115 21 28 7 122 18 210 23 123 8 181 16
250 37 50 14 125 35 168 45 42 10 112 34 155 53 94 42 230 96 243 96 5 0 9 -6
9 -13 0 -7 16 -28 35 -47 19 -19 35 -39 35 -46 0 -10 33 -84 80 -174 13 -26
36 -44 90 -73 39 -20 91 -48 114 -62 23 -13 70 -31 104 -40 35 -9 80 -23 100
-32 20 -8 69 -21 107 -28 39 -7 99 -20 135 -28 67 -16 180 -41 238 -52 22 -5
37 -16 47 -36 9 -16 19 -29 24 -29 5 0 14 -14 22 -31 30 -74 90 -117 196 -143
32 -8 78 -21 103 -30 48 -18 187 -36 209 -28 10 4 7 -7 -9 -34 -42 -68 -398
-612 -723 -1104 l-202 -305 -68 -3 c-52 -3 -84 2 -132 19 -71 25 -50 26 -410
-25 -88 -12 -162 -21 -164 -19 -2 1 8 21 23 43 29 44 29 44 -58 30 -34 -5
-209 -30 -391 -55 -181 -25 -406 -57 -500 -70 -93 -13 -381 -54 -640 -90 -258
-36 -518 -72 -576 -81 l-106 -15 -113 41 -112 42 -217 -22 c-119 -11 -233 -23
-253 -27 -43 -6 -47 1 -16 34 12 13 20 25 17 27 -4 4 -412 -36 -1424 -139
-247 -25 -558 -57 -689 -70 -132 -13 -242 -28 -246 -32 -4 -4 -69 -100 -145
-213 -76 -113 -151 -224 -167 -248 l-30 -43 -47 44 c-80 75 -210 166 -295 207
-109 52 -550 213 -656 238 -189 46 -527 68 -1025 66 -568 -3 -1179 -170 -1840
-505 -452 -228 -915 -535 -1262 -836 -40 -35 -74 -59 -76 -55 -2 4 -15 38 -27
77 -93 281 -279 490 -565 632 -157 78 -604 237 -776 277 -150 34 -639 63
-1029 60 -255 -2 -543 -41 -762 -102 -38 -11 -68 -17 -68 -15 0 2 18 28 39 56
76 104 112 168 239 433 172 357 196 437 195 654 -1 139 -5 155 -108 495 -31
105 -73 219 -91 255 -72 137 -209 277 -349 355 -69 39 -407 168 -550 210 -108
32 -262 43 -382 27 -67 -9 -94 -9 -155 5 -87 19 -301 21 -397 3 -235 -43 -487
-164 -684 -327 -231 -193 -392 -467 -437 -746 -5 -34 -10 -113 -10 -175 0 -99
-4 -124 -29 -195 -58 -164 -76 -385 -46 -547 14 -79 133 -478 162 -543 9 -20
14 -39 12 -41 -2 -1 -240 -29 -529 -60 -289 -32 -539 -61 -557 -65 -27 -5 -52
-35 -184 -216 -258 -357 -1055 -1388 -1069 -1383 -4 2 -39 44 -78 93 -38 50
-104 123 -146 164 -42 40 -76 76 -75 80 0 3 46 42 102 86 223 176 500 470 648
688 75 110 323 587 394 757 176 421 226 922 135 1350 -21 97 -101 365 -120
400 -7 13 -28 67 -46 119 -44 130 -59 164 -87 197 -14 16 -39 56 -57 89 -94
174 -125 226 -170 283 -41 52 -50 70 -50 103 0 22 5 49 10 60 13 24 211 124
363 183 62 25 168 70 237 101 69 31 216 87 327 125 220 75 301 108 498 204 72
35 167 76 213 91 46 15 174 71 285 125 111 53 247 114 302 135 55 21 174 69
265 106 91 37 230 88 310 114 80 26 206 73 280 105 74 32 176 72 225 90 162
58 237 88 455 180 118 50 244 101 280 114 36 13 128 55 205 92 77 38 155 75
174 81 60 22 28 24 -100 9 -68 -9 -205 -25 -304 -36 -99 -11 -220 -25 -270
-30 -113 -13 -421 -47 -540 -60 -49 -5 -126 -14 -170 -19 -44 -5 -105 -12
-135 -16 -30 -3 -91 -10 -135 -16 -44 -5 -246 -27 -450 -49 -203 -22 -408 -44
-455 -50 -80 -10 -128 -15 -340 -39 -172 -20 -283 -32 -635 -71 -349 -39 -452
-51 -600 -70 -38 -6 -126 -17 -195 -25 -483 -60 -908 -134 -1192 -206 -196
-49 -832 -241 -846 -254 -2 -1 -44 8 -95 21 -441 115 -964 197 -1427 224 -101
6 -186 12 -188 14 -12 12 341 202 431 232 28 9 76 28 107 42 30 13 84 33 120
44 36 11 85 31 110 43 25 13 70 30 100 39 30 9 91 34 135 56 44 21 118 57 165
79 47 23 137 70 200 106 63 36 140 77 170 92 30 14 80 43 110 63 30 20 77 47
103 59 26 13 73 42 105 65 31 23 82 56 113 74 31 18 63 40 70 49 32 38 244
154 469 256 127 58 814 285 930 308 30 5 125 32 210 59 164 51 275 83 429 125
125 34 237 93 305 162 32 32 79 66 116 84 34 16 74 37 89 47 71 50 360 185
481 225 41 14 104 28 140 32 36 3 115 17 175 30 185 39 267 56 343 70 39 8
105 23 145 33 74 20 197 44 323 62 39 5 113 23 165 39 52 17 125 40 164 51 38
12 85 30 105 39 71 36 275 144 285 151 6 4 62 31 125 60 63 28 153 69 200 90
105 48 348 105 555 130 44 5 96 14 115 20 19 5 62 10 95 10 33 0 76 5 95 10
19 6 73 15 120 20 47 6 126 19 175 30 50 11 126 26 170 35 44 8 109 26 145 40
35 14 97 34 138 46 40 11 103 34 140 51 37 16 87 36 112 44 25 8 81 32 125 54
270 130 377 163 745 229 63 11 147 27 185 36 39 8 108 15 155 15 47 0 130 6
185 15 55 8 163 22 240 30 77 9 169 20 205 25 36 5 98 12 138 16 41 3 99 12
130 20 32 8 98 21 149 29 51 8 134 30 185 49 175 64 265 85 418 96 80 6 165
15 190 21 25 5 81 14 125 19 44 6 103 17 130 24 56 15 203 37 405 61 186 22
268 35 315 52 22 8 86 20 142 28 101 15 101 15 155 -10 101 -46 235 -57 358
-30 36 8 92 19 125 25 136 26 238 52 289 75 110 49 174 58 621 90 94 6 170 13
170 13 1 1 28 -8 60 -20z m-8715 -1203 c-49 -19 -171 -55 -184 -54 -17 1 31
19 114 45 82 25 126 31 70 9z m24162 -2729 c139 -51 332 -121 428 -156 96 -35
179 -66 183 -70 4 -4 -75 -54 -175 -112 -101 -58 -545 -316 -987 -572 -442
-257 -805 -465 -806 -464 -5 4 1089 1467 1097 1468 3 0 120 -42 260 -94z
m-26047 -601 c-138 -46 -934 -315 -1120 -379 -104 -35 -325 -112 -489 -170
-164 -58 -304 -106 -310 -106 -6 0 -51 29 -101 65 -49 35 -138 92 -198 126
-59 34 -106 63 -104 65 2 2 64 22 138 43 437 130 751 194 1319 271 323 44 859
108 900 108 30 0 25 -3 -35 -23z m-4655 -279 c609 -59 1119 -164 1653 -340
272 -90 450 -174 648 -307 219 -147 412 -348 541 -564 148 -248 216 -570 189
-897 -38 -462 -180 -782 -508 -1141 -348 -380 -847 -696 -1463 -925 -276 -102
-924 -292 -998 -292 -12 0 -22 -4 -22 -9 0 -11 -22 -8 450 -66 201 -25 419
-57 485 -71 266 -58 650 -222 845 -361 117 -84 269 -233 339 -333 101 -143
180 -327 216 -500 75 -357 -1 -875 -171 -1183 -91 -163 -177 -339 -224 -458
-77 -193 -342 -545 -586 -779 -408 -391 -1035 -742 -1679 -940 -1086 -335
-2269 -282 -2890 129 -268 177 -454 507 -496 881 -34 305 52 616 239 865 153
202 436 411 658 484 240 80 457 59 642 -61 83 -54 197 -177 249 -269 46 -80
98 -229 109 -307 l6 -49 -48 -34 c-257 -174 -425 -404 -497 -679 -33 -123 -39
-173 -39 -296 1 -173 43 -286 139 -374 64 -59 114 -84 224 -111 75 -19 101
-21 249 -16 521 19 992 261 1470 754 375 386 671 885 855 1438 115 344 155
564 162 885 4 181 2 247 -12 335 -64 415 -246 665 -610 840 -265 127 -547 186
-896 188 -215 2 -244 17 -71 36 313 36 612 100 791 172 190 76 472 241 661
387 103 80 310 280 394 382 333 401 513 884 542 1455 14 284 -42 660 -139 925
-140 380 -298 552 -663 721 -483 223 -1110 349 -1746 349 -654 0 -1308 -117
-2043 -367 -1269 -432 -2381 -1175 -3163 -2113 -754 -905 -1101 -1792 -1069
-2735 27 -790 318 -1280 842 -1416 128 -33 395 -34 570 0 489 92 929 314 1263
636 118 113 207 226 258 326 38 76 61 166 47 180 -5 5 -63 -1 -142 -16 -151
-29 -299 -35 -381 -15 -184 44 -298 169 -352 388 -29 117 -31 334 -4 437 74
280 288 505 575 601 293 98 577 55 765 -117 142 -130 207 -301 207 -540 0
-320 -116 -544 -492 -949 -73 -80 -170 -185 -214 -234 -142 -156 -368 -347
-570 -479 -403 -262 -820 -411 -1335 -473 -210 -26 -541 -24 -715 4 -455 73
-799 270 -1046 597 -101 135 -213 382 -263 580 -140 559 -32 1304 280 1928
365 729 952 1392 1783 2015 1136 852 2573 1490 4001 1776 365 73 662 111 1110
140 143 9 944 -4 1090 -18z m27606 -361 c34 -14 93 -29 130 -35 38 -6 96 -17
129 -25 33 -8 101 -15 151 -15 70 0 106 -6 160 -24 39 -14 95 -28 125 -31 30
-4 78 -14 107 -22 64 -18 213 -20 297 -5 33 6 95 14 139 18 l78 7 -74 -99
c-40 -54 -228 -305 -417 -557 -189 -251 -341 -460 -338 -463 3 -4 19 3 35 15
46 32 46 26 3 -31 -22 -29 -79 -136 -127 -238 l-86 -185 16 -64 c10 -35 16
-65 14 -66 -2 -2 -48 -20 -103 -40 -55 -20 -168 -65 -252 -101 l-151 -65 -64
24 -63 24 -205 -13 c-280 -18 -273 -18 -265 5 4 12 1 21 -9 23 -9 2 64 116
222 343 220 317 241 352 323 527 l88 187 -50 168 c-28 92 -55 175 -59 184 -5
8 -24 20 -42 26 -18 6 -96 34 -173 63 l-140 52 -105 -12 c-234 -25 -375 -38
-378 -35 -2 2 4 15 14 29 9 15 15 28 13 30 -2 2 -60 -3 -129 -10 -170 -18
-186 -17 -129 5 44 17 137 41 312 81 48 10 123 35 166 55 43 19 84 35 90 35 7
0 44 14 84 31 84 36 197 78 320 119 89 30 166 66 202 94 29 22 70 20 141 -9z
m-27004 -572 c123 -63 200 -123 253 -197 43 -60 116 -200 114 -221 0 -5 -55
-50 -122 -100 -425 -313 -910 -750 -1292 -1165 -815 -885 -1487 -1902 -2297
-3477 -73 -142 -139 -271 -148 -286 -11 -21 -39 -40 -110 -71 -321 -144 -639
-413 -840 -711 -122 -180 -223 -435 -261 -654 -38 -220 -23 -502 37 -721 15
-52 28 -104 31 -116 3 -13 -14 -59 -42 -115 -49 -97 -236 -455 -285 -544 -15
-27 -60 -111 -100 -185 -148 -275 -393 -704 -547 -960 -574 -950 -1121 -1715
-1752 -2449 -542 -631 -1213 -1295 -1801 -1780 -576 -477 -1254 -864 -1975
-1130 -724 -268 -1493 -429 -2440 -513 -329 -29 -943 -31 -1245 -4 -628 55
-1083 175 -1529 401 -273 138 -462 274 -667 479 -311 312 -481 615 -560 1001
-32 159 -44 454 -25 637 47 450 226 858 511 1170 281 307 715 481 1200 481
297 0 494 -66 660 -219 119 -110 194 -236 242 -400 20 -70 23 -100 22 -264 0
-167 -3 -195 -27 -283 -77 -288 -243 -518 -528 -734 -97 -73 -200 -127 -324
-169 -303 -102 -529 -32 -930 290 -66 53 -125 96 -132 96 -21 0 -26 -90 -14
-225 64 -724 597 -1347 1441 -1683 389 -155 716 -244 1065 -288 194 -25 613
-25 810 0 691 87 1612 396 2460 826 523 265 854 484 1188 786 196 177 730 713
920 922 961 1060 1769 2230 2589 3752 261 483 637 1225 1018 2010 95 195 264
542 377 770 l204 415 127 130 c630 644 818 918 913 1333 20 83 23 127 24 302
l1 205 103 165 c1014 1613 2064 2670 3436 3459 77 44 144 81 148 81 5 0 49
-21 99 -47z m30282 -406 c24 -78 49 -165 56 -194 l13 -52 -52 -47 c-63 -56
-91 -108 -91 -166 0 -35 9 -58 45 -113 25 -39 45 -80 45 -93 0 -32 25 -76 56
-101 35 -27 84 -97 84 -119 0 -9 11 -34 25 -55 22 -31 28 -59 41 -174 20 -184
31 -790 15 -821 -15 -28 -31 -28 -31 -1 0 25 -121 427 -153 509 -72 183 -223
349 -417 458 -66 36 -472 191 -597 226 -112 33 -275 54 -430 58 -94 2 -119 6
-108 14 9 6 84 51 168 99 83 49 238 139 342 200 105 61 348 203 540 315 193
111 359 208 370 215 26 17 27 16 79 -158z m-5172 46 c-10 -16 -198 -287 -417
-603 -219 -316 -461 -665 -538 -774 -76 -110 -141 -205 -144 -212 -3 -9 6 -11
34 -8 21 2 187 13 368 24 182 11 500 32 707 46 208 14 386 24 397 22 17 -3 13
-14 -38 -105 -31 -56 -60 -105 -62 -108 -3 -3 -147 -14 -320 -25 -173 -11
-415 -27 -539 -35 -124 -8 -333 -22 -465 -30 -131 -8 -242 -19 -246 -23 -13
-15 -1262 -1887 -1395 -2092 -387 -593 -666 -1069 -771 -1315 -78 -183 -104
-371 -66 -480 23 -68 94 -138 155 -153 250 -63 711 149 1308 601 310 236 553
450 915 805 388 382 393 388 444 517 210 529 666 1128 1232 1617 541 467 1208
857 1789 1046 335 109 533 142 850 142 345 0 566 -68 722 -221 119 -117 167
-256 154 -454 -13 -220 -106 -413 -295 -617 -484 -521 -1412 -949 -3006 -1388
-165 -45 -305 -88 -312 -94 -19 -18 -80 -271 -94 -386 -17 -151 -6 -368 25
-491 100 -397 387 -631 801 -655 446 -26 1044 183 1640 573 309 202 644 471
1045 837 555 506 1084 1018 1431 1382 140 148 279 294 308 324 l53 55 -48 -65
c-63 -83 -265 -326 -380 -456 -815 -919 -1416 -1517 -1964 -1953 -482 -386
-908 -641 -1380 -829 -805 -320 -1525 -414 -1977 -258 -393 135 -668 489 -723
929 -15 119 -7 438 13 545 8 39 11 72 6 72 -4 0 -79 -72 -166 -160 -160 -163
-597 -563 -798 -730 -541 -452 -1117 -789 -1530 -894 -144 -36 -266 -48 -440
-43 -203 6 -314 30 -463 103 -208 101 -296 257 -294 525 2 222 51 431 167 702
15 37 15 38 -3 28 -10 -5 -25 -18 -33 -27 -8 -10 -41 -40 -74 -67 -33 -28
-112 -98 -175 -158 -63 -59 -138 -127 -167 -151 -28 -23 -125 -109 -215 -189
-431 -384 -777 -637 -1079 -788 -448 -224 -881 -273 -1151 -129 -124 66 -230
200 -284 358 -26 75 -26 322 0 465 25 141 80 314 132 422 25 51 42 98 39 104
-5 7 -144 -125 -354 -333 -484 -481 -665 -637 -991 -855 -422 -281 -778 -419
-1181 -455 -299 -27 -505 59 -634 266 -24 39 -56 107 -72 151 -26 75 -28 90
-27 245 0 185 15 256 95 468 22 59 43 116 46 126 5 14 -12 5 -57 -30 -35 -27
-102 -78 -150 -114 -48 -36 -111 -86 -141 -111 -30 -25 -92 -72 -139 -104 -47
-32 -148 -104 -225 -160 -292 -213 -589 -400 -892 -564 -526 -284 -971 -431
-1528 -503 -160 -21 -567 -17 -690 6 -381 71 -650 265 -791 572 -96 206 -132
431 -121 752 l7 184 -61 -54 c-33 -29 -89 -78 -124 -108 -36 -30 -136 -116
-222 -190 -412 -353 -704 -571 -1043 -777 -339 -205 -733 -396 -1035 -500
-519 -179 -1093 -271 -1608 -260 -345 8 -533 40 -761 132 -149 60 -253 125
-353 219 -142 134 -226 275 -268 447 l-21 88 -56 -47 c-55 -46 -169 -136 -240
-189 -20 -16 -90 -69 -155 -119 -292 -224 -497 -354 -765 -484 -778 -377
-1406 -280 -1545 240 -24 88 -23 293 1 415 67 343 237 672 701 1365 404 603
586 853 1105 1520 269 346 657 855 722 949 17 23 30 25 630 92 337 37 630 70
651 72 31 4 37 2 33 -9 -14 -37 -406 -556 -901 -1194 -503 -649 -885 -1180
-1308 -1820 -435 -659 -618 -1011 -648 -1250 -17 -142 17 -257 91 -308 32 -22
43 -24 115 -19 248 14 688 260 1185 661 69 56 161 127 205 158 45 31 102 79
128 107 47 50 47 51 47 119 0 174 65 415 167 617 119 236 355 470 560 555 154
64 350 86 496 55 240 -51 381 -258 347 -511 -20 -151 -76 -270 -169 -358 -177
-165 -392 -212 -637 -140 -19 5 -28 -5 -70 -83 -101 -184 -144 -332 -144 -492
0 -146 28 -243 101 -351 97 -143 274 -254 473 -297 228 -49 594 14 880 151
295 142 565 402 690 666 61 128 87 252 89 415 0 144 -9 212 -45 325 -46 142
-178 375 -380 665 -148 212 -299 461 -337 554 -50 119 -65 204 -65 346 0 146
11 215 55 360 69 223 189 406 400 610 354 341 850 556 1419 616 129 13 425 13
535 -1 325 -40 613 -170 756 -342 95 -114 137 -230 146 -395 15 -285 -79 -526
-280 -720 -169 -163 -357 -249 -603 -274 -107 -12 -265 -2 -347 21 l-38 11 37
62 c158 272 261 581 293 882 23 206 -27 378 -141 494 -87 88 -215 127 -378
117 -332 -22 -570 -179 -709 -469 -58 -121 -77 -193 -92 -348 -19 -196 14
-396 90 -553 49 -99 168 -300 251 -421 217 -316 357 -549 401 -665 109 -289
93 -672 -41 -985 -97 -227 -222 -407 -409 -587 -168 -163 -321 -263 -486 -319
-81 -27 -119 -58 -54 -44 60 13 321 101 444 150 165 65 481 219 628 306 384
227 813 546 1197 889 41 37 136 121 210 185 155 136 250 226 286 272 13 18 40
83 59 146 143 470 464 958 949 1442 447 446 945 799 1531 1086 618 302 1183
445 1685 426 322 -13 556 -84 723 -222 193 -160 253 -344 198 -610 -90 -434
-452 -792 -921 -911 -104 -27 -377 -44 -437 -28 l-32 9 125 310 c195 483 222
568 250 798 26 210 -2 333 -96 421 -99 93 -238 99 -485 21 -539 -169 -1222
-745 -1699 -1435 -413 -596 -623 -1123 -676 -1695 -21 -217 11 -408 95 -581
98 -203 254 -346 452 -415 309 -108 844 -35 1333 181 336 148 844 475 1256
808 39 31 104 84 145 117 72 58 217 178 330 273 73 62 133 141 233 309 128
213 315 506 719 1123 213 325 987 1483 1000 1497 7 7 160 26 377 48 201 20
491 49 645 65 154 16 281 27 283 25 2 -2 -162 -237 -365 -522 -671 -942 -1174
-1652 -1435 -2028 -540 -778 -772 -1306 -692 -1574 21 -72 91 -143 156 -159
64 -16 98 -15 199 8 478 105 1305 785 2075 1705 262 312 417 527 909 1255 214
316 449 665 524 775 75 110 190 281 257 380 l121 180 84 12 c46 7 311 44 589
83 278 39 525 73 549 77 36 5 42 3 36 -8 -82 -137 -636 -946 -1000 -1459 -690
-974 -998 -1437 -1237 -1855 -200 -350 -283 -571 -295 -782 -7 -130 9 -181 70
-221 37 -24 49 -27 126 -26 138 2 301 70 561 232 312 195 597 424 1061 852
210 194 372 337 469 416 146 119 219 200 300 335 155 261 522 809 817 1224
208 293 767 1134 759 1142 -4 4 -784 -43 -858 -52 -27 -3 -48 -3 -48 0 0 17
101 216 112 219 7 3 211 16 453 31 242 14 449 28 460 31 13 3 177 245 490 725
259 396 490 750 515 787 l45 67 610 61 c336 34 629 63 653 63 l43 1 -19 -27z
m-18651 -41 c138 -38 265 -145 326 -271 33 -68 37 -86 41 -176 8 -191 -62
-355 -220 -515 -107 -108 -212 -177 -338 -222 -81 -29 -291 -36 -394 -14 -158
36 -298 131 -351 241 -73 149 -49 382 56 562 49 84 199 228 297 287 89 53 214
101 296 115 92 15 217 12 287 -7z m24219 -4694 c1 -158 29 -483 49 -563 6 -22
10 -116 9 -208 l-1 -168 -40 3 c-44 3 -41 7 -86 -92 -36 -79 -64 -194 -56
-232 8 -36 -12 -170 -36 -233 -10 -28 -33 -73 -51 -100 -29 -45 -32 -56 -29
-115 10 -199 -6 -474 -32 -546 -29 -79 -67 -143 -120 -201 -30 -32 -66 -81
-81 -108 -61 -114 -168 -204 -291 -245 -65 -22 -65 -22 -80 -73 -17 -61 -37
-338 -35 -482 1 -140 -33 -254 -106 -350 -12 -16 -40 -70 -63 -118 -32 -70
-55 -103 -109 -157 -67 -67 -69 -71 -76 -131 -3 -34 -17 -97 -31 -141 -14 -43
-25 -97 -25 -118 0 -52 -40 -174 -74 -229 -15 -24 -45 -62 -65 -85 -21 -22
-53 -70 -72 -105 -31 -60 -70 -104 -188 -214 -28 -26 -51 -56 -51 -66 0 -10
21 -38 47 -62 l46 -43 12 35 c44 126 160 260 270 313 33 16 76 43 96 61 20 18
61 49 90 68 69 44 79 56 129 154 25 50 62 103 94 136 30 30 70 81 91 113 20
32 47 70 60 84 13 14 30 53 39 88 24 97 65 170 137 247 36 38 82 96 103 127
75 114 207 203 338 229 52 11 62 16 88 53 15 23 36 49 45 56 16 13 17 12 10
-20 -10 -49 -34 -119 -55 -160 -9 -19 -27 -66 -38 -105 -12 -38 -37 -95 -56
-125 l-35 -55 -1 -223 c0 -209 -2 -228 -24 -295 -39 -115 -47 -183 -50 -420
-3 -174 -7 -231 -20 -266 -9 -24 -16 -61 -16 -82 0 -120 -55 -246 -149 -338
-82 -82 -129 -146 -171 -236 -38 -80 -130 -179 -197 -214 -37 -18 -49 -34 -94
-122 -31 -59 -79 -133 -117 -178 -36 -42 -80 -99 -98 -128 -19 -28 -47 -61
-64 -73 -39 -28 -109 -137 -173 -269 -28 -59 -64 -125 -79 -148 -16 -24 -43
-69 -61 -102 -18 -32 -73 -120 -124 -195 -100 -147 -143 -224 -136 -244 3 -7
-6 -21 -19 -32 -30 -23 -98 -132 -98 -157 -1 -51 -71 -249 -109 -307 -43 -65
-218 -251 -283 -299 -38 -28 -38 -28 -38 -101 0 -64 -3 -78 -27 -111 -63 -85
-113 -132 -155 -145 -24 -7 -68 -25 -98 -40 -30 -15 -72 -33 -92 -39 -21 -7
-64 -31 -95 -54 -32 -23 -76 -54 -98 -70 -59 -40 -153 -134 -209 -207 -27 -36
-55 -70 -62 -75 -6 -6 -22 -26 -35 -45 -51 -75 -86 -118 -154 -191 -38 -42
-86 -98 -105 -124 -19 -26 -64 -82 -100 -124 -101 -118 -95 -106 -70 -139 62
-83 21 -212 -82 -257 -109 -48 -235 -145 -410 -314 -96 -94 -188 -175 -202
-181 -34 -12 -87 -13 -118 -1 -20 7 -35 2 -83 -30 -33 -22 -100 -59 -150 -83
-103 -49 -105 -52 -129 -204 -14 -85 -25 -109 -80 -170 -18 -20 -46 -57 -62
-81 -34 -51 -69 -103 -105 -157 -15 -22 -37 -49 -50 -61 -39 -36 -179 -103
-256 -123 -88 -23 -161 -60 -213 -106 -41 -37 -65 -91 -56 -122 4 -12 -4 -28
-25 -48 -18 -16 -43 -47 -58 -69 -61 -95 -108 -139 -246 -229 -192 -127 -219
-141 -308 -165 -43 -12 -95 -28 -115 -37 -36 -15 -108 -33 -222 -55 -108 -21
-287 -83 -395 -137 -89 -44 -125 -69 -189 -131 -70 -68 -97 -107 -140 -201
-35 -76 -100 -198 -116 -215 -10 -11 -25 -34 -33 -51 -9 -17 -37 -51 -62 -76
-56 -55 -100 -74 -473 -197 -294 -98 -315 -107 -436 -186 -99 -64 -105 -70
-151 -171 -41 -92 -41 -92 -207 -139 -221 -62 -377 -123 -450 -174 -29 -20
-82 -53 -118 -73 -36 -20 -89 -61 -118 -91 -41 -44 -60 -57 -94 -62 -39 -7
-74 -18 -203 -68 -22 -8 -80 -21 -130 -27 -158 -20 -318 -50 -381 -72 -34 -12
-106 -51 -160 -87 -97 -65 -100 -67 -144 -153 -31 -62 -51 -90 -70 -97 -14 -5
-97 -37 -185 -71 -88 -34 -189 -73 -224 -86 -35 -14 -97 -29 -139 -35 -89 -12
-185 -47 -245 -87 -23 -16 -58 -37 -77 -47 -19 -10 -53 -32 -75 -49 -22 -17
-78 -49 -125 -70 -47 -22 -112 -51 -145 -67 -229 -105 -339 -150 -381 -158
-62 -12 -116 -32 -184 -66 -51 -26 -98 -36 -262 -55 -86 -10 -313 -81 -368
-115 -23 -15 -61 -24 -110 -29 -103 -10 -320 -66 -410 -106 -62 -28 -89 -34
-155 -36 -109 -2 -292 -30 -362 -53 -32 -11 -87 -27 -121 -37 -105 -28 -282
-159 -321 -237 -20 -40 -29 -48 -65 -57 -51 -12 -148 -41 -246 -74 -41 -13
-111 -32 -155 -41 -123 -25 -324 -75 -364 -90 -20 -8 -56 -19 -81 -25 -47 -12
-115 -40 -235 -95 -52 -24 -89 -51 -146 -109 -69 -69 -80 -76 -116 -76 -22 0
-64 -4 -94 -9 -30 -5 -101 -14 -159 -21 -58 -6 -136 -18 -175 -25 -38 -8 -90
-19 -115 -23 -86 -17 -295 -84 -330 -105 -19 -11 -51 -34 -71 -50 -28 -21 -64
-35 -145 -52 -60 -14 -121 -24 -135 -25 -15 0 -63 -11 -108 -23 l-81 -24 0 33
c0 96 -134 144 -324 114 -61 -9 -139 -19 -311 -40 -305 -38 -530 -126 -693
-273 -48 -42 -96 -79 -107 -81 -11 -2 -58 -9 -105 -15 -47 -7 -116 -16 -155
-21 -38 -6 -128 -17 -200 -26 -147 -18 -338 -64 -405 -98 -25 -12 -82 -44
-128 -69 -85 -49 -113 -54 -172 -37 -19 6 -90 15 -158 21 -97 7 -146 6 -240
-6 -64 -9 -155 -20 -202 -26 -83 -10 -150 -26 -318 -75 -46 -14 -119 -29 -163
-35 -75 -9 -175 -21 -284 -35 -42 -5 -58 -2 -100 20 -109 56 -120 59 -244 67
l-124 9 -116 -59 c-162 -82 -262 -129 -323 -151 -29 -10 -82 -31 -118 -46 -36
-15 -123 -47 -195 -71 -71 -24 -164 -63 -205 -87 -90 -52 -130 -66 -184 -66
-23 0 -59 -6 -81 -12 -26 -7 -215 -14 -530 -18 -474 -7 -492 -8 -550 -29 -55
-21 -71 -22 -195 -16 -142 7 -196 20 -495 120 -55 18 -124 35 -153 38 -39 3
-62 12 -90 34 -35 29 -40 30 -68 18 -17 -7 -49 -24 -72 -39 -58 -36 -104 -33
-242 15 -118 42 -198 62 -308 79 -78 12 -152 2 -282 -40 -51 -16 -97 -30 -102
-30 -5 0 -33 -11 -61 -24 -51 -24 -56 -24 -377 -25 -382 0 -472 7 -553 44 -32
15 -88 31 -125 37 -37 5 -102 16 -144 25 l-78 15 -48 -50 c-40 -41 -58 -52
-93 -57 -24 -3 -255 -5 -514 -3 -388 2 -474 6 -495 17 -19 11 -83 17 -255 22
-232 7 -417 27 -516 54 -61 17 -161 41 -233 55 -80 16 -272 13 -308 -6 -25
-13 -61 -15 -212 -12 -177 4 -183 5 -288 40 -58 20 -146 55 -195 78 -48 23
-122 57 -163 74 -126 54 -246 139 -276 197 -8 16 -31 37 -52 48 -45 23 -193
75 -282 100 -124 35 -389 122 -462 151 -62 26 -86 30 -163 30 -99 0 -152 13
-242 58 -55 28 -79 50 -142 133 -14 18 -50 43 -80 57 -51 23 -74 27 -246 35
-154 7 -210 5 -295 -7 -58 -8 -147 -20 -198 -26 l-93 -12 -37 32 c-128 108
-156 130 -164 130 -4 0 -26 16 -47 35 -22 20 -59 46 -83 59 -24 12 -60 45 -82
74 -48 64 -112 97 -216 112 -113 16 -117 18 -157 55 -105 98 -153 136 -189
151 -21 9 -52 27 -68 41 -33 28 -53 37 -141 63 -33 10 -80 26 -105 35 -27 11
-96 21 -170 26 -69 4 -159 17 -200 28 -41 11 -99 23 -129 27 -55 7 -121 50
-121 80 0 7 -13 28 -28 46 -16 18 -32 45 -36 61 -3 15 -23 44 -44 65 -20 20
-44 50 -52 66 -8 16 -37 44 -65 62 -27 17 -61 44 -75 59 -14 15 -37 33 -52 41
-15 8 -39 26 -53 40 -14 14 -50 36 -80 50 -30 13 -72 35 -93 48 -44 30 -139
56 -202 56 -82 0 -161 32 -255 102 -61 45 -55 27 -61 203 -3 111 -18 191 -39
217 -11 13 -21 25 -22 27 -1 2 -16 -8 -33 -23 -63 -53 -142 -49 -245 12 -38
23 -96 55 -128 71 -103 52 -164 102 -244 199 -43 53 -111 132 -152 177 -40 44
-81 91 -89 105 -26 41 -155 192 -169 197 -7 3 -13 13 -13 23 0 18 -53 70 -71
70 -20 0 -199 226 -263 333 -38 64 -89 141 -113 172 -44 56 -45 56 -86 49 -79
-14 -75 -17 -149 106 -264 440 -508 1049 -618 1542 -36 163 -35 162 -11 197
11 15 23 40 27 57 4 16 11 34 16 41 6 7 2 25 -10 50 -11 21 -27 63 -36 93 -9
30 -34 91 -56 135 -25 48 -45 106 -51 145 -21 131 -101 378 -142 439 -40 59
-62 121 -76 209 -6 41 -18 87 -26 102 -8 16 -15 31 -15 34 0 2 30 26 66 52 91
64 300 232 409 328 50 43 117 102 149 130 33 28 118 105 189 171 202 187 181
174 257 162 36 -5 92 -17 125 -26 55 -15 62 -20 82 -61 12 -25 23 -63 23 -85
0 -22 7 -51 15 -65 8 -14 14 -44 15 -68 0 -55 21 -96 68 -130 21 -15 55 -46
76 -69 24 -27 56 -49 91 -62 86 -32 156 -76 210 -132 28 -28 67 -68 88 -88 20
-21 37 -43 37 -49 0 -10 58 -76 142 -162 20 -21 54 -44 75 -51 21 -6 52 -23
70 -36 51 -39 129 -63 232 -73 53 -5 114 -14 136 -19 22 -6 73 -11 114 -11 65
0 72 -2 66 -17 -38 -100 -1 -182 108 -237 46 -23 75 -29 174 -36 125 -10 145
-14 263 -54 88 -30 148 -59 211 -103 25 -17 58 -35 72 -38 14 -4 49 -22 79
-41 29 -19 77 -42 106 -50 98 -29 288 -120 330 -158 21 -19 51 -36 218 -120
76 -39 188 -53 300 -38 49 7 141 19 204 27 63 8 136 19 162 25 50 12 63 8 137
-46 19 -13 46 -27 60 -31 14 -3 51 -20 81 -38 30 -18 80 -39 110 -45 104 -23
151 -41 199 -76 62 -44 81 -73 81 -123 0 -31 7 -46 31 -70 34 -34 111 -61 175
-61 29 0 65 -11 110 -34 69 -34 75 -41 123 -142 10 -23 32 -50 48 -61 31 -21
191 -83 215 -83 8 0 49 -9 92 -20 67 -18 100 -20 230 -17 83 3 198 12 256 21
58 9 142 21 187 26 45 5 107 16 137 26 l54 17 41 -35 c63 -54 134 -73 271 -73
63 0 126 3 140 8 33 9 78 71 93 125 6 23 16 41 22 39 9 -3 90 -127 97 -149 2
-4 44 -13 93 -18 119 -14 135 -21 135 -62 1 -19 19 -66 44 -111 l42 -78 100
-42 99 -41 135 3 c348 8 338 9 425 -25 57 -23 104 -33 165 -37 47 -3 108 -13
135 -21 82 -26 676 -24 720 2 5 3 -22 14 -60 25 -49 13 -118 20 -225 23 -85 3
-171 9 -190 14 -19 6 -75 10 -125 10 -144 0 -204 14 -323 75 -76 39 -133 60
-197 74 -182 38 -367 91 -424 122 -58 30 -103 73 -238 226 -66 75 -226 205
-363 296 -47 31 -94 63 -106 72 -11 8 -55 19 -98 25 -43 5 -82 13 -88 16 -6 4
-13 2 -17 -4 -12 -20 -66 -17 -99 6 -35 26 -160 72 -193 72 -11 0 -44 6 -72
14 -29 8 -88 22 -132 31 -44 9 -105 24 -135 32 -133 36 -160 42 -250 59 -52 9
-103 21 -112 25 -9 5 -43 13 -75 18 -106 17 -198 34 -238 44 -38 9 -39 10 -16
19 14 5 50 10 80 12 166 12 332 27 377 37 44 8 59 7 104 -11 29 -12 67 -20 84
-18 l31 3 -45 22 c-159 75 -231 93 -405 98 -76 2 -86 5 -189 59 -107 55 -151
81 -244 142 -26 17 -92 52 -147 79 -55 27 -115 60 -134 72 -19 13 -55 29 -80
37 -25 8 -62 21 -81 29 -19 8 -57 18 -85 23 -47 7 -57 14 -158 115 -105 105
-109 107 -140 98 -17 -5 -52 -9 -77 -9 -25 -1 -80 -7 -124 -15 l-78 -14 -38
37 c-53 53 -138 124 -174 145 -16 11 -38 30 -49 44 -11 13 -43 38 -72 54 -29
16 -65 47 -80 69 -67 97 -137 134 -280 147 -65 6 -73 9 -115 49 -114 107 -165
151 -205 174 -23 14 -64 40 -91 58 -27 18 -67 37 -89 43 -22 6 -76 25 -120 41
-64 24 -105 32 -200 39 -121 8 -150 13 -260 42 -33 9 -82 19 -109 22 -54 7
-87 35 -112 95 -8 19 -23 44 -33 55 -11 11 -22 35 -26 53 -4 18 -23 49 -42 70
-19 20 -44 53 -54 74 -10 20 -33 46 -51 59 -18 12 -56 43 -85 68 -116 102
-159 135 -207 157 -28 12 -67 34 -86 49 -44 33 -110 51 -228 64 -104 11 -185
43 -241 95 -18 17 -42 39 -52 48 -16 15 -17 28 -13 100 3 46 6 102 8 125 2 37
12 53 112 165 432 481 801 943 1195 1495 51 72 95 130 97 128 3 -2 -5 -19 -16
-37 -22 -37 -28 -65 -43 -228 -20 -225 -49 -526 -58 -610 l-9 -85 55 -180 c30
-99 60 -185 66 -191 7 -6 92 -38 189 -72 l177 -62 48 19 c26 10 92 39 145 64
148 69 135 74 126 -46 -5 -56 -19 -219 -33 -363 l-24 -260 58 -185 57 -184
190 -67 191 -67 109 9 c60 5 193 16 296 25 l186 15 184 82 c100 44 189 86 196
91 7 6 50 85 94 176 l81 166 13 -40 c7 -22 29 -92 49 -156 31 -103 39 -118 63
-127 15 -6 97 -35 183 -66 l157 -55 308 20 309 20 143 64 142 63 143 -51 142
-50 295 25 295 26 200 90 200 89 87 179 c47 99 87 176 87 173 4 -30 105 -337
114 -345 7 -6 92 -39 190 -72 l179 -62 121 10 c67 6 198 17 291 25 l170 13
200 89 199 88 61 128 c33 70 63 127 66 127 3 0 19 -48 35 -106 16 -58 35 -110
41 -115 6 -5 87 -36 179 -69 196 -70 176 -68 533 -40 l250 20 183 81 c101 45
191 88 199 95 8 7 40 62 70 123 30 61 57 111 60 111 3 0 18 -46 34 -102 16
-57 34 -108 40 -115 6 -6 94 -41 196 -76 l185 -64 160 13 c88 7 219 18 291 24
l131 10 187 84 c103 46 192 88 197 93 5 5 52 97 104 203 66 134 95 204 95 229
0 38 49 533 53 538 2 1 59 -18 127 -43 l125 -45 198 88 198 88 94 192 c68 140
95 208 100 248 7 54 8 55 60 79 28 13 60 32 71 43 10 10 36 31 57 47 l39 28
-6 -43 c-10 -73 -34 -305 -71 -679 -19 -195 -40 -395 -45 -445 l-10 -90 57
-187 c38 -125 62 -188 72 -191 9 -3 93 -33 188 -66 135 -48 180 -60 210 -56
21 3 218 16 438 30 583 37 527 26 802 149 263 118 295 140 360 251 46 78 190
374 204 420 25 80 44 218 54 400 8 150 41 494 47 500 2 2 44 21 93 43 l90 39
60 119 c139 273 142 283 155 444 15 193 35 437 59 709 l20 223 -57 186 -57
187 -161 58 -161 59 -6 56 c-4 35 0 80 10 121 8 36 16 111 18 166 1 55 8 124
15 154 7 33 10 94 8 160 -3 58 -1 143 5 187 7 66 6 97 -7 164 -14 68 -15 85
-4 91 7 5 16 9 21 9 18 0 635 279 792 357 248 125 501 270 700 403 39 25 75
50 82 53 7 4 26 -17 51 -55 122 -195 309 -361 527 -471 83 -41 500 -193 630
-229 201 -56 359 -72 650 -65 381 9 759 75 1160 204 387 125 1144 473 1485
684 24 15 48 25 52 23 4 -3 24 -29 44 -59 48 -73 180 -196 263 -245 80 -48
523 -211 642 -236 102 -22 377 -25 514 -5 300 44 483 103 900 290 302 136 494
238 706 374 l55 35 58 -64 c63 -70 166 -148 260 -196 68 -34 429 -167 538
-197 265 -74 657 -39 1008 89 87 32 425 180 628 276 128 60 303 162 442 257
l94 65 62 -63 c63 -65 179 -139 294 -189 83 -36 423 -158 515 -184 186 -54
485 -72 700 -42 130 17 321 65 460 115 105 38 157 59 289 120 17 8 117 53 221
100 377 171 681 351 1023 604 67 50 124 91 126 91 3 0 15 -17 27 -37 43 -72
167 -218 235 -279 204 -181 372 -266 829 -419 224 -76 411 -101 688 -92 421
13 844 100 1332 274 202 72 310 117 671 279 128 57 235 104 240 104 4 0 -6
-15 -23 -32 -18 -18 -37 -44 -43 -58 -15 -35 -52 -85 -120 -161 -32 -36 -67
-79 -77 -95 -10 -16 -52 -74 -93 -128 -41 -54 -91 -121 -111 -150 -20 -28 -56
-71 -80 -96 -50 -53 -159 -189 -159 -200 0 -4 -12 -23 -27 -43 -68 -89 -92
-125 -111 -168 -11 -26 -24 -49 -29 -52 -5 -3 -52 -11 -104 -18 -99 -12 -278
-63 -366 -104 -66 -31 -129 -87 -155 -139 -11 -23 -26 -48 -33 -56 -13 -16
-54 -114 -78 -190 -8 -25 -18 -78 -22 -118 -10 -109 -23 -140 -102 -236 -18
-22 -33 -43 -33 -48 0 -5 -15 -30 -32 -57 -18 -26 -44 -67 -58 -91 -37 -64
-96 -126 -138 -146 -20 -9 -54 -28 -75 -41 -21 -13 -72 -33 -114 -43 -130 -34
-237 -106 -267 -181 -9 -23 -14 -49 -11 -60 4 -12 -8 -36 -39 -74 -26 -31 -46
-62 -46 -70 0 -7 -18 -35 -40 -60 -22 -25 -44 -55 -50 -65 -5 -10 -47 -44 -93
-75 -45 -31 -127 -87 -181 -125 -78 -53 -115 -72 -169 -85 -39 -9 -91 -26
-116 -37 -45 -20 -187 -58 -266 -72 -87 -16 -286 -91 -392 -148 -115 -63 -146
-87 -223 -176 -41 -48 -119 -191 -120 -219 0 -14 -78 -167 -106 -208 -11 -16
-25 -41 -31 -55 -39 -88 -137 -150 -368 -228 -120 -41 -229 -80 -399 -142
-156 -56 -345 -196 -362 -267 -4 -16 -13 -39 -20 -53 -8 -14 -18 -38 -24 -53
-11 -32 -55 -53 -176 -87 -43 -11 -104 -32 -134 -45 -30 -13 -86 -33 -124 -45
-87 -27 -175 -71 -247 -124 -31 -22 -83 -57 -114 -76 -31 -19 -80 -60 -108
-90 -46 -48 -59 -56 -111 -67 -32 -7 -93 -28 -135 -47 -61 -29 -104 -40 -216
-55 -167 -24 -313 -54 -375 -77 -42 -16 -63 -29 -197 -119 -50 -33 -113 -105
-113 -129 0 -6 -10 -34 -22 -62 -21 -47 -29 -54 -83 -78 -33 -14 -78 -32 -100
-40 -22 -8 -89 -35 -150 -61 -119 -50 -235 -92 -276 -100 -14 -2 -60 -27 -102
-55 -63 -42 -80 -49 -96 -40 -11 5 -27 10 -36 10 -22 0 -126 -63 -186 -111
-25 -20 -155 -92 -290 -158 -304 -151 -338 -169 -382 -203 -20 -16 -40 -28
-44 -28 -5 0 -29 -13 -54 -28 -24 -15 -65 -36 -91 -46 -57 -21 -139 -93 -173
-151 -51 -86 -54 -227 -6 -251 15 -8 19 -14 11 -19 -6 -4 -9 -18 -5 -34 5 -25
1 -29 -47 -52 -29 -13 -80 -43 -113 -66 -34 -22 -79 -46 -101 -51 -21 -6 -68
-18 -104 -27 -58 -14 -74 -24 -140 -86 -94 -88 -170 -145 -515 -388 -79 -55
-150 -101 -159 -101 -4 0 -21 -9 -37 -21 -16 -11 -57 -32 -91 -45 -34 -13 -76
-37 -93 -53 -31 -31 -193 -141 -207 -141 -13 0 -272 -129 -303 -150 l-30 -22
67 6 c37 4 107 18 155 32 49 14 135 39 193 54 136 37 585 195 649 230 13 6 55
23 93 36 38 12 99 40 136 60 37 20 117 63 177 96 61 32 126 74 145 92 19 18
58 48 85 66 28 18 71 53 96 77 42 41 52 45 116 53 77 10 101 19 293 114 75 36
141 66 148 66 7 0 59 11 115 26 78 19 134 26 237 28 74 2 157 9 183 16 48 13
154 76 272 163 33 25 98 70 145 102 47 32 97 68 111 82 31 29 131 77 213 104
32 10 88 35 125 55 36 20 106 57 156 81 49 25 111 60 137 79 34 25 66 38 120
49 41 8 105 26 144 40 38 15 113 42 166 60 53 18 123 48 155 65 32 18 101 56
154 84 52 29 107 61 121 71 14 11 42 33 61 48 38 31 175 67 249 67 58 0 183
27 273 60 44 16 111 38 149 50 89 27 189 78 251 127 28 21 72 52 99 67 28 16
68 46 90 66 59 54 355 260 373 260 5 0 40 21 78 46 39 25 96 59 128 75 32 17
79 45 105 63 26 18 67 43 92 55 25 13 70 41 100 63 30 21 89 62 130 89 41 28
116 79 165 114 50 36 120 85 156 109 36 24 85 63 110 87 52 51 161 138 196
157 13 8 70 22 126 32 215 39 300 84 467 248 69 68 143 137 165 154 22 17 60
56 84 86 47 56 106 90 276 158 39 16 98 47 132 71 34 23 84 54 112 67 27 14
74 46 104 70 30 24 74 56 97 71 24 15 64 46 89 70 25 23 66 55 91 72 48 33
130 116 130 132 0 6 20 33 45 61 53 60 71 92 81 145 12 71 54 138 138 221 87
87 162 172 207 234 24 34 39 42 116 66 48 15 118 33 155 40 186 36 355 141
415 258 21 41 24 58 19 95 -4 25 -8 55 -9 65 -1 13 14 31 43 53 92 68 123 97
149 137 89 141 245 292 384 376 23 13 107 90 187 170 88 88 178 168 226 200
43 29 102 76 130 104 28 28 70 69 95 91 24 22 54 51 66 65 12 14 59 59 104
100 46 41 103 95 128 120 25 25 67 62 92 82 26 21 61 61 80 90 18 29 48 71 66
92 18 21 38 55 44 75 7 20 22 49 35 64 13 16 24 32 24 36 0 5 25 39 55 77 30
38 55 74 55 81 0 6 16 31 36 55 45 53 64 96 64 143 0 43 11 66 57 120 19 22
41 63 49 92 8 29 19 55 24 58 5 3 14 22 21 43 7 20 27 59 46 86 18 26 33 54
33 61 0 6 14 32 32 56 37 51 57 101 58 145 0 41 40 92 96 125 52 30 247 227
271 274 9 17 17 57 19 90 6 114 10 121 156 266 113 112 138 142 153 184 9 28
25 69 36 93 24 53 25 129 2 162 -16 23 -16 24 8 39 44 27 135 126 147 158 10
31 10 32 -25 44 -32 10 -35 14 -29 40 3 16 11 58 17 94 13 69 15 71 92 74 l37
1 0 -92z m-686 -675 c-14 -107 -26 -173 -32 -173 -3 0 -28 14 -56 32 -28 17
-52 33 -54 33 -2 2 140 144 145 145 1 0 -1 -17 -3 -37z m-742 -830 c64 -13 78
-20 73 -32 -4 -9 -13 -46 -21 -82 -21 -100 -42 -141 -120 -226 -38 -43 -85
-100 -104 -128 -53 -78 -238 -257 -301 -292 -67 -38 -158 -138 -194 -214 -31
-68 -34 -165 -6 -238 18 -48 18 -51 0 -108 -11 -32 -27 -71 -36 -88 -22 -40
-91 -130 -129 -169 -17 -17 -48 -56 -69 -86 -21 -30 -47 -63 -57 -75 -11 -11
-33 -45 -50 -77 -16 -31 -51 -80 -76 -108 l-47 -52 -59 17 c-127 37 -220 1
-357 -138 -109 -110 -186 -197 -214 -242 -33 -53 -87 -125 -132 -177 -24 -27
-52 -67 -63 -89 -21 -41 -111 -134 -190 -198 -52 -42 -186 -182 -218 -227 -19
-28 -28 -32 -87 -36 -44 -4 -83 -15 -118 -33 -29 -15 -81 -42 -117 -60 -36
-18 -72 -41 -80 -50 -8 -10 -40 -36 -70 -58 -111 -82 -266 -226 -404 -377 -61
-67 -66 -70 -45 -32 46 82 126 177 191 227 36 27 86 77 110 110 51 68 133 148
194 188 22 15 73 63 113 107 40 44 100 100 134 124 34 25 87 76 118 114 31 38
88 91 125 118 38 27 105 87 149 133 44 46 110 105 146 130 90 63 219 218 219
261 0 32 39 130 69 173 16 24 39 67 50 96 23 62 70 137 108 173 46 44 142 96
200 109 49 11 59 18 93 63 20 28 47 60 59 71 12 10 43 50 68 88 25 37 56 75
70 84 13 9 38 43 54 76 36 70 106 149 164 182 69 41 197 190 247 288 11 23 31
56 44 72 12 17 32 55 44 85 12 30 38 77 57 105 20 27 45 70 56 95 11 25 33 64
49 88 16 23 41 68 54 99 14 32 35 70 46 86 11 15 31 58 44 95 14 36 31 76 39
89 l15 23 41 -30 c27 -19 68 -35 121 -47z m-37532 -691 c76 -36 194 -80 470
-179 199 -71 261 -89 390 -112 207 -38 293 -45 545 -45 232 1 326 7 560 40 42
6 48 5 39 -7 -6 -8 -57 -104 -112 -214 -225 -448 -610 -1166 -769 -1435 -44
-74 -133 -225 -198 -335 -320 -541 -694 -1104 -1059 -1595 -72 -97 -143 -193
-158 -215 -16 -22 -64 -80 -108 -130 -44 -49 -101 -117 -127 -150 -26 -33 -55
-66 -64 -72 -10 -7 -27 -29 -39 -48 -38 -61 -74 -38 -46 30 12 27 16 71 16
154 0 85 6 139 21 199 19 76 19 84 5 133 -21 70 -20 133 3 227 10 42 25 109
31 149 15 81 8 117 -41 233 -27 64 -43 181 -43 315 0 83 22 267 37 315 8 25
18 68 22 97 7 52 7 52 -39 98 l-46 46 22 47 c18 37 23 66 24 137 1 50 4 105 7
123 47 242 59 427 43 632 -4 47 -3 144 2 215 8 106 14 140 35 185 52 113 117
358 117 444 0 29 -7 75 -15 102 -8 27 -15 64 -15 82 0 49 46 192 110 342 15
36 31 78 35 95 3 16 15 48 25 70 10 23 24 63 31 91 22 90 18 89 121 26 51 -30
127 -71 168 -90z m35360 -1087 c-61 -61 -187 -148 -171 -116 22 41 189 170
221 171 2 0 -20 -25 -50 -55z m-20310 -702 c0 -16 -20 -230 -44 -478 -25 -247
-43 -451 -41 -453 3 -4 219 10 813 49 90 6 165 10 166 8 2 -2 -4 -94 -14 -204
-10 -110 -30 -346 -45 -525 -14 -179 -28 -336 -31 -349 -5 -22 -10 -19 -77 45
-40 38 -102 95 -138 126 -65 56 -67 59 -89 140 -28 105 -62 168 -118 219 -51
48 -159 100 -252 122 -84 21 -245 33 -253 20 -4 -6 -18 -136 -32 -289 -15
-154 -34 -364 -44 -469 -11 -104 -16 -193 -12 -197 3 -3 90 -1 193 7 199 13
250 9 317 -24 98 -51 125 -150 101 -376 -5 -49 -21 -211 -35 -360 -27 -290
-33 -323 -72 -400 -49 -100 -134 -163 -248 -184 -65 -12 -996 -74 -1003 -66
-2 2 48 523 111 1157 63 634 112 1156 108 1159 -14 15 -296 -61 -376 -100
-137 -67 -249 -189 -338 -367 -23 -45 -58 -93 -99 -134 -84 -84 -267 -234
-275 -226 -6 6 95 1067 103 1075 3 4 185 18 679 52 176 12 323 24 327 28 5 5
25 188 90 854 10 102 15 127 27 128 23 1 562 36 584 38 12 1 17 -6 17 -26z
m-4705 -265 c47 -56 82 -129 96 -203 11 -58 9 -164 -7 -457 -5 -85 -4 -118 5
-118 6 0 31 16 56 35 295 225 885 312 1315 194 226 -61 417 -266 439 -469 5
-48 0 -156 -15 -337 -13 -147 -21 -269 -19 -273 2 -3 46 -3 97 1 559 43 689
52 692 48 2 -2 -11 -173 -30 -379 -18 -206 -34 -393 -34 -416 0 -22 -3 -43 -6
-46 -8 -9 -255 119 -280 145 -12 12 -31 52 -43 89 -49 150 -108 187 -302 191
-99 2 -123 -1 -129 -13 -4 -8 -31 -260 -60 -560 -28 -300 -56 -581 -60 -625
-5 -44 -12 -126 -16 -183 -4 -56 -10 -105 -14 -107 -4 -2 -99 -12 -211 -20
-112 -9 -240 -20 -284 -24 -44 -5 -83 -6 -87 -2 -3 3 -2 47 2 96 5 50 30 302
55 560 25 259 71 713 102 1010 51 495 55 548 45 636 -13 128 -46 203 -119 269
-116 106 -291 126 -499 58 -123 -40 -213 -124 -281 -260 -54 -107 -70 -198
-102 -563 -17 -187 -53 -590 -80 -895 -28 -305 -58 -647 -67 -759 -11 -118
-22 -204 -29 -206 -11 -3 -397 -35 -512 -43 -57 -3 -73 -1 -73 9 0 8 4 61 10
119 5 58 23 274 40 480 72 894 142 1514 196 1749 8 35 13 66 11 68 -2 1 -39 8
-83 13 -111 14 -171 36 -221 83 -48 44 -73 108 -73 187 0 25 12 111 26 190 19
102 26 179 26 260 0 175 -30 270 -126 401 l-55 74 82 8 c45 4 188 11 317 16
129 4 243 9 252 9 9 1 33 -17 53 -40z m-2334 -175 c92 -41 154 -129 255 -360
118 -272 197 -333 459 -353 171 -13 224 -31 302 -103 53 -49 78 -94 98 -179
20 -84 19 -161 -5 -358 -36 -312 -77 -748 -130 -1395 -11 -137 -29 -347 -40
-464 -11 -118 -20 -236 -20 -262 0 -26 -3 -50 -8 -53 -12 -7 -582 -49 -588
-43 -3 3 8 153 25 334 17 180 40 434 51 563 12 129 39 431 60 670 22 239 40
475 40 525 0 195 -69 318 -218 388 -63 30 -74 32 -177 31 -122 0 -186 -16
-317 -77 -136 -63 -215 -139 -257 -246 -31 -78 -38 -115 -61 -356 -12 -121
-48 -461 -80 -755 -32 -294 -71 -661 -85 -815 -15 -154 -28 -289 -30 -300 -4
-20 -20 -22 -296 -46 -160 -13 -293 -21 -295 -18 -4 7 15 198 106 1069 27 261
70 676 94 921 34 336 50 461 65 505 48 136 147 234 291 286 25 9 135 42 245
73 110 31 203 60 207 63 6 7 -105 236 -278 571 -47 90 -84 165 -82 166 2 1 86
10 188 19 102 9 201 18 220 20 85 10 216 -1 261 -21z m-1777 -158 c116 -55
185 -152 193 -269 4 -57 -54 -715 -162 -1846 -25 -261 -65 -688 -90 -949 -24
-261 -46 -476 -49 -478 -6 -6 -608 -44 -614 -39 -2 3 12 155 32 338 20 183 46
416 57 518 11 102 26 244 34 315 30 271 135 1299 151 1493 15 169 16 214 6
274 -36 207 -166 289 -435 275 -269 -14 -470 -87 -542 -195 -59 -90 -70 -148
-114 -657 -12 -126 -26 -279 -31 -340 -15 -150 -123 -1331 -161 -1750 -17
-187 -32 -341 -34 -343 -1 -2 -132 -13 -290 -25 -211 -16 -289 -19 -292 -11
-4 11 40 532 107 1261 17 177 30 338 30 358 l0 37 -62 -7 c-269 -29 -365 -87
-452 -269 -46 -97 -66 -117 -161 -171 -27 -15 -85 -50 -128 -78 -43 -27 -80
-47 -83 -44 -6 6 52 683 72 834 l5 41 82 6 c45 4 233 18 417 32 184 14 338 28
342 32 3 4 18 138 32 297 15 160 38 416 52 570 16 184 32 303 45 347 56 191
212 335 402 373 74 14 102 17 742 60 204 14 426 29 495 34 69 5 175 8 235 7
98 -2 116 -5 169 -31z m976 -209 c0 -11 -19 -15 -25 -6 -3 5 1 10 9 10 9 0 16
-2 16 -4z m26952 -483 c-28 -32 -67 -74 -88 -93 l-37 -35 23 35 c23 33 137
150 147 150 3 0 -18 -26 -45 -57z m-858 -931 c-12 -9 -112 -100 -223 -201
-111 -102 -220 -198 -242 -214 -21 -16 -39 -33 -39 -37 0 -11 -98 -79 -155
-107 -22 -12 -80 -41 -129 -67 -49 -25 -94 -46 -99 -46 -5 0 -32 -11 -59 -25
-89 -45 -153 -67 -378 -133 -34 -10 -85 -30 -201 -78 -31 -13 -63 -24 -70 -24
-23 1 20 28 79 50 30 11 73 34 97 50 23 16 66 39 95 50 29 11 71 36 94 55 24
19 69 46 102 60 113 50 229 110 274 141 25 17 61 39 80 49 19 10 55 35 80 55
25 21 74 52 110 70 36 18 78 44 94 57 16 13 52 36 80 50 28 14 78 46 111 71
33 24 76 51 95 59 19 8 59 35 90 59 46 36 111 73 130 73 3 0 -5 -7 -16 -17z
m-1844 -1042 c-14 -10 -36 -22 -50 -25 -14 -4 -45 -19 -70 -35 -25 -15 -63
-35 -84 -44 -22 -9 -54 -27 -70 -39 -54 -41 -339 -176 -391 -186 -27 -6 -70
-17 -95 -26 -47 -16 -327 -29 -349 -16 -13 8 68 36 149 51 30 6 84 26 120 44
71 37 170 71 240 82 25 3 74 21 110 39 78 39 143 60 229 75 36 6 88 23 115 37
51 26 142 61 161 62 6 0 -1 -8 -15 -19z m-2285 -1205 c-22 -14 -56 -32 -75
-40 -19 -9 -44 -20 -54 -26 -72 -41 -238 -99 -281 -98 l-30 0 25 11 c14 6 52
23 85 38 148 69 324 139 350 139 14 1 9 -6 -20 -24z m-27595 -324 c24 -17 48
-31 55 -31 7 0 36 -13 66 -29 30 -15 71 -34 92 -40 21 -7 57 -29 81 -49 24
-21 71 -59 105 -87 200 -162 197 -159 320 -344 13 -20 34 -49 47 -64 13 -15
32 -56 43 -91 11 -35 40 -94 65 -132 25 -37 46 -73 46 -79 0 -12 -53 -55 -69
-55 -5 0 -29 15 -53 33 -24 18 -64 45 -90 60 -50 29 -152 125 -205 194 -19 24
-52 50 -80 63 -141 65 -179 83 -298 143 -71 35 -152 76 -180 90 -124 63 -179
77 -295 77 l-110 0 -17 35 -17 36 178 178 179 179 47 -28 c26 -15 66 -42 90
-59z"/>
<path d="M67225 65140 c-101 -20 -157 -41 -274 -100 -226 -113 -571 -396 -855
-700 -370 -396 -754 -934 -958 -1345 -58 -115 -128 -285 -128 -309 0 -11 18
-9 88 11 424 118 876 332 1302 616 755 504 1250 1135 1250 1593 0 42 -5 94
-12 116 -14 48 -81 110 -136 126 -55 17 -172 13 -277 -8z"/>
<path d="M57908 52864 c-3 -3 -59 -14 -124 -24 -66 -11 -159 -32 -208 -47 -72
-23 -94 -34 -114 -61 -14 -18 -23 -34 -21 -36 2 -2 23 -13 46 -25 50 -25 108
-27 183 -6 30 9 87 21 127 27 l72 12 16 42 c9 24 27 59 41 79 13 20 24 38 24
40 0 7 -36 6 -42 -1z"/>
<path d="M64196 52543 c-4 -4 -66 -10 -139 -14 -73 -4 -162 -12 -200 -18 -45
-7 -89 -8 -135 -1 -42 6 -92 6 -135 0 -42 -6 -92 -6 -135 0 -42 6 -92 6 -134
0 -46 -7 -90 -6 -135 1 -149 23 -154 23 -249 -10 -49 -16 -116 -33 -149 -37
-33 -4 -80 -16 -104 -26 -24 -10 -114 -30 -200 -44 -192 -32 -308 -62 -403
-107 -40 -19 -95 -40 -122 -46 -112 -27 -243 -128 -320 -246 -18 -27 -43 -59
-56 -70 -12 -11 -40 -44 -62 -72 -24 -33 -46 -53 -58 -53 -26 0 -67 -89 -86
-185 -18 -90 -70 -196 -132 -265 -27 -30 -62 -80 -78 -110 -16 -30 -60 -86
-99 -125 -70 -70 -100 -87 -250 -149 -33 -13 -89 -37 -125 -52 -61 -27 -73
-29 -200 -29 -154 1 -192 12 -311 91 -37 24 -84 51 -105 60 -49 21 -174 35
-334 38 -100 1 -137 6 -185 24 -32 12 -77 22 -100 22 -22 0 -69 7 -105 16 -52
12 -145 16 -460 18 -424 3 -473 0 -563 -33 -32 -12 -94 -26 -137 -32 -43 -5
-95 -16 -114 -24 -20 -8 -59 -20 -88 -26 -29 -6 -82 -26 -118 -44 -36 -18 -76
-36 -90 -40 -14 -4 -54 -27 -90 -51 -36 -24 -98 -55 -139 -69 -41 -14 -95 -38
-121 -55 -47 -30 -149 -70 -180 -70 -9 0 -46 -15 -81 -34 -94 -50 -159 -67
-299 -77 -323 -24 -376 -34 -475 -92 -33 -19 -85 -43 -115 -52 -30 -10 -68
-28 -85 -40 -40 -30 -88 -54 -149 -75 -28 -9 -80 -36 -115 -59 -35 -22 -89
-49 -120 -58 -64 -19 -79 -29 -65 -42 5 -6 30 -4 64 5 30 8 82 14 116 14 33 0
96 9 139 20 43 11 102 20 130 20 67 0 188 31 256 66 101 51 159 66 294 75 72
5 193 14 270 21 228 18 557 14 638 -7 69 -18 204 -20 296 -3 61 11 71 16 136
77 77 72 169 124 256 142 37 8 94 9 179 4 161 -10 219 -7 277 10 27 8 71 15
98 15 28 0 77 7 110 15 33 8 84 14 114 15 29 0 80 7 112 15 32 9 111 16 174
18 l116 2 49 -56 c59 -67 130 -115 206 -138 30 -10 56 -21 57 -26 2 -14 -45
-74 -119 -150 -40 -40 -75 -81 -78 -92 -3 -11 -31 -40 -60 -66 -41 -35 -63
-47 -86 -47 -29 0 -32 -3 -26 -22 29 -103 36 -143 36 -214 0 -142 -47 -280
-134 -394 -23 -30 -59 -88 -79 -128 l-37 -73 45 -19 c24 -10 70 -24 103 -30
54 -11 62 -10 103 11 24 12 58 25 74 29 l30 6 6 99 c7 121 33 233 62 274 70
95 111 142 155 180 55 46 128 159 165 255 35 93 85 140 200 186 53 22 128 45
165 50 37 5 83 12 102 16 19 3 53 1 75 -5 22 -5 77 -19 123 -31 l83 -22 47 25
c26 14 74 39 107 56 33 17 96 38 140 47 44 8 104 25 132 37 44 18 55 29 68 62
9 22 29 60 45 85 15 25 36 70 45 100 26 81 68 159 112 210 22 25 52 70 67 100
15 30 47 80 70 110 23 30 56 84 73 120 16 36 50 88 75 115 24 28 60 79 79 115
44 83 145 185 228 229 35 19 80 48 100 66 60 54 132 92 216 116 44 12 116 37
161 56 45 18 90 33 100 33 10 0 55 18 100 41 81 40 169 69 213 69 13 0 57 22
98 50 126 85 275 116 408 86 39 -9 95 -22 125 -30 120 -30 195 -38 371 -38
166 0 194 3 286 26 57 15 125 38 153 52 79 40 179 57 290 49 l95 -7 85 44 c47
23 100 49 118 57 32 13 57 51 49 75 -2 7 -47 11 -128 12 -68 0 -191 5 -274 11
-131 9 -160 14 -228 42 -74 29 -154 41 -171 24z"/>
<path d="M56774 52202 c-28 -15 -73 -52 -100 -83 -85 -98 -146 -139 -259 -174
-118 -38 -230 -51 -295 -34 l-45 12 -105 -68 c-199 -129 -367 -203 -579 -256
-79 -20 -212 -70 -353 -133 -50 -22 -162 -56 -184 -56 -5 0 -2 5 6 11 12 8 10
9 -9 4 -13 -4 -55 -13 -95 -20 -176 -33 -230 -46 -391 -96 -63 -19 -98 -28
-230 -59 -177 -42 -202 -48 -250 -63 -100 -31 -191 -57 -220 -63 -16 -4 -50
-14 -75 -24 -25 -10 -85 -30 -135 -45 -178 -54 -211 -64 -260 -80 -27 -9 -79
-24 -115 -35 -36 -10 -85 -25 -110 -33 -96 -32 -153 -47 -179 -47 -14 0 -55
-14 -89 -30 -35 -17 -68 -30 -74 -30 -5 0 -43 -13 -85 -30 -41 -16 -77 -30
-79 -30 -3 0 4 12 14 28 11 15 31 48 46 75 15 26 32 47 39 48 144 9 297 37
367 67 25 10 65 26 90 35 41 15 77 40 179 123 47 39 131 96 173 117 19 11 57
41 84 69 l49 50 -50 -25 c-27 -14 -72 -44 -99 -66 -26 -23 -57 -41 -68 -41
-12 0 -55 -9 -97 -19 -42 -11 -107 -25 -146 -32 -38 -6 -94 -20 -122 -29 l-53
-17 0 40 c0 32 -6 46 -34 72 -59 56 -165 71 -321 47 -39 -6 -104 -16 -145 -21
-279 -38 -326 -47 -520 -100 -135 -37 -296 -131 -406 -237 -49 -46 -98 -86
-109 -89 -22 -4 -102 -15 -275 -40 -63 -9 -140 -20 -171 -25 -30 -6 -70 -10
-88 -10 -36 0 -281 -62 -346 -88 -22 -9 -91 -47 -153 -86 l-114 -69 -61 13
c-141 29 -356 34 -502 12 -38 -6 -117 -17 -175 -26 -101 -15 -132 -22 -340
-86 -52 -16 -133 -34 -180 -40 -47 -7 -116 -16 -155 -21 -192 -26 -178 -27
-281 26 -93 48 -95 49 -212 55 -64 3 -178 2 -252 -2 -74 -4 -267 -8 -429 -8
-180 -1 -325 -7 -373 -15 -70 -11 -85 -10 -131 5 -29 10 -96 26 -151 35 -155
27 -185 22 -556 -102 -74 -25 -153 -55 -175 -68 -28 -15 -73 -26 -145 -35 -58
-7 -136 -19 -175 -27 -38 -8 -97 -18 -130 -24 -61 -10 -135 -30 -280 -76 -110
-36 -226 -29 -340 19 -60 25 -180 29 -265 9 -62 -15 -279 -115 -346 -161 -67
-45 -102 -42 -279 25 -170 64 -290 89 -397 83 -87 -6 -309 -73 -409 -124 -40
-20 -63 -24 -131 -23 -46 0 -104 4 -130 8 -25 4 -138 5 -250 1 -266 -8 -372 0
-436 33 -62 33 -146 57 -195 57 -21 0 -67 7 -101 17 -69 18 -409 23 -591 9
-110 -9 -123 -5 -198 66 -15 14 -42 32 -60 39 -17 7 -46 23 -63 36 -17 13 -34
23 -38 23 -4 0 -22 11 -39 24 -55 42 -204 86 -332 97 -126 11 -210 8 -555 -16
-322 -23 -545 -11 -646 35 -24 11 -46 20 -50 20 -3 0 -34 12 -68 26 -33 14
-81 34 -106 45 -25 10 -88 28 -140 40 -52 12 -122 30 -154 40 -33 10 -69 19
-80 19 -19 0 -91 19 -179 47 -46 15 -122 27 -254 40 -45 4 -64 10 -68 22 -3 9
-31 32 -61 51 -31 19 -64 45 -74 58 -35 44 -94 59 -244 65 l-139 5 34 -27 c52
-40 108 -105 164 -189 58 -89 126 -141 245 -186 41 -16 125 -53 186 -83 77
-38 131 -57 175 -64 127 -17 222 -45 314 -90 33 -16 67 -29 75 -29 9 0 25 -7
37 -15 12 -9 56 -24 98 -34 72 -18 169 -68 238 -124 26 -20 42 -22 195 -27
l167 -5 75 -40 c47 -25 101 -66 146 -110 117 -116 114 -114 230 -145 60 -16
134 -37 164 -48 43 -15 71 -17 130 -13 41 4 147 6 235 5 171 -1 224 -12 340
-69 106 -51 187 -84 223 -91 94 -16 206 -58 244 -91 9 -8 48 -27 87 -43 56
-23 85 -43 134 -93 44 -46 77 -70 112 -83 28 -10 66 -28 85 -39 51 -32 104
-47 157 -45 64 2 70 1 53 -10 -8 -5 -11 -12 -7 -16 13 -14 105 -16 158 -4 179
41 228 40 359 -3 108 -36 351 -99 450 -117 63 -12 223 2 555 50 77 12 178 25
225 31 111 12 320 72 390 111 30 17 68 38 85 46 63 34 267 31 425 -6 59 -14
161 -28 285 -41 111 -11 291 -2 465 24 58 8 139 20 180 25 41 5 93 15 115 21
22 7 116 13 210 14 207 2 432 19 517 39 35 8 88 17 118 21 30 3 100 17 155 30
66 15 147 25 237 29 151 7 135 11 243 -60 28 -18 70 -38 95 -43 79 -17 284
-24 352 -13 35 6 97 16 138 23 41 6 98 20 125 29 28 10 77 26 110 35 33 9 83
27 110 40 84 39 245 102 345 134 86 28 128 38 300 70 30 6 98 22 150 36 85 23
185 39 545 91 127 18 245 42 435 91 241 61 268 66 338 55 70 -10 279 7 406 32
39 8 91 17 115 21 25 4 77 21 115 37 192 81 252 100 344 109 50 5 122 15 160
23 37 9 90 19 117 24 28 6 93 21 146 35 53 15 143 36 200 47 57 12 138 37 180
56 42 19 80 34 83 34 21 0 207 93 251 125 17 12 46 28 65 35 19 7 59 24 88 37
29 12 57 23 62 23 5 0 35 11 66 25 46 20 73 25 143 25 84 0 150 14 207 43 16
8 43 17 60 20 17 3 75 27 130 52 54 26 116 53 137 61 21 7 48 20 60 29 17 12
55 15 189 15 204 0 162 -10 648 150 80 27 179 56 220 65 41 9 117 34 168 56
51 21 98 39 103 39 5 0 66 27 136 60 69 34 153 72 187 86 34 14 79 34 102 44
66 30 277 161 299 185 17 18 237 125 258 125 24 0 195 95 261 145 119 91 167
124 211 147 55 29 189 132 251 193 27 27 91 79 142 114 50 36 90 66 88 69 -2
2 -30 -2 -63 -8 -120 -25 -113 -25 -113 4 0 31 -2 31 -66 -2z m-14549 -2301
c39 -10 122 -21 185 -25 125 -6 201 -23 295 -65 34 -16 89 -31 125 -34 97 -11
203 -45 281 -94 20 -12 77 -31 126 -43 90 -21 190 -62 244 -100 15 -12 45 -27
66 -36 l38 -14 -70 5 c-38 3 -99 12 -135 20 -126 28 -226 44 -305 50 -89 7
-97 8 -243 30 -177 26 -336 86 -443 167 -27 20 -70 44 -96 54 -27 10 -64 28
-83 41 -19 13 -59 31 -87 39 -29 8 -53 17 -53 20 0 11 93 2 155 -15z m5169
-112 c56 -20 191 -103 213 -130 10 -12 -4 -15 -100 -17 -62 -1 -157 -6 -212
-11 -127 -12 -938 -11 -956 0 -9 6 -2 9 22 9 20 0 56 7 79 15 24 8 68 18 99
21 31 3 78 13 105 21 27 9 86 22 130 29 45 7 106 20 136 29 30 8 69 15 86 15
18 0 60 9 95 19 35 11 75 22 89 25 46 9 159 -4 214 -25z m-1087 -165 c-3 -3
-12 -4 -19 -1 -8 3 -5 6 6 6 11 1 17 -2 13 -5z m-136 -42 c-14 -9 -42 -31 -62
-48 l-37 -31 -273 2 c-197 0 -280 4 -294 13 -17 10 -10 11 40 7 85 -8 403 23
475 47 28 9 101 21 165 26 6 1 -1 -7 -14 -16z m-1148 -119 c-28 -27 -55 -56
-60 -67 -7 -12 -21 -19 -39 -19 -42 0 -171 12 -229 21 l-50 8 54 17 c30 9 66
17 80 17 14 0 46 10 71 21 48 22 147 47 194 48 28 1 28 1 -21 -46z"/>
<path d="M55950 52156 c-55 -15 -209 -66 -352 -118 -60 -21 -141 -45 -180 -54
-179 -38 -250 -55 -343 -82 -55 -15 -109 -33 -120 -39 -17 -10 -15 -12 20 -21
22 -5 63 -15 90 -22 28 -7 75 -17 105 -21 30 -5 78 -13 105 -17 28 -5 60 -14
73 -21 30 -16 48 -9 125 47 116 84 203 131 242 132 17 0 46 9 65 20 19 11 76
40 126 64 84 40 91 46 97 77 3 19 8 42 12 52 8 20 -2 21 -65 3z"/>
<path d="M34384 50422 c2 -4 28 -24 58 -43 158 -106 286 -189 313 -202 41 -20
183 -62 275 -80 41 -9 89 -19 105 -22 17 -4 203 -10 415 -14 430 -8 429 -7
505 -80 22 -22 54 -46 72 -55 88 -44 286 -103 218 -64 -11 6 -38 27 -59 46
-21 19 -66 48 -100 64 -34 16 -83 46 -110 68 -27 21 -70 46 -95 55 -25 10 -71
34 -102 55 -65 46 -111 65 -199 84 -36 8 -92 24 -124 36 -160 58 -332 23 -463
-94 -48 -44 -53 -46 -80 -34 -15 7 -50 29 -78 49 -57 42 -117 73 -159 83 -17
4 -41 15 -55 25 -47 33 -110 61 -174 77 -34 8 -83 24 -109 35 -51 21 -62 23
-54 11z"/>
<path d="M33160 50146 c0 -37 44 -150 79 -203 49 -72 101 -115 189 -155 125
-56 119 -46 54 -85 -59 -35 -242 -209 -242 -229 0 -9 45 -13 158 -16 l157 -4
85 -42 c156 -78 228 -126 343 -232 90 -84 134 -116 216 -158 l102 -54 297 -2
c239 -2 307 -6 347 -19 28 -8 84 -25 125 -37 41 -12 107 -31 145 -42 39 -11
93 -28 120 -39 28 -10 79 -25 115 -34 36 -9 98 -26 138 -37 41 -11 102 -24
135 -28 96 -13 215 -37 292 -60 39 -11 91 -25 117 -30 27 -5 62 -17 80 -26 22
-11 75 -20 163 -25 71 -5 153 -13 180 -18 28 -5 88 -15 135 -21 86 -12 169
-30 250 -57 25 -8 65 -20 90 -28 137 -43 313 -106 334 -120 14 -9 69 -31 123
-50 54 -18 139 -50 188 -70 70 -29 112 -39 190 -46 104 -10 221 -30 315 -55
30 -7 74 -18 96 -24 23 -5 56 -20 75 -33 73 -49 204 -118 269 -143 19 -7 73
-29 120 -49 l85 -36 395 -3 c414 -4 434 -6 495 -51 164 -120 199 -136 410
-185 50 -11 113 -27 140 -34 28 -8 75 -20 105 -26 271 -56 343 -72 445 -100
55 -15 134 -34 175 -43 41 -9 109 -24 150 -34 68 -16 123 -18 555 -15 579 4
738 -7 840 -57 74 -37 131 -90 156 -146 18 -40 20 -41 91 -54 81 -16 300 -16
458 -1 52 5 258 10 458 10 l363 0 -3 27 c-2 22 -12 29 -53 44 -27 10 -61 18
-74 18 -34 1 -198 77 -244 113 -51 40 -134 77 -199 88 -29 5 -71 15 -93 21
-24 7 -181 15 -395 19 -195 5 -380 12 -410 18 -30 5 -102 17 -160 26 -58 9
-132 23 -165 31 -116 27 -277 34 -752 35 -492 1 -549 5 -689 45 -28 8 -88 19
-135 25 -535 61 -632 86 -949 245 -47 23 -101 47 -120 54 -19 6 -75 32 -125
57 -84 43 -279 123 -335 138 -25 7 -101 38 -170 70 -19 8 -82 40 -140 71 -58
30 -130 62 -160 71 -30 8 -76 29 -101 45 -26 16 -111 59 -190 95 -79 36 -148
69 -154 74 -5 4 -27 13 -48 20 -20 6 -74 41 -118 76 l-81 64 -191 0 c-207 0
-217 2 -452 79 -33 10 -109 31 -170 45 -182 44 -250 62 -271 74 -12 6 -59 25
-105 42 -85 31 -120 38 -334 64 -113 14 -147 20 -255 47 -69 17 -167 37 -245
49 -38 6 -104 18 -145 26 -95 17 -357 45 -520 54 -69 4 -136 12 -150 18 -14 6
-74 23 -135 38 -146 35 -349 143 -469 248 -133 117 -161 136 -199 136 -34 0
-196 48 -239 71 -43 23 -168 144 -198 191 -31 49 -36 52 -155 77 -27 6 -77 13
-110 17 -33 3 -114 14 -179 25 -129 20 -133 22 -253 119 -38 30 -63 45 -63 36z"/>
<path d="M39480 49741 c0 -13 43 -48 85 -68 35 -17 133 -43 414 -109 42 -9
117 -39 170 -67 84 -43 105 -50 173 -55 43 -2 78 -2 78 1 0 3 -25 11 -56 17
-97 20 -156 54 -246 139 l-85 81 -118 10 c-64 6 -136 14 -159 19 -40 9 -145
26 -218 35 -21 3 -38 1 -38 -3z"/>
<path d="M35250 48289 c40 -19 158 -43 145 -30 -8 7 -157 50 -175 50 -8 0 5
-9 30 -20z"/>
<path d="M35466 48231 c5 -5 32 -16 59 -24 77 -23 186 -71 229 -101 21 -14 42
-26 47 -26 19 0 189 -123 213 -155 15 -20 51 -57 79 -83 28 -26 70 -65 92 -88
27 -26 84 -62 168 -102 70 -34 132 -62 138 -62 6 0 33 -11 60 -25 28 -13 89
-38 137 -54 113 -38 223 -89 290 -135 30 -19 75 -42 101 -50 25 -7 64 -23 86
-35 22 -11 44 -21 48 -21 22 0 195 -94 222 -120 42 -40 88 -57 175 -64 77 -7
129 -15 260 -42 41 -9 95 -20 120 -25 25 -5 68 -14 95 -20 28 -6 124 -15 215
-20 91 -4 190 -12 220 -18 30 -5 127 -10 215 -10 l160 -1 -40 25 c-75 45 -140
77 -250 121 -60 25 -125 55 -145 68 -19 13 -64 40 -100 61 -92 54 -127 78
-190 130 -66 54 -150 121 -194 155 -18 14 -66 38 -107 54 -41 16 -94 36 -119
46 -25 9 -72 22 -105 29 -188 38 -287 64 -425 112 -116 40 -180 63 -219 80
-129 58 -278 94 -551 134 -110 16 -164 26 -182 36 -11 6 -41 16 -66 24 -47 13
-125 41 -257 91 -157 60 -204 73 -290 83 -49 5 -110 17 -134 25 -49 18 -70 21
-55 7z"/>
<path d="M33610 48155 c0 -14 104 -72 167 -92 40 -12 96 -34 123 -48 28 -14
78 -32 113 -41 34 -8 87 -26 117 -39 30 -13 78 -29 105 -35 28 -6 75 -21 106
-35 30 -14 84 -31 120 -39 35 -9 98 -26 139 -40 41 -13 93 -29 115 -34 75 -20
172 -58 254 -101 68 -35 85 -49 102 -84 56 -112 144 -192 254 -232 28 -10 82
-36 122 -57 45 -25 104 -46 160 -58 48 -10 113 -28 143 -39 30 -11 68 -20 83
-21 15 0 53 -11 85 -24 31 -13 75 -28 97 -32 60 -11 190 -61 233 -88 20 -14
55 -32 77 -41 23 -8 32 -10 21 -2 -73 49 -102 67 -191 120 -55 33 -116 74
-135 91 -20 17 -65 51 -100 76 -36 25 -123 104 -195 176 -122 123 -134 133
-190 149 -33 9 -76 26 -95 38 -45 28 -129 67 -143 67 -6 0 -56 22 -112 49 -94
45 -150 65 -270 96 -201 52 -211 54 -341 53 -151 -1 -213 16 -389 102 -186 90
-266 119 -385 140 -36 6 -84 15 -108 21 -45 10 -82 12 -82 4z"/>
<path d="M41458 46752 c-20 -22 -41 -50 -47 -61 -7 -11 -35 -39 -64 -61 -29
-22 -66 -51 -84 -66 -17 -14 -62 -37 -100 -50 -37 -14 -84 -31 -103 -39 -19
-7 -138 -20 -265 -29 -126 -10 -257 -23 -290 -29 -43 -9 -308 -12 -960 -12
-618 0 -945 -4 -1045 -12 -175 -15 -261 -27 -285 -40 -14 -9 -11 -12 24 -26
22 -9 67 -20 98 -23 32 -3 83 -15 113 -26 80 -29 262 -40 720 -44 224 -2 427
-8 455 -14 27 -6 84 -10 125 -9 41 1 94 -4 116 -10 23 -6 75 -11 115 -10 94 2
258 -7 329 -18 30 -5 168 -7 305 -6 138 1 307 3 377 3 95 0 142 5 190 19 34
11 89 22 121 26 32 4 84 15 114 26 31 10 72 19 92 19 20 0 61 6 91 14 85 22
237 28 662 28 296 -1 405 3 443 13 28 7 83 16 123 19 40 3 108 17 150 30 42
14 103 29 135 35 89 16 160 53 228 120 35 33 60 63 56 67 -3 3 -75 1 -159 -6
-172 -13 -398 -10 -563 9 -288 33 -376 53 -507 115 -42 20 -83 36 -90 36 -7 0
-42 10 -78 22 -56 18 -96 21 -285 26 l-221 4 -36 -40z"/>
<path d="M53856 46755 c-15 -19 -53 -53 -84 -75 -31 -22 -84 -60 -117 -85 -33
-24 -85 -58 -115 -76 -123 -72 -141 -79 -205 -79 -69 0 -86 -9 -110 -61 -45
-99 -146 -151 -390 -200 -66 -13 -154 -36 -235 -62 -54 -17 -92 -21 -220 -21
-162 0 -254 12 -355 44 -46 15 -88 20 -178 20 -110 0 -124 2 -190 31 -40 16
-82 34 -93 39 -12 5 -39 23 -59 42 -37 32 -124 71 -195 88 -102 23 -141 33
-200 53 -64 22 -78 22 -697 25 -558 2 -633 1 -645 -13 -7 -8 -35 -43 -63 -77
-27 -34 -70 -80 -94 -102 -24 -23 -117 -114 -208 -203 -153 -152 -187 -181
-288 -249 -117 -80 -145 -96 -186 -109 -67 -20 -110 -40 -221 -102 -92 -51
-169 -78 -293 -103 -22 -5 -53 -13 -68 -19 -16 -6 -56 -11 -89 -11 -58 0 -62
-2 -100 -41 -22 -22 -56 -48 -76 -58 -20 -9 -57 -29 -83 -43 -45 -27 -147 -53
-264 -68 -46 -5 -88 -21 -170 -65 -61 -32 -121 -65 -135 -75 -29 -20 -140 -73
-260 -125 -82 -36 -131 -59 -310 -151 -47 -24 -89 -44 -93 -44 -8 0 -79 -27
-195 -73 -46 -18 -50 -22 -32 -29 27 -10 486 -1 569 11 36 6 76 19 90 29 14
10 67 38 116 61 82 39 100 44 205 52 163 12 180 15 267 50 280 111 292 113
623 110 l265 -3 66 44 c37 25 79 54 95 67 16 12 63 48 104 80 41 32 82 66 90
75 8 10 37 33 65 51 27 19 83 57 123 85 71 49 211 118 282 138 69 20 140 50
167 72 15 12 70 67 121 123 97 106 169 157 222 157 16 0 41 5 57 11 34 13 132
28 268 38 55 5 115 14 134 21 25 10 93 12 275 8 262 -6 277 -9 360 -68 43 -31
45 -32 222 -42 99 -6 379 -15 624 -20 740 -15 700 -15 740 6 33 18 101 30 245
42 39 3 84 11 100 17 72 26 282 151 329 195 28 26 68 58 88 70 20 13 47 40 59
60 13 20 34 51 48 68 14 17 51 66 81 110 69 98 102 130 165 160 28 14 68 38
88 55 31 25 37 37 36 67 0 44 -20 104 -35 109 -6 2 -23 -12 -38 -32z"/>
<path d="M36943 46724 c8 -9 111 -34 116 -28 11 10 -17 22 -68 27 -29 4 -51 4
-48 1z"/>
<path d="M47775 46073 c-11 -3 -39 -11 -63 -19 -23 -8 -80 -14 -127 -14 -46 0
-96 -5 -112 -11 -15 -5 -59 -17 -97 -25 -38 -8 -89 -23 -114 -34 -25 -11 -76
-27 -113 -34 -37 -8 -86 -24 -110 -37 -24 -12 -70 -28 -103 -36 -32 -7 -72
-23 -90 -35 -63 -45 -169 -144 -199 -188 -52 -76 -140 -170 -182 -195 -47 -28
-132 -44 -295 -54 -69 -5 -130 -15 -154 -25 -21 -9 -77 -51 -123 -94 -47 -42
-100 -87 -119 -100 -29 -19 -34 -28 -34 -63 l0 -41 178 4 c169 3 180 5 242 32
36 15 97 37 135 48 102 28 335 124 427 175 72 40 130 67 313 146 33 14 91 43
129 64 67 37 70 40 81 88 6 28 19 64 28 81 26 50 101 110 154 124 78 20 189
58 222 74 16 9 45 35 63 58 18 23 50 59 71 80 36 37 35 41 -8 31z"/>
<path d="M50635 45449 c-55 -3 -113 -11 -128 -17 -16 -7 -46 -12 -67 -12 -35
0 -46 -7 -106 -67 -36 -37 -79 -84 -95 -106 -43 -59 -161 -180 -210 -216 -24
-17 -55 -40 -69 -51 -23 -18 -47 -29 -165 -73 -22 -8 -78 -25 -125 -38 -93
-24 -157 -54 -243 -111 -64 -42 -83 -65 -46 -54 13 4 60 11 104 16 44 4 98 16
120 25 22 9 70 21 106 25 36 5 86 16 110 24 24 9 66 16 92 16 26 0 82 11 125
24 109 34 203 48 307 47 54 -1 113 4 148 14 32 8 82 15 110 15 29 0 77 7 107
16 30 8 87 19 125 24 39 5 99 19 134 30 35 11 82 20 105 20 22 0 73 12 111 26
39 14 99 32 135 40 35 8 89 26 120 40 101 47 203 67 416 83 60 4 116 11 123
15 7 5 50 10 97 12 46 3 97 9 112 15 15 6 54 13 87 15 33 2 126 7 206 13 80 5
155 14 167 20 11 6 51 11 89 11 69 0 140 15 203 43 19 8 46 20 60 25 53 23
-126 -1 -200 -26 -70 -23 -88 -25 -255 -24 -259 1 -1089 20 -1160 26 -33 3
-134 11 -225 17 -195 13 -223 19 -289 63 -57 39 -89 44 -236 35z"/>
<path d="M46910 44265 c-30 -7 -109 -29 -175 -49 -66 -20 -145 -44 -174 -52
-30 -9 -75 -26 -100 -38 -42 -21 -113 -34 -274 -52 -31 -3 -59 -10 -62 -14 -2
-4 27 -22 65 -39 l69 -32 278 3 278 3 120 53 c66 29 159 75 207 102 47 27 98
52 112 56 59 14 24 30 -134 58 -99 19 -134 19 -210 1z"/>
<path d="M45988 55211 c-31 -3 -61 -11 -66 -16 -10 -11 -76 -704 -68 -713 11
-10 152 -1 204 14 48 14 55 19 73 59 26 58 58 286 66 460 6 138 5 141 -18 167
-27 31 -92 41 -191 29z"/>
<path d="M61370 73359 c52 -48 216 -157 319 -212 l71 -37 1 -88 c0 -48 2 -98
4 -112 2 -14 6 -73 9 -131 20 -383 107 -919 206 -1284 156 -569 370 -983 642
-1240 138 -131 263 -208 483 -296 427 -170 807 -170 1162 2 172 83 408 265
543 420 30 34 68 77 83 93 26 29 210 272 258 341 11 17 105 158 210 315 222
335 195 297 337 485 233 309 424 510 673 710 88 70 249 156 374 201 165 58
397 28 635 -83 97 -45 251 -138 422 -256 65 -44 120 -78 124 -75 8 9 -15 202
-32 260 -26 89 -94 213 -161 297 -187 235 -509 390 -926 446 -65 9 -247 18
-247 12 0 -5 61 -19 136 -32 105 -17 324 -84 449 -137 233 -99 441 -273 526
-440 l20 -39 -22 11 c-11 7 -58 36 -103 65 -113 73 -178 104 -346 166 -101 37
-325 66 -510 66 -175 1 -327 -11 -565 -43 -60 -8 -126 -17 -145 -19 -19 -2
-89 -11 -155 -20 -66 -9 -136 -18 -155 -20 -83 -10 -319 -33 -395 -39 -33 -3
-100 -8 -150 -11 -173 -13 -709 -7 -845 10 -14 1 -64 6 -110 10 -47 4 -92 9
-101 10 -9 2 -40 6 -70 9 -54 7 -120 16 -150 21 -14 3 -77 12 -144 20 -60 8
-193 29 -290 45 -60 11 -128 22 -150 25 -22 4 -56 10 -75 15 -19 5 -55 12 -80
15 -25 4 -94 17 -155 30 -60 13 -128 26 -150 29 -40 7 -283 64 -385 91 -223
59 -301 82 -420 122 -261 87 -435 163 -617 268 l-78 45 45 -41z m1370 -619
c145 -44 780 -187 993 -225 168 -30 444 -74 492 -79 28 -3 91 -10 140 -16 117
-13 355 -24 525 -24 134 0 437 11 495 18 17 2 66 7 110 11 44 3 94 8 110 10
47 6 337 46 370 50 17 3 95 14 175 25 80 11 151 23 158 25 6 2 12 1 12 -4 0
-5 -25 -21 -56 -36 -53 -26 -242 -149 -293 -190 -89 -73 -185 -158 -241 -213
-36 -35 -83 -72 -105 -82 -123 -53 -485 -158 -645 -186 -25 -4 -47 -8 -50 -9
-11 -2 -107 -17 -140 -21 -19 -2 -48 -6 -65 -9 -132 -19 -399 -25 -580 -13
-604 39 -1062 237 -1302 561 -79 108 -146 262 -167 385 -6 36 3 40 64 22z
m2135 -1275 c69 -10 165 -48 165 -66 0 -3 -6 -6 -12 -6 -12 0 -191 -68 -768
-290 -349 -134 -375 -145 -390 -156 -28 -23 44 69 104 131 158 166 376 308
552 361 111 34 232 43 349 26z m-950 -30 c65 -17 100 -40 74 -49 -56 -20 -797
-292 -834 -306 l-30 -11 25 28 c95 109 248 235 362 298 115 63 264 78 403 40z"/>
</g>
</svg>
