<?xml version="1.0" standalone="no"?>
<!DOCTYPE svg PUBLIC "-//W3C//DTD SVG 20010904//EN"
 "http://www.w3.org/TR/2001/REC-SVG-20010904/DTD/svg10.dtd">
<svg version="1.0" xmlns="http://www.w3.org/2000/svg"
 width="500.000000pt" height="410.000000pt" viewBox="0 0 500.000000 410.000000"
 preserveAspectRatio="xMidYMid meet">

<g transform="translate(0.000000,410.000000) scale(0.100000,-0.100000)"
fill="#000000" stroke="none">
<path d="M2290 3785 c-582 -71 -1090 -410 -1379 -918 -91 -162 -171 -386 -206
-577 -26 -144 -31 -409 -11 -550 41 -277 132 -530 266 -734 29 -44 54 -86 57
-93 4 -11 -68 -13 -386 -13 l-391 0 0 -210 0 -210 610 0 610 0 78 -49 c454
-285 1018 -352 1532 -185 124 41 300 124 400 188 l70 46 613 2 612 3 3 208 2
207 -395 0 c-217 0 -395 2 -395 5 0 2 24 42 54 87 452 696 370 1611 -199 2226
l-67 72 12 68 c6 37 20 86 30 109 16 37 27 46 104 82 47 22 86 47 86 55 0 28
-42 65 -96 86 -90 33 -334 73 -459 74 -93 0 -117 -3 -157 -21 -27 -12 -48 -28
-48 -36 0 -14 23 -38 50 -51 8 -4 3 2 -12 14 -16 12 -28 28 -28 35 0 26 81 48
175 48 89 0 338 -39 442 -68 50 -15 113 -57 113 -77 0 -5 -30 -23 -67 -40 -38
-16 -78 -39 -91 -51 -34 -32 -58 -127 -82 -323 -12 -99 -23 -185 -26 -193 -3
-10 -13 -5 -35 20 l-30 34 28 -42 c15 -23 31 -42 34 -43 10 0 17 34 31 143 6
53 15 97 19 97 12 0 158 -181 214 -265 293 -440 369 -1000 204 -1515 -39 -122
-141 -332 -216 -440 l-58 -85 -1402 -3 -1402 -2 -65 97 c-196 296 -295 622
-296 973 0 387 115 744 342 1052 81 111 281 307 398 391 109 77 337 194 455
233 440 144 919 115 1330 -81 92 -44 105 -44 105 0 0 16 -23 30 -109 68 -328
143 -644 192 -971 152z m1564 -2981 c22 -8 20 -31 -3 -43 -13 -7 -24 -6 -37 3
-15 12 -16 16 -5 30 15 18 21 19 45 10z m277 -10 c11 -14 10 -18 -5 -30 -21
-15 -56 -3 -56 21 0 26 42 32 61 9z m-3688 -34 l10 -35 12 35 c11 33 15 35 61
38 l49 3 0 -106 0 -105 -43 0 -43 0 6 68 5 67 -23 -64 c-12 -36 -27 -66 -34
-68 -7 -3 -21 27 -36 74 -24 76 -25 77 -26 35 -1 -23 4 -51 11 -61 17 -27 3
-51 -29 -51 l-28 0 0 105 0 106 49 -3 c48 -3 50 -5 59 -38z m407 -32 c0 -62 2
-69 13 -54 8 10 12 29 9 42 -4 22 -1 24 32 24 41 0 48 -20 19 -52 -15 -17 -15
-19 0 -36 10 -10 17 -28 17 -40 0 -33 -34 -27 -64 11 l-26 32 0 -32 c0 -31 -3
-33 -33 -33 l-32 0 0 105 0 105 33 0 32 0 0 -72z m390 45 c-3 -44 -1 -55 10
-48 6 3 10 22 10 41 0 31 2 34 30 34 38 0 39 -22 5 -81 -20 -36 -24 -52 -19
-86 l6 -43 -46 0 c-41 0 -46 2 -46 23 0 13 5 28 11 34 8 8 5 23 -12 57 -12 25
-26 46 -31 46 -4 0 -8 11 -8 25 0 23 4 25 46 25 43 0 45 -1 44 -27z m795 2
c20 -19 25 -34 25 -74 0 -27 -3 -57 -6 -66 -10 -26 -59 -45 -116 -45 l-54 0 1
105 0 105 63 0 c53 0 67 -4 87 -25z m605 -10 c0 -34 -20 -49 -35 -25 -10 16
-45 12 -45 -5 0 -8 9 -15 19 -15 14 0 19 -6 18 -20 -1 -12 -8 -20 -19 -20 -10
0 -18 -7 -18 -15 0 -19 32 -33 38 -17 2 7 12 12 23 12 15 0 19 -7 19 -35 l0
-35 -75 0 c-81 0 -101 13 -77 51 15 23 16 105 2 114 -5 3 -10 15 -10 26 0 17
7 19 80 19 l80 0 0 -35z m276 -25 c19 0 18 -39 -1 -46 -20 -8 -19 -33 1 -55
23 -25 11 -49 -24 -49 -39 0 -48 14 -55 80 -8 70 -2 92 31 113 27 16 27 16 30
-14 2 -17 9 -29 18 -29z m565 34 c19 -21 24 -36 24 -80 0 -76 -23 -97 -112
-102 l-68 -4 0 106 0 106 66 0 c58 0 68 -3 90 -26z m289 -41 c0 -38 3 -85 6
-105 l7 -38 -39 0 -39 0 0 105 0 105 33 0 32 0 0 -67z m-3032 -7 c5 -6 12 -31
15 -56 2 -25 6 -52 8 -60 3 -12 -9 -15 -65 -17 -75 -2 -96 7 -96 41 0 31 19
46 58 46 23 0 32 4 29 13 -2 8 -19 11 -46 9 -41 -3 -52 7 -28 26 25 21 108 20
125 -2z m352 -14 c32 -40 26 -52 -25 -52 -33 0 -45 -4 -45 -14 0 -19 17 -29
25 -16 10 16 55 12 55 -5 0 -36 -87 -48 -120 -15 -39 39 -17 124 33 132 35 6
56 -2 77 -30z m360 0 c27 -33 25 -68 -5 -97 -31 -32 -86 -34 -115 -5 -20 20
-24 36 -20 75 6 63 98 81 140 27z m750 28 c25 0 36 -23 44 -92 l7 -57 -68 0
c-74 1 -93 10 -93 43 0 31 19 46 58 46 23 0 32 4 29 13 -2 8 -19 11 -46 9 -22
-2 -41 1 -41 6 0 21 50 44 78 36 8 -2 22 -4 32 -4z m1016 -13 c5 -4 24 -105
24 -123 0 -9 -19 -13 -70 -12 -59 0 -73 4 -85 20 -24 35 -1 68 48 68 17 0 27
5 27 15 0 12 -8 14 -40 9 -33 -5 -40 -4 -40 10 0 9 11 18 28 22 15 3 32 7 37
8 10 3 65 -10 71 -17z m454 -17 c21 -39 13 -50 -36 -50 -32 0 -44 -4 -41 -12
2 -8 16 -12 32 -10 15 2 34 1 43 -3 28 -11 -16 -45 -59 -45 -83 0 -111 113
-36 145 36 15 82 3 97 -25z m636 8 c26 -28 23 -86 -5 -109 -30 -24 -82 -24
-112 0 -44 36 -22 125 35 133 35 5 64 -3 82 -24z m-2746 -29 c0 -36 4 -49 13
-47 15 6 22 48 8 48 -6 0 -11 11 -11 25 0 23 4 25 40 25 40 0 40 0 40 -37 0
-21 3 -55 6 -75 l7 -38 -37 0 c-21 0 -36 5 -36 12 0 9 -3 9 -12 0 -15 -15 -51
-15 -66 0 -7 7 -12 29 -12 49 0 21 -4 41 -10 44 -5 3 -10 15 -10 26 0 16 7 19
40 19 l40 0 0 -51z m190 39 c0 -9 3 -9 12 0 21 21 38 13 38 -17 0 -21 -6 -32
-20 -36 -17 -5 -19 -12 -14 -46 l7 -39 -45 0 -45 0 0 75 0 75 34 0 c19 0 33
-5 33 -12z m585 -27 c-4 -24 -2 -42 4 -46 11 -6 14 10 11 58 -1 24 2 27 29 27
26 0 31 -4 31 -23 0 -13 -3 -27 -7 -31 -5 -4 -22 -42 -38 -84 -27 -67 -34 -77
-55 -77 -30 0 -39 31 -15 48 14 11 14 17 -10 70 -36 83 -34 97 16 97 l41 0 -7
-39z m400 22 c6 -17 7 -17 19 0 19 25 56 22 56 -4 0 -12 -7 -27 -16 -33 -14
-11 -14 -14 4 -36 10 -13 17 -32 14 -42 -6 -24 -48 -23 -64 1 -12 20 -12 20
-26 0 -18 -26 -52 -25 -52 1 0 11 6 29 13 41 10 17 9 22 -5 33 -10 7 -18 23
-18 35 0 17 6 21 34 21 23 0 36 -6 41 -17z m275 0 c1 -17 1 -17 11 0 5 9 19
17 29 17 15 0 20 -7 20 -29 0 -22 -6 -30 -25 -35 -25 -6 -34 -29 -16 -40 5 -4
8 -14 7 -24 -2 -13 -14 -18 -49 -20 -45 -3 -47 -2 -47 22 0 15 5 26 10 26 6 0
10 11 10 25 0 14 -4 25 -10 25 -5 0 -10 11 -10 25 0 22 4 25 35 25 27 0 35 -4
35 -17z m860 -20 c0 -21 3 -55 6 -75 l7 -38 -40 0 -40 0 0 75 0 75 34 0 c31 0
33 -2 33 -37z m170 7 c0 -23 -5 -30 -19 -30 -11 0 -21 5 -23 12 -7 21 -38 0
-38 -26 0 -29 17 -43 33 -27 14 14 44 14 52 1 11 -18 -34 -50 -70 -50 -46 0
-75 29 -75 75 0 52 28 75 90 75 49 0 50 -1 50 -30z m102 -20 c1 -27 2 -60 2
-72 1 -20 -4 -23 -39 -23 l-40 0 -1 73 0 72 38 0 38 0 2 -50z m278 -1 c0 -36
4 -49 13 -47 15 6 22 48 8 48 -6 0 -11 11 -11 25 0 23 4 25 40 25 40 0 40 0
40 -37 0 -21 3 -55 6 -75 l7 -38 -37 0 c-20 0 -36 4 -36 9 0 5 -13 4 -29 -2
-40 -15 -61 4 -61 54 0 22 -4 39 -10 39 -5 0 -10 11 -10 25 0 23 4 25 40 25
l40 0 0 -51z m240 30 c0 -19 -4 -21 -37 -14 -43 8 -40 1 9 -23 68 -34 41 -91
-42 -90 -46 0 -50 2 -50 24 0 17 6 24 19 24 11 0 23 -4 26 -10 8 -12 35 -13
35 -1 0 5 -12 12 -27 16 -38 9 -53 23 -53 49 0 34 19 46 72 46 42 0 48 -3 48
-21z m-1260 -261 c-67 -41 -256 -126 -350 -157 -359 -117 -773 -113 -1129 11
-88 30 -290 125 -326 152 -18 14 76 15 910 16 l930 0 -35 -22z"/>
<path d="M1950 701 c0 -45 3 -51 21 -51 18 0 20 5 17 47 -2 36 -7 49 -20 51
-15 3 -18 -4 -18 -47z"/>
<path d="M3400 695 c0 -30 2 -55 4 -55 3 0 12 7 20 16 19 18 21 65 4 82 -22
22 -28 13 -28 -43z"/>
<path d="M662 644 c4 -21 22 -23 26 -1 2 10 -3 17 -13 17 -10 0 -15 -6 -13
-16z"/>
<path d="M1026 703 c-11 -11 -6 -23 9 -23 8 0 15 4 15 9 0 13 -16 22 -24 14z"/>
<path d="M1377 693 c-10 -10 -8 -51 2 -58 14 -8 32 30 25 49 -7 17 -16 20 -27
9z"/>
<path d="M2146 652 c-8 -13 11 -35 23 -28 16 10 14 36 -3 36 -8 0 -17 -4 -20
-8z"/>
<path d="M3135 650 c-8 -13 4 -32 16 -25 12 8 12 35 0 35 -6 0 -13 -4 -16 -10z"/>
<path d="M3597 703 c-12 -11 -8 -23 8 -23 8 0 15 7 15 15 0 16 -12 20 -23 8z"/>
<path d="M4232 668 c2 -18 8 -33 13 -33 6 0 11 15 13 33 3 24 -1 32 -13 32
-12 0 -16 -8 -13 -32z"/>
<path d="M3701 3392 c-12 -94 -14 -159 -6 -150 7 6 27 229 22 235 -3 2 -9 -36
-16 -85z"/>
<path d="M3382 3353 c-51 -108 -68 -152 -52 -137 13 13 102 216 97 221 -2 1
-22 -36 -45 -84z"/>
<path d="M3556 3194 c-10 -26 -7 -32 14 -27 14 4 30 -3 47 -18 l25 -24 -21 43
c-22 44 -53 56 -65 26z"/>
<path d="M3322 3103 c-41 -27 -51 -44 -14 -24 12 6 39 11 61 11 42 0 50 7 29
28 -17 17 -29 15 -76 -15z"/>
<path d="M3438 3103 c6 -2 18 -2 25 0 6 3 1 5 -13 5 -14 0 -19 -2 -12 -5z"/>
<path d="M3600 3096 c0 -2 8 -10 18 -17 15 -13 16 -12 3 4 -13 16 -21 21 -21
13z"/>
<path d="M3521 3086 c2 -2 15 -9 29 -15 24 -11 24 -11 6 3 -16 13 -49 24 -35
12z"/>
<path d="M2917 3063 c-12 -11 -8 -38 9 -59 14 -18 15 -18 4 5 -7 12 -10 32 -7
42 5 20 4 23 -6 12z"/>
<path d="M3613 3030 c37 -32 97 -122 97 -148 0 -7 -9 -22 -20 -34 -11 -12 -20
-28 -20 -36 0 -8 -9 -25 -20 -39 -11 -14 -20 -37 -19 -52 1 -24 1 -24 10 6 17
59 84 68 152 22 l32 -23 -24 27 c-26 28 -93 53 -112 41 -23 -14 -3 30 23 49
48 36 150 4 200 -64 67 -90 -3 -225 -122 -237 -57 -5 -111 17 -141 60 -38 53
-3 100 60 77 24 -9 25 -8 7 6 -27 20 -59 19 -79 -3 -19 -21 -23 -67 -7 -77 28
-17 -91 -98 -177 -120 -149 -40 -273 25 -329 170 -16 44 -16 48 -1 57 10 5 17
21 17 38 0 23 -6 30 -33 39 -23 8 -42 8 -58 2 -21 -8 -18 -10 22 -10 52 -1 67
-18 48 -53 -13 -23 -67 -48 -106 -48 -38 0 -89 33 -113 72 -11 18 -20 29 -20
25 0 -17 32 -62 58 -82 29 -21 98 -27 140 -12 17 7 23 4 28 -10 58 -193 236
-264 426 -170 41 20 82 45 92 56 18 20 18 20 58 -7 53 -34 129 -35 182 -3 81
51 110 161 61 233 -14 20 -25 39 -25 42 0 3 14 20 30 38 34 37 38 66 12 97
-19 25 -66 30 -100 12 -23 -12 -52 -60 -52 -86 0 -10 -10 -15 -32 -15 -29 0
-35 5 -51 44 -20 49 -78 121 -110 137 -12 6 -5 -3 16 -21z m321 -82 c22 -31
20 -42 -15 -82 -30 -35 -32 -35 -59 -21 -16 8 -36 15 -45 15 -24 0 -18 45 11
79 33 39 84 43 108 9z"/>
<path d="M3289 3025 c-24 -13 -86 -111 -76 -121 2 -3 10 9 17 26 15 36 64 80
90 80 38 0 55 -54 38 -125 l-7 -30 14 30 c21 45 19 111 -5 135 -23 23 -36 24
-71 5z"/>
<path d="M3498 3007 c-27 -22 -68 -84 -68 -102 0 -5 12 10 27 32 34 53 64 70
101 57 26 -9 27 -13 26 -77 -1 -71 11 -71 22 0 14 95 -44 144 -108 90z"/>
<path d="M2940 2971 c0 -8 -10 -26 -22 -40 l-23 -26 30 25 c17 14 31 25 32 25
1 0 -2 7 -7 15 -8 13 -10 13 -10 1z"/>
<path d="M3324 2932 c5 -15 2 -22 -13 -27 -21 -6 -36 -38 -26 -54 3 -5 17 1
30 13 26 24 34 70 14 82 -7 4 -9 0 -5 -14z"/>
<path d="M3527 2922 c6 -4 13 -21 16 -37 4 -27 4 -27 6 8 1 29 -3 37 -16 37
-12 0 -14 -3 -6 -8z"/>
<path d="M2885 2889 c-4 -6 -5 -12 -2 -15 2 -3 7 2 10 11 7 17 1 20 -8 4z"/>
<path d="M3075 2891 c-33 -4 -69 -12 -80 -19 l-20 -14 20 7 c54 19 100 17 128
-5 23 -18 27 -28 22 -49 -4 -19 -3 -22 5 -11 14 22 12 46 -5 60 -9 7 -14 19
-11 27 3 7 4 12 3 11 -1 0 -29 -4 -62 -7z"/>
<path d="M3516 2885 c-3 -8 -15 -15 -27 -15 -15 0 -19 -4 -15 -16 3 -9 6 -20
6 -25 0 -5 5 -9 10 -9 6 0 10 7 10 16 0 11 6 15 18 12 15 -4 17 0 14 23 -5 33
-7 35 -16 14z"/>
<path d="M2873 2825 c0 -22 2 -30 4 -17 2 12 2 30 0 40 -3 9 -5 -1 -4 -23z"/>
<path d="M3260 2854 c0 -16 17 -37 27 -33 6 2 2 13 -8 23 -11 11 -19 15 -19
10z"/>
<path d="M3460 2828 c0 -8 7 -21 15 -28 19 -16 19 -1 0 24 -12 16 -15 17 -15
4z"/>
<path d="M3202 2790 c14 -4 32 -11 40 -15 7 -3 4 1 -6 9 -11 9 -29 16 -40 15
-17 -1 -16 -2 6 -9z"/>
<path d="M3514 2781 c-18 -11 -35 -25 -40 -32 -4 -7 9 -2 30 11 21 12 63 26
94 30 l57 7 -55 2 c-38 1 -65 -5 -86 -18z"/>
<path d="M2696 2722 c-2 -2 -39 -9 -82 -17 -44 -8 -97 -18 -119 -24 -22 -6
-76 -17 -120 -26 -44 -8 -100 -22 -125 -31 -25 -9 -63 -21 -85 -28 -22 -6 -62
-22 -89 -34 -27 -12 -56 -22 -66 -22 -10 0 -23 -7 -31 -16 -15 -19 -102 -64
-123 -64 -8 0 -16 -5 -18 -11 -2 -6 -34 -17 -70 -25 -172 -36 -315 -130 -370
-243 -16 -34 -23 -66 -24 -126 -1 -48 -11 -115 -26 -170 -23 -83 -24 -98 -15
-189 10 -98 10 -100 -14 -119 -41 -34 -132 -71 -186 -75 -29 -3 -53 -2 -53 1
0 4 11 23 25 43 39 58 32 135 -16 159 -43 23 -131 19 -163 -6 -72 -57 -82
-184 -21 -257 14 -16 48 -39 77 -52 46 -20 64 -22 158 -18 83 4 118 10 168 30
l63 26 10 -25 c5 -13 9 -31 9 -38 0 -8 6 -18 13 -22 13 -9 47 -76 47 -96 1
-14 77 -97 89 -97 4 0 21 -12 36 -26 33 -30 146 -84 177 -84 11 0 36 -10 55
-21 20 -12 56 -23 86 -25 28 -2 53 -8 57 -13 12 -21 466 -13 535 9 17 5 82 17
145 26 63 9 126 22 140 29 14 7 54 21 88 30 65 16 71 19 209 79 45 20 88 36
95 36 7 0 41 18 76 40 34 22 65 40 67 40 10 0 92 61 114 84 14 14 27 26 31 26
12 0 138 125 151 150 7 14 30 50 53 80 22 30 41 62 41 72 1 9 13 34 28 55 27
40 28 45 28 368 0 38 5 75 11 82 5 7 7 17 3 23 -3 6 17 41 46 78 42 54 45 61
18 37 -56 -50 -83 -71 -75 -58 4 7 2 21 -4 33 -5 11 -15 29 -20 40 -9 17 -4
23 29 44 66 42 63 54 -19 85 -57 22 -90 27 -90 13 0 -4 -12 -20 -27 -36 -24
-26 -30 -28 -80 -23 -36 4 -68 1 -96 -9 -23 -9 -72 -18 -109 -21 -66 -5 -68
-5 -80 22 -10 23 -16 26 -42 20 -35 -8 -152 -7 -178 1 -21 6 -18 56 5 82 15
16 12 17 -46 16 -86 -2 -108 8 -101 43 5 23 0 31 -25 46 -35 20 -38 33 -15 65
8 12 12 27 9 32 -6 9 -161 11 -169 2z m80 -59 c-9 -21 -9 -21 -7 -50 1 -15 9
-25 24 -28 18 -5 23 -12 21 -37 -3 -40 28 -72 64 -65 15 3 39 3 53 0 20 -4 25
-10 22 -26 -2 -12 5 -32 15 -45 22 -28 115 -44 183 -32 33 6 48 5 60 -6 8 -8
22 -14 30 -14 8 0 22 -6 31 -14 16 -12 16 -15 -7 -48 -23 -34 -25 -35 -122
-46 -54 -6 -129 -11 -168 -12 -41 0 -78 -7 -91 -15 -18 -11 -29 -11 -76 2 -49
14 -60 14 -110 -1 -30 -8 -72 -27 -93 -41 l-38 -26 -24 23 c-19 18 -38 23 -93
26 -39 2 -70 6 -70 8 0 2 5 14 11 28 13 28 6 68 -17 90 -18 18 -95 22 -124 6
-24 -13 -43 -72 -35 -110 6 -28 5 -30 -24 -30 -24 0 -37 -9 -63 -45 -18 -24
-39 -44 -45 -45 -19 0 -17 5 22 56 29 38 35 54 35 94 0 27 -5 61 -12 75 -15
33 -17 31 124 86 60 23 106 44 103 47 -6 6 -295 -29 -324 -39 -13 -5 -45 -6
-73 -3 l-49 7 57 28 c32 16 62 33 68 38 6 5 34 16 63 24 28 9 62 22 75 30 12
8 42 18 66 22 24 4 56 13 70 21 15 8 37 14 49 14 13 0 40 7 61 15 43 17 224
48 309 53 50 3 55 1 49 -15z m918 -212 c11 -4 15 -10 10 -13 -5 -3 -31 -18
-59 -34 l-50 -29 30 42 c31 44 37 47 69 34z m-1587 -46 c-53 -20 -65 -22 -69
-10 -3 10 39 22 82 23 20 0 17 -2 -13 -13z m-133 -15 c57 -17 86 -50 86 -100
0 -52 -44 -101 -115 -129 -45 -18 -47 -20 -20 -20 46 -1 92 -34 100 -71 5 -25
1 -45 -22 -88 -25 -49 -37 -61 -92 -89 -97 -51 -204 -44 -230 14 -16 34 -14
47 10 77 26 33 74 36 84 5 4 -13 1 -27 -9 -38 -37 -41 -7 -80 48 -61 44 14 90
69 106 125 17 60 10 86 -29 112 -20 14 -27 23 -18 23 27 0 86 60 98 100 33
110 -71 174 -221 136 -177 -46 -307 -188 -284 -312 9 -50 43 -70 93 -56 38 12
101 66 71 62 -44 -7 -64 28 -34 61 42 46 98 6 69 -50 -27 -54 -80 -85 -149
-89 -60 -4 -64 -3 -89 28 -92 109 76 305 311 365 62 16 172 13 236 -5z m1573
-18 c19 -12 -45 -102 -74 -102 l-24 0 21 28 c24 33 18 62 -14 63 -20 0 -20 1
-1 9 25 11 76 12 92 2z m-1612 -33 c4 -6 -17 -34 -47 -62 -56 -53 -100 -112
-136 -182 -11 -22 -38 -59 -61 -82 -33 -33 -41 -49 -41 -78 0 -82 -149 -298
-268 -387 -148 -112 -397 -126 -466 -26 -23 33 -21 109 4 141 28 35 84 46 110
22 48 -43 -7 -127 -67 -104 -35 13 -30 -16 10 -56 45 -45 105 -61 177 -46 171
35 293 156 430 431 29 58 66 120 81 138 16 18 31 45 35 60 9 44 24 68 78 128
53 60 120 114 142 114 7 0 16 -5 19 -11z m382 -25 c10 -26 -11 -49 -43 -49
-34 0 -43 24 -19 49 21 21 54 21 62 0z m1057 4 c-4 -7 -16 -25 -26 -40 -10
-14 -18 -29 -18 -32 0 -3 19 -7 43 -7 43 -1 40 -3 -26 -14 -33 -5 -43 -15 -97
-94 -69 -103 -83 -141 -52 -141 11 0 42 16 69 36 36 28 42 30 24 10 -26 -28
-97 -66 -123 -66 -24 0 -50 30 -45 51 7 26 1 24 -46 -16 -39 -34 -95 -53 -116
-40 -6 3 -11 20 -11 37 l0 32 -27 -26 c-67 -62 -144 -76 -153 -26 l-5 27 -58
-36 c-74 -47 -153 -57 -186 -24 -11 11 -21 30 -21 42 0 19 -4 18 -49 -15 -90
-67 -202 -87 -254 -46 l-26 20 -37 -25 c-27 -18 -49 -25 -74 -23 -30 3 -35 7
-38 32 -3 22 10 49 52 111 77 114 99 135 136 135 36 0 36 0 -25 -80 -94 -123
-130 -198 -87 -183 37 13 73 46 86 78 23 55 86 73 86 25 0 -13 -10 -24 -25
-30 -52 -20 -39 -70 18 -70 37 0 77 35 77 67 0 13 -12 41 -26 63 -21 32 -24
44 -17 66 13 40 54 66 110 71 40 4 51 2 68 -17 18 -20 18 -24 4 -48 -8 -15
-24 -28 -36 -30 -20 -3 -22 1 -20 40 2 34 -2 43 -16 46 -46 9 -61 -49 -27
-106 24 -40 26 -89 3 -114 -35 -39 22 -11 83 42 16 14 42 46 57 72 15 26 42
58 60 72 97 74 217 89 217 28 0 -33 -27 -62 -57 -62 -20 0 -22 3 -13 19 5 11
10 31 10 45 0 43 -36 33 -95 -26 -60 -60 -85 -123 -66 -165 17 -37 75 -32 145
14 44 29 68 56 111 124 50 78 58 87 92 92 20 4 38 5 40 3 1 -1 -29 -47 -67
-100 -65 -91 -87 -146 -59 -146 40 0 119 79 193 191 28 43 45 58 68 63 17 3
33 4 35 2 2 -2 -28 -52 -66 -111 -39 -59 -71 -113 -71 -121 0 -52 114 39 191
152 l49 73 -28 4 c-26 4 -26 4 4 6 27 1 37 9 64 51 28 44 36 50 67 50 24 0 32
-4 27 -12z m314 -10 c0 -13 3 -36 6 -53 6 -28 5 -28 -5 -8 -7 13 -27 28 -45
35 l-34 12 28 18 c36 24 50 23 50 -4z m-70 -78 c5 -32 -31 -65 -104 -94 -86
-35 -101 -33 -36 5 45 26 92 77 92 102 0 4 -11 7 -24 7 -36 0 -122 -98 -131
-149 -12 -73 13 -99 77 -81 39 12 71 33 133 89 l50 45 -50 -52 c-66 -69 -123
-102 -191 -109 -62 -7 -94 12 -94 54 0 12 -4 23 -10 23 -19 0 67 111 110 142
48 35 125 59 155 48 11 -4 21 -17 23 -30z m82 -252 c-7 -29 -18 -63 -26 -75
-8 -12 -14 -27 -14 -33 0 -5 -11 -34 -25 -63 l-24 -52 43 48 43 48 -5 -52 c-4
-41 -13 -64 -43 -103 -22 -28 -46 -65 -54 -82 -24 -51 -222 -243 -271 -265
-24 -10 -44 -23 -44 -29 0 -5 -15 -18 -34 -27 -169 -87 -264 -129 -324 -143
-28 -6 -55 -16 -58 -21 -3 -5 -13 -9 -22 -9 -9 0 -30 -7 -46 -15 -16 -9 -57
-19 -90 -22 -33 -3 -81 -14 -106 -23 -25 -9 -70 -17 -100 -18 -30 -2 -77 -10
-103 -18 -36 -12 -70 -15 -130 -10 -45 3 -136 7 -202 8 -102 1 -128 5 -171 25
-28 12 -66 26 -85 29 -43 8 -152 59 -169 79 -7 8 -17 15 -22 15 -16 0 -128
112 -144 145 -8 16 -19 50 -24 75 -5 25 -11 52 -14 60 -3 9 7 25 25 39 l30 23
26 -26 c14 -14 54 -40 89 -58 35 -18 59 -35 53 -39 -12 -7 24 -19 56 -19 17 0
17 2 5 10 -11 7 -12 10 -2 10 8 0 26 -9 41 -19 14 -11 49 -21 76 -23 28 -2 60
-9 72 -16 12 -7 34 -12 50 -11 l28 1 -30 10 c-16 6 -39 19 -50 28 -11 10 -37
21 -57 25 -21 4 -38 10 -38 14 0 8 -65 41 -81 41 -6 0 -25 11 -43 25 -18 14
-40 25 -48 25 -8 0 -28 11 -44 25 -34 29 -55 34 -31 7 27 -29 20 -33 -18 -11
-19 12 -32 25 -29 30 3 5 10 7 15 4 5 -4 9 -1 9 4 0 6 16 31 35 57 l35 46 0
-32 c0 -23 5 -33 19 -37 11 -3 21 -17 25 -34 5 -26 9 -29 46 -29 22 0 40 5 40
10 0 7 6 7 18 1 18 -10 136 0 148 12 4 4 13 2 20 -4 8 -7 26 -8 46 -3 35 8 88
13 151 13 44 0 67 15 67 42 0 11 6 19 14 19 24 0 66 62 66 97 0 38 -14 42 -41
11 l-18 -23 -1 33 c0 27 4 32 23 32 28 0 47 17 47 42 0 11 7 18 19 18 14 0 17
-6 13 -25 -4 -22 -1 -25 27 -25 26 0 31 -4 31 -25 0 -28 -12 -32 -30 -10 -19
23 -30 18 -30 -15 0 -19 5 -29 13 -27 16 3 22 -50 6 -69 -14 -17 -65 -19 -73
-1 -3 6 -4 -4 -3 -23 2 -34 4 -35 44 -38 57 -4 81 10 89 56 4 20 10 42 14 47
4 6 11 28 14 51 6 31 3 44 -8 54 -17 13 -21 47 -8 66 4 6 25 20 47 31 l39 21
29 -22 c38 -28 115 -27 182 3 48 21 51 21 88 4 38 -16 41 -16 86 1 49 19 64
21 124 10 27 -4 50 -1 76 10 29 13 43 15 65 7 45 -18 88 -12 142 17 l51 29 27
-24 c32 -27 95 -31 149 -8 20 8 39 15 42 15 14 0 -37 -59 -55 -65 -11 -4 -20
-13 -20 -21 0 -21 -68 -82 -112 -101 -21 -8 -40 -23 -43 -32 -5 -17 -14 -22
-111 -70 -27 -13 -56 -27 -64 -32 -57 -33 -135 -69 -149 -70 -10 0 -11 -2 -3
-6 21 -8 13 -20 -34 -48 -61 -36 -49 -43 20 -11 30 14 59 26 64 26 6 0 42 16
81 35 39 19 76 35 82 35 15 0 119 68 119 78 0 4 9 13 21 20 12 8 18 9 14 3
-13 -22 86 52 102 75 8 13 19 24 23 24 13 0 137 124 150 150 18 37 74 119 79
115 2 -2 -2 -28 -9 -57z m-70 -17 c0 -5 -7 -14 -15 -21 -16 -14 -18 -10 -9 14
6 17 24 22 24 7z m-2127 -49 c39 -4 47 -8 42 -21 -10 -26 -96 -167 -121 -198
l-24 -28 5 115 c6 134 10 154 33 145 10 -4 39 -10 65 -13z m2072 -36 c-9 -13
-25 -26 -37 -29 -18 -5 -17 -2 8 24 34 35 51 38 29 5z m-55 -49 c0 -2 -10 -12
-22 -23 l-23 -19 19 23 c18 21 26 27 26 19z m-1473 -36 c4 -16 11 -18 39 -14
40 7 64 -9 64 -43 0 -21 4 -23 25 -18 21 5 25 3 25 -14 0 -24 -16 -37 -25 -22
-13 21 -24 8 -31 -35 -4 -31 -11 -45 -22 -45 -13 0 -14 11 -9 74 6 63 4 75 -9
80 -26 10 -44 -13 -44 -54 0 -60 -11 -100 -28 -100 -12 0 -14 12 -10 70 3 39
1 70 -3 70 -5 0 -9 16 -9 35 0 25 4 35 16 35 9 0 18 -9 21 -19z m-130 -7 c3
-8 16 -20 29 -25 26 -9 29 -25 18 -116 -5 -40 -11 -53 -24 -53 -14 0 -16 9
-12 60 5 73 0 90 -27 83 -16 -4 -21 -16 -26 -62 -9 -77 -14 -91 -32 -91 -24 0
-8 139 19 162 13 12 17 24 13 38 -5 16 -2 20 15 20 11 0 23 -7 27 -16z m-107
-38 c0 -23 -3 -71 -6 -105 -6 -51 -10 -61 -26 -61 -20 0 -20 6 -3 141 4 27 1
39 -10 43 -36 13 -54 -15 -55 -84 0 -62 -12 -110 -26 -110 -10 0 -14 14 -14
50 0 51 -11 64 -29 33 -12 -23 -25 -11 -16 16 4 14 15 21 31 21 21 0 24 4 24
40 0 47 16 59 83 60 l47 0 0 -44z"/>
<path d="M2300 1648 c0 -19 2 -20 10 -8 13 19 13 30 0 30 -5 0 -10 -10 -10
-22z"/>
<path d="M3261 1510 c-19 -5 -39 -16 -44 -26 -20 -36 -58 -66 -74 -59 -49 18
-105 17 -173 -5 -39 -13 -69 -24 -68 -25 2 -2 42 1 90 7 94 11 127 6 111 -15
-13 -16 -23 -57 -15 -57 4 0 13 14 20 30 8 18 21 30 32 30 32 0 49 11 71 47
25 41 71 63 128 63 22 0 43 5 46 10 7 12 -74 12 -124 0z"/>
<path d="M2850 1491 c-20 -5 -22 -9 -10 -16 20 -12 -99 -45 -122 -34 -24 13
-45 11 -81 -5 -50 -22 -131 -36 -215 -36 -42 0 -93 -4 -112 -10 -57 -15 -188
-20 -243 -8 -29 6 -70 12 -92 13 -22 1 -58 8 -79 14 -91 25 -21 -18 79 -48 22
-7 54 -17 70 -23 52 -17 127 -30 143 -23 9 3 71 8 137 11 66 3 134 9 150 14
17 5 53 12 80 16 76 10 303 83 348 111 43 27 45 39 3 23 -18 -6 -25 -6 -21 0
7 11 2 11 -35 1z m-723 -137 c-3 -3 -12 -4 -19 -1 -8 3 -5 6 6 6 11 1 17 -2
13 -5z m256 -1 c-7 -2 -19 -2 -25 0 -7 3 -2 5 12 5 14 0 19 -2 13 -5z"/>
<path d="M1567 1362 c6 -24 54 -47 128 -62 33 -6 89 -20 124 -31 35 -10 75
-19 90 -19 60 1 -102 58 -209 74 -24 4 -49 11 -55 16 -6 5 -28 16 -47 24 -34
14 -36 14 -31 -2z"/>
<path d="M1930 1356 c0 -2 9 -6 20 -9 11 -3 18 -1 14 4 -5 9 -34 13 -34 5z"/>
<path d="M1720 1255 c0 -11 101 -55 127 -55 l27 0 -23 16 c-12 9 -46 22 -74
30 -60 16 -57 15 -57 9z"/>
<path d="M1667 1229 c18 -11 38 -19 45 -16 7 2 -1 11 -19 20 -45 24 -64 21
-26 -4z"/>
<path d="M1948 1238 c6 -6 43 -13 82 -16 39 -2 73 -9 76 -13 3 -5 21 -9 40 -9
64 0 25 18 -54 25 -42 4 -94 11 -116 15 -27 6 -35 5 -28 -2z"/>
<path d="M2026 1175 c-12 -9 -46 -16 -85 -17 -41 -1 -53 -3 -31 -6 53 -6 249
9 225 18 -47 17 -90 19 -109 5z"/>
<path d="M2734 1165 c-24 -17 -44 -19 -137 -9 -59 6 -71 4 -90 -13 -12 -11
-55 -32 -96 -48 -70 -28 -86 -49 -19 -26 17 6 39 11 49 11 10 0 40 13 67 30
45 27 53 29 114 23 79 -7 114 0 128 27 13 23 12 24 -16 5z"/>
<path d="M2333 1115 c-23 -12 -39 -25 -36 -28 8 -8 70 18 89 38 23 23 -3 18
-53 -10z"/>
<path d="M2536 1086 l-29 -24 44 8 c92 18 126 28 98 29 -15 1 -39 3 -55 6 -21
4 -37 -1 -58 -19z"/>
<path d="M2335 1030 l-20 -9 20 0 c11 0 27 4 35 9 13 9 13 10 0 9 -8 0 -24 -4
-35 -9z"/>
<path d="M3226 2674 c15 -102 49 -144 116 -144 31 0 42 6 65 36 67 87 95 114
122 114 15 0 32 -5 39 -12 9 -9 12 -8 12 4 0 8 -8 22 -17 29 -9 8 -14 9 -11 4
4 -7 -40 -10 -128 -10 -75 0 -125 -3 -112 -7 13 -3 57 -6 98 -7 l75 -1 -30
-20 c-56 -37 -175 -17 -175 30 0 11 -6 20 -14 20 -8 0 -22 3 -31 6 -15 6 -16
1 -9 -42z m124 -58 c0 -2 -9 -6 -20 -9 -11 -3 -18 -1 -14 4 5 9 34 13 34 5z
m40 -6 c-8 -5 -19 -10 -25 -10 -5 0 -3 5 5 10 8 5 20 10 25 10 6 0 3 -5 -5
-10z"/>
</g>
</svg>
