<?xml version="1.0" ?>
<!DOCTYPE svg  PUBLIC '-//W3C//DTD SVG 1.1//EN'  'http://www.w3.org/Graphics/SVG/1.1/DTD/svg11.dtd'>
<!-- Uploaded to: SVG Repo, www.svgrepo.com, Generator: SVG Repo Mixer Tools -->
<svg fill="#000000" width="800px" height="800px" viewBox="0 0 64 64" style="fill-rule:evenodd;clip-rule:evenodd;stroke-linejoin:round;stroke-miterlimit:2;" version="1.1" xml:space="preserve" xmlns="http://www.w3.org/2000/svg" xmlns:serif="http://www.serif.com/" xmlns:xlink="http://www.w3.org/1999/xlink">
<g transform="matrix(1,0,0,1,0,-96)">
<g id="Icon">
<path d="M28.379,105.075C28.058,105.423 28.025,105.948 28.299,106.333L48.442,134.658C48.717,135.043 49.224,135.184 49.657,134.995C56.288,132.101 60.927,125.484 60.927,117.792C60.927,107.438 52.521,99.032 42.167,99.032C38.128,99.032 34.386,100.311 31.323,102.486C30.253,103.245 29.267,104.114 28.379,105.075Z" style="fill:rgb(248,172,58);"/>
<path d="M40.668,99.091C50.324,99.856 57.931,107.943 57.931,117.792C57.931,124.891 53.98,131.074 48.159,134.26L48.442,134.658C48.717,135.043 49.224,135.184 49.657,134.995C56.288,132.101 60.927,125.484 60.927,117.792C60.927,107.438 52.521,99.032 42.167,99.032C41.662,99.032 41.162,99.052 40.668,99.091Z" style="fill:rgb(243,148,4);"/>
<path d="M13.824,138.906C14.132,139.052 14.494,139.032 14.783,138.852L40.165,123.055C40.454,122.875 40.632,122.56 40.637,122.219C40.638,122.133 40.638,122.047 40.638,121.96C40.638,111.606 32.232,103.2 21.878,103.2C11.524,103.2 3.118,111.606 3.118,121.96C3.118,129.432 7.496,135.89 13.824,138.906Z" style="fill:rgb(248,172,58);"/>
<path d="M20.127,103.281C29.66,104.165 37.135,112.196 37.135,121.96C37.135,122.047 37.135,122.133 37.133,122.219C37.129,122.56 36.951,122.875 36.662,123.055L12.404,138.152C12.865,138.423 13.339,138.674 13.824,138.906C14.132,139.052 14.494,139.032 14.783,138.852L40.165,123.055C40.454,122.875 40.632,122.56 40.637,122.219C40.638,122.133 40.638,122.047 40.638,121.96C40.638,111.606 32.232,103.2 21.878,103.2C21.288,103.2 20.704,103.227 20.127,103.281Z" style="fill:rgb(243,148,4);"/>
<path d="M44.044,152.603C44.287,152.4 44.419,152.094 44.4,151.778C44.382,151.463 44.215,151.174 43.951,151.001C42.988,150.369 42.352,149.281 42.352,148.045C42.352,146.095 43.935,144.512 45.884,144.512C46.004,144.512 46.122,144.518 46.239,144.53C46.549,144.561 46.856,144.445 47.069,144.218C47.282,143.99 47.376,143.676 47.324,143.368C47.292,143.176 47.275,142.977 47.275,142.775C47.275,141.106 48.435,139.705 49.993,139.337C50.441,139.232 50.759,138.833 50.763,138.373C50.764,138.322 50.764,138.272 50.764,138.221C50.764,127.867 42.358,119.461 32.004,119.461C21.65,119.461 13.244,127.867 13.244,138.221C13.244,148.575 21.65,156.981 32.004,156.981C36.586,156.981 40.786,155.335 44.044,152.603Z" style="fill:rgb(248,172,58);"/>
<path d="M17.552,126.264C20.8,123.573 24.967,121.955 29.509,121.955C39.733,121.955 48.057,130.151 48.265,140.323C48.727,139.844 49.323,139.495 49.993,139.337C50.441,139.232 50.759,138.833 50.763,138.373C50.764,138.322 50.764,138.272 50.764,138.221C50.764,127.867 42.358,119.461 32.004,119.461C26.192,119.461 20.994,122.109 17.552,126.264Z" style="fill:rgb(243,148,4);"/>
<g transform="matrix(1.81357,0,0,1.67866,-23.1963,-61.585)">
<path d="M27.588,120.404C26.502,120.404 25.625,121.346 25.625,122.5C25.625,123.654 26.502,124.596 27.588,124.596C28.674,124.596 29.551,123.654 29.551,122.5C29.551,121.346 28.674,120.404 27.588,120.404ZM27.588,121.596C28.06,121.596 28.449,121.998 28.449,122.5C28.449,123.002 28.06,123.404 27.588,123.404C27.116,123.404 26.727,123.002 26.727,122.5C26.727,121.998 27.116,121.596 27.588,121.596Z" style="fill:rgb(99,48,1);"/>
</g>
<g transform="matrix(1.81357,0,0,1.67866,-28.8854,-94.8651)">
<path d="M27.588,120.404C26.502,120.404 25.625,121.346 25.625,122.5C25.625,123.654 26.502,124.596 27.588,124.596C28.674,124.596 29.551,123.654 29.551,122.5C29.551,121.346 28.674,120.404 27.588,120.404ZM27.588,121.596C28.06,121.596 28.449,121.998 28.449,122.5C28.449,123.002 28.06,123.404 27.588,123.404C27.116,123.404 26.727,123.002 26.727,122.5C26.727,121.998 27.116,121.596 27.588,121.596Z" style="fill:rgb(99,48,1);"/>
</g>
<g transform="matrix(1.81357,0,0,1.67866,-22.2523,-75.1146)">
<path d="M27.588,120.404C26.502,120.404 25.625,121.346 25.625,122.5C25.625,123.654 26.502,124.596 27.588,124.596C28.674,124.596 29.551,123.654 29.551,122.5C29.551,121.346 28.674,120.404 27.588,120.404ZM27.588,121.596C28.06,121.596 28.449,121.998 28.449,122.5C28.449,123.002 28.06,123.404 27.588,123.404C27.116,123.404 26.727,123.002 26.727,122.5C26.727,121.998 27.116,121.596 27.588,121.596Z" style="fill:rgb(99,48,1);"/>
</g>
<g transform="matrix(1.81357,0,0,1.67866,-12.244,-67.465)">
<path d="M27.588,120.404C26.502,120.404 25.625,121.346 25.625,122.5C25.625,123.654 26.502,124.596 27.588,124.596C28.674,124.596 29.551,123.654 29.551,122.5C29.551,121.346 28.674,120.404 27.588,120.404ZM27.588,121.596C28.06,121.596 28.449,121.998 28.449,122.5C28.449,123.002 28.06,123.404 27.588,123.404C27.116,123.404 26.727,123.002 26.727,122.5C26.727,121.998 27.116,121.596 27.588,121.596Z" style="fill:rgb(99,48,1);"/>
</g>
<g transform="matrix(1.81357,0,0,1.67866,-37.9994,-82.461)">
<path d="M27.588,120.404C26.502,120.404 25.625,121.346 25.625,122.5C25.625,123.654 26.502,124.596 27.588,124.596C28.674,124.596 29.551,123.654 29.551,122.5C29.551,121.346 28.674,120.404 27.588,120.404ZM27.588,121.596C28.06,121.596 28.449,121.998 28.449,122.5C28.449,123.002 28.06,123.404 27.588,123.404C27.116,123.404 26.727,123.002 26.727,122.5C26.727,121.998 27.116,121.596 27.588,121.596Z" style="fill:rgb(99,48,1);"/>
</g>
<g transform="matrix(1.25,0,0,1.22913,-33.335,-33.0438)">
<circle cx="35.75" cy="121" r="1" style="fill:rgb(99,48,1);"/>
</g>
<g transform="matrix(1.25,0,0,1.22913,-13.8137,-33.3541)">
<circle cx="35.75" cy="121" r="1" style="fill:rgb(99,48,1);"/>
</g>
<g transform="matrix(1.25,0,0,1.22913,-25.4972,-29.9901)">
<circle cx="35.75" cy="121" r="1" style="fill:rgb(99,48,1);"/>
</g>
<g transform="matrix(1.25,0,0,1.22913,-22.2293,-11.7332)">
<circle cx="35.75" cy="121" r="1" style="fill:rgb(99,48,1);"/>
</g>
<g transform="matrix(1.25,0,0,1.22913,-10.2996,-2.05985)">
<circle cx="35.75" cy="121" r="1" style="fill:rgb(99,48,1);"/>
</g>
<g transform="matrix(-1.75178,0.461551,-0.441846,-1.62146,148.545,295.243)">
<path d="M27.593,120.405C26.504,120.405 25.624,121.348 25.624,122.505C25.624,123.656 26.5,124.595 27.583,124.595C28.672,124.595 29.552,123.652 29.552,122.495C29.552,121.344 28.676,120.405 27.593,120.405ZM27.583,121.595C28.058,121.595 28.448,122 28.448,122.505C28.448,123.004 28.063,123.405 27.593,123.405C27.118,123.405 26.728,123 26.728,122.495C26.728,121.996 27.114,121.595 27.583,121.595Z" style="fill:rgb(99,48,1);"/>
</g>
<g transform="matrix(-1.75178,0.461551,-0.441846,-1.62146,154.302,308.577)">
<path d="M27.593,120.405C26.504,120.405 25.624,121.348 25.624,122.505C25.624,123.656 26.5,124.595 27.583,124.595C28.672,124.595 29.552,123.652 29.552,122.495C29.552,121.344 28.676,120.405 27.593,120.405ZM27.583,121.595C28.058,121.595 28.448,122 28.448,122.505C28.448,123.004 28.063,123.405 27.593,123.405C27.118,123.405 26.728,123 26.728,122.495C26.728,121.996 27.114,121.595 27.583,121.595Z" style="fill:rgb(99,48,1);"/>
</g>
<g transform="matrix(1.25,0,0,1.22913,-5.92615,-18.9445)">
<circle cx="35.75" cy="121" r="1" style="fill:rgb(99,48,1);"/>
</g>
<g transform="matrix(-1.20741,0.318123,-0.323524,-1.18725,126.476,248.884)">
<circle cx="35.75" cy="121" r="1" style="fill:rgb(99,48,1);"/>
</g>
<g transform="matrix(-1.20741,0.318123,-0.323524,-1.18725,135.619,246.161)">
<circle cx="35.75" cy="121" r="1" style="fill:rgb(99,48,1);"/>
</g>
<g transform="matrix(-1.20741,0.318123,-0.323524,-1.18725,122.296,237.884)">
<circle cx="35.75" cy="121" r="1" style="fill:rgb(99,48,1);"/>
</g>
</g>
</g>
</svg>