<?xml version="1.0" encoding="utf-8"?>
<!-- Uploaded to: SVG Repo, www.svgrepo.com, Generator: SVG Repo Mixer Tools -->
<svg width="800px" height="800px" viewBox="0 -17.35 354.891 354.891" xmlns="http://www.w3.org/2000/svg"><defs><style>.a{fill:#ffffff;}.b{fill:#211715;}.c{fill:#febe69;}.d{fill:#85807f;}.e{fill:#7abee6;}</style></defs><path class="a" d="M298.3,94.946a6.337,6.337,0,0,1,4.59-1.66,5.883,5.883,0,0,1,5.273,2.956c1.784,3.122,1.685,8.86.466,12.406-.863,2.511-2.277,6.352-5.658,9.1a6.987,6.987,0,0,1-5.395,1.534l-.516-.089a41.174,41.174,0,0,1-1.874,5.024c-1.323,3.548-8.341,15.587-17.338,21.054.049-.569.1-.088.151.216.525,3.182,1.109,6.451,2.788,9.195,2.816,4.568,12.323,8.159,19.382,11.078l-9.249,4.743c-5.959,3.284-11.826,6.1-29.19,6.487-14.676.324-23.919-1.7-37.46-8.109l-8.693-5.077c8.523-3.048,17.071-5.219,21.171-7.969a3.859,3.859,0,0,0,1.313-1.007,3.028,3.028,0,0,0,.325-1.056q.663-3.714,1.322-7.421c-4.548-2.1-8.607-5.528-12.461-10.177a48.235,48.235,0,0,1-9.081-17.3,6.861,6.861,0,0,1-5.824-1.484c-3.361-2.772-4.744-6.624-5.588-9.142-1.192-3.555-1.245-9.294.563-12.4a5.882,5.882,0,0,1,5.3-2.916,6.341,6.341,0,0,1,4.577,1.7s-10.9-34.83,40.524-34.83S298.3,94.946,298.3,94.946Z"/><path class="a" d="M150.965,71.926a6.682,6.682,0,0,1,4.883-1.612,6.2,6.2,0,0,1,5.466,3.271c1.786,3.34,1.511,9.38.122,13.078-.984,2.619-2.587,6.622-6.23,9.413a7.357,7.357,0,0,1-5.726,1.455l-.542-.109a43.175,43.175,0,0,1-2.122,5.236c-1.018,2.512-4.922,9.073-10.342,14.743-8.774,5.407-12.182,16.54-12.2,26.377-.047,1.679-.134,3.356-.236,5.007C105.776,155.122,87,151.7,72,138.352c3.967-1.513,8.749-3.359,8.909-3.405,3.015-1.124,4.047-3.6,4.655-6.26a44.643,44.643,0,0,0,.892-5.045,39.416,39.416,0,0,1-11.541-10.413,50.8,50.8,0,0,1-9.049-18.485,7.221,7.221,0,0,1-6.09-1.735c-3.456-3.018-4.8-7.116-5.612-9.793-1.15-3.779-1.035-9.825.961-13.043a6.2,6.2,0,0,1,5.664-2.913,6.682,6.682,0,0,1,4.77,1.921s-15.067-40,43.377-40S150.965,71.926,150.965,71.926Z"/><path class="b" d="M147.531,93.675a41.085,41.085,0,0,1-1.67,5.211c-.237.615-.484,1.225-.76,1.823-.115.248-.245.489-.358.738-.74,1.628.171-.293-.2.455a48.437,48.437,0,0,1-2.957,5.177,52.041,52.041,0,0,1-11.66,13.041,21.563,21.563,0,0,1-8.818,4.252A2.4,2.4,0,0,0,122.388,129c6.569-1.3,12.163-5.934,16.576-10.749a58.2,58.2,0,0,0,9.48-13.4c.095-.194.187-.388.275-.585a6.662,6.662,0,0,0,.315-.721c-.18.355.062-.1.1-.177.1-.2.19-.409.282-.615.212-.477.414-.959.613-1.441a42.844,42.844,0,0,0,2.128-6.359c.72-3-3.907-4.284-4.628-1.276Z"/><path class="a" d="M131.643,121.49c-5.222,5.929-7.354,14.513-7.369,22.288-.114,4.037-.456,8.056-.687,11.755-.375,6.1.649,11.859,4.653,16.074,4.244,4.469,8.665,7.318,14.7,5.061,3.641-2.389,9.218-3.543,13.732-4.221a26.572,26.572,0,0,1,18.762,4.331c6.374-3.884,10.73-9,12.914-14.313a50.1,50.1,0,0,0,3.027-21.316c-1.433-20.512-20.241-28.961-38.989-28.148a33.55,33.55,0,0,0-15.58,4.191A21.326,21.326,0,0,0,131.643,121.49Z"/><path class="a" d="M76.866,313.82c-23.638-2.391-41.821-6.925-49.384-9.326-10.66-3.384-17.56-11.736-21.609-19.946-4.378-8.879-3.735-26.312-2.392-34.7,3.243-20.271,5.311-30.852,9.2-50.818,1.591-8.16,4.582-25.2,11.919-35.046,5.431-7.29,14.266-12.616,24.178-17.07,7.339-3.3,15.27-6.117,22.846-8.9,15.058,13.631,34,17.166,52.412,10.775-.144,2.317-.317,4.588-.452,6.749-.375,6.1.649,11.859,4.653,16.074,3.739,3.937,7.616,6.617,12.615,5.656l1.311-.252c-6.746,3.7-12.752,8.088-17.131,15.814a54.725,54.725,0,0,0-6.308-10.32,11.453,11.453,0,0,0,1.076-7.554c-.416-2.035-1.777-4.2-3.851-4.309-1.662-.085-3.051,1.179-4.227,2.356-3.262-3.831-7.883-7.231-12.874-6.6-5.426.682-9.356,6.335-9.173,11.8.207,6.218,4.8,11.758,10.255,14.549-1.138,7.571,4.213,27.576,6.2,34.322,1.26,4.271,3.088,8.751,6.97,11.232a15.91,15.91,0,0,0,6.852,2.185l-.579,1.856c-9.586.99-16.53,12.357-13.036,21.338l1.59,3.88c.166,3.805.326,7.478.326,7.478.484,11.133-1.5,31.136-2.5,40.347C95.532,315.322,85.809,314.724,76.866,313.82Z"/><path class="a" d="M302.6,306.514c-16.045,0-46.313-.056-75.238-.118-37.007-.08-71.814-.171-71.814-.171,3.044-28.959,11.86-103.35,11.86-103.35l24.356-23.536c4.034-4.566,9.1-8.1,14.23-11.385a50.348,50.348,0,0,1,9.517-4.187l8.755,5.112c13.541,6.406,22.784,8.433,37.46,8.109,17.364-.384,23.231-3.2,29.19-6.487l9.249-4.743a124.141,124.141,0,0,1,21.659,10.394,37.318,37.318,0,0,1,14.112,16.512,108.426,108.426,0,0,1,5.569,16.541c3.34,12.03,6.929,24.031,8.986,36.366,1.833,10.984,3.81,25.015-1.1,35.443-3.122,6.634-8.64,11.745-14.2,16.342C335.187,297.356,316.92,301.477,302.6,306.514Z"/><path class="a" d="M299.055,236.682a5,5,0,0,1,4-1.171,4.724,4.724,0,0,1,3.394,2.257,6.665,6.665,0,0,1,.7,2.684,20.005,20.005,0,0,1-2.039,10.6,12.731,12.731,0,0,1-3.287,4.314,3.874,3.874,0,0,1-4.411.692,33.844,33.844,0,0,1-1.039,3.234c-1.137,2.881-7.5,13.1-15.51,16.84.046.366.115.778.195,1.247.424,2.465,1.112,5.252,4.391,7.063.218.069,4.5,2.1,4.827,2.247l1.27.57-.288.361c-3.591,4.494-12.023,8.327-20.585,8.845a58.679,58.679,0,0,1-15.457-1.053c-5.066-1.053-10.034-3.248-13.56-7.035l-.812-.873,1.943-.815c.355-.149,4.609-2.178,4.85-2.247,3.256-1.811,3.955-4.6,4.379-7.063.035-.149.058-.286.081-.424a31.891,31.891,0,0,1-11.215-8.34,35.983,35.983,0,0,1-7.3-12.635c-2.278,1.186-3.645.675-5-.409a12.706,12.706,0,0,1-3.287-4.314,20,20,0,0,1-2.039-10.6,6.649,6.649,0,0,1,.7-2.684,4.72,4.72,0,0,1,3.393-2.257,5,5,0,0,1,4,1.171s-8.283-30.138,30.138-30.138S299.055,236.682,299.055,236.682Z"/><path class="c" d="M215.826,304.647c-2.486,3.91-4.039,7.837-5.913,13.263H324.492a73.789,73.789,0,0,0-11.772-18.932c-4.134-4.9-12.324-9.254-20.764-12.347-3.066,4.909-12.1,9.279-21.285,9.835a58.679,58.679,0,0,1-15.457-1.053c-5.469-1.137-10.824-3.605-14.372-7.971-7.7,3.028-17.126,7.34-20.748,11.536A48.109,48.109,0,0,0,215.826,304.647Z"/><path class="c" d="M292.832,42.708a82.029,82.029,0,0,0-8.746-6.987,48.875,48.875,0,0,0-6.824-3.526,44.5,44.5,0,0,0-19.527-3.536c-22.361-1.316-43.764,15.424-48.163,36.609-1.195,5.716-.735,14.559-.089,19.2a28.58,28.58,0,0,0,2,7.575l.447.938c.214-.024.44-.04.676-.048a6.4,6.4,0,0,1,4.344,1.482c3.975-4.678,8.559-6.738,16.006-9.81a19.428,19.428,0,0,0,2.207-.968c.635,0,1.084,0,1.084,0a2.1,2.1,0,0,0,.913,2.245,7.917,7.917,0,0,0,3.123.423,20.428,20.428,0,0,0,10.768-2.534h5.954c-.255.841,0,1.832,1.487,2.04a17.714,17.714,0,0,0,11.512-2.939,25,25,0,0,0,6.311-7.3,29.784,29.784,0,0,0,3.493-9.684h3.768c.708,5.723,3.014,11.116,5.483,16.328,1.484,3.134,3.307,6.492,6.536,7.755l2.7,4.974a6.337,6.337,0,0,1,4.59-1.66,7.158,7.158,0,0,1,2.483.507c3.244-8.156,1.582-21.449.228-28.151a41.606,41.606,0,0,0-3.322-9.873A41.165,41.165,0,0,0,292.832,42.708Z"/><path class="d" d="M280.606,195.655c.835-5.859,5.611-8.375,10.892-9.124,5.544-.785,9.442.665,13.875,4.624a14.893,14.893,0,0,1,3.725,5.236,50.539,50.539,0,0,1,2.657,8.824c.893,4.038,1.808,6.612,4.561,9.44-4.911,1.532-9.185,1.832-13.2.151"/><path class="d" d="M233.918,238.047c-.318.128-.446-.407-.361-.739a28.6,28.6,0,0,1,5.039-10.553,19.594,19.594,0,0,1,13.392-7.738,23.639,23.639,0,0,0,7.759,6.926,5.25,5.25,0,0,0,2.047.775s13.128,0,22.825,0a20.877,20.877,0,0,1,2.856,1.046,15.218,15.218,0,0,1,8.441,10.929l.128.708,3.011-2.717a4.922,4.922,0,0,1,3.661-1.195,49.292,49.292,0,0,0,.692-10.7,36.713,36.713,0,0,0-5.285-17.778,34.966,34.966,0,0,0-4.863-6.152c-.74-.748-1.865-1.841-2.631-2.507a43.677,43.677,0,0,0-6.4-4.243,37.627,37.627,0,0,0-5.588-2.506,39.8,39.8,0,0,0-13.248-2.173,37.831,37.831,0,0,0-22.443,6.908,36.065,36.065,0,0,0-15.568,28.451,54.244,54.244,0,0,0,.938,10.883,4.948,4.948,0,0,1,3.016,1.216"/><path class="b" d="M70.3,140.049c11.74,10.369,27.036,15.812,42.707,13.771a59.583,59.583,0,0,0,13.034-3.213,2.466,2.466,0,0,0,1.676-2.953,2.42,2.42,0,0,0-2.952-1.676c-13.346,4.942-28.009,4.683-40.69-2.08a54.227,54.227,0,0,1-10.38-7.243c-2.308-2.038-5.715,1.344-3.395,3.394Z"/><path class="d" d="M59.536,37.948A51.311,51.311,0,0,1,79.557,11.221a50.113,50.113,0,0,1,30.768-8.74,50.378,50.378,0,0,1,28.218,9.286l6.479,5.313c8.025,7.732,15.117,19.614,15.29,36.81a54.431,54.431,0,0,1-2.577,16.761,8.271,8.271,0,0,0-1.887-.337,6.682,6.682,0,0,0-4.883,1.612l-6.6-5.584c-2.01-5.574-6.753-11.813-11.761-16.41a27.424,27.424,0,0,0-7.658-5.167l-8.451-1.315c-5.8,2.228-14.033,7.032-18.643,9.4A1.55,1.55,0,0,1,95.7,51.118a8.181,8.181,0,0,0-.1-2.983c-.261-1.253-1.2-1.811-1.956-1.445-6.452,3.123-15.769,11.436-21.074,16.979l-7.01,5.512a6.682,6.682,0,0,0-4.77-1.921,8.092,8.092,0,0,0-2.093.263,56.391,56.391,0,0,1-1.549-16.948A55.3,55.3,0,0,1,59.536,37.948Z"/><path class="b" d="M67.253,67.484a9.639,9.639,0,0,0-10.677-1.715,9.4,9.4,0,0,0-4.811,6.221C50,78.126,51.387,85.23,54.693,90.62c2.286,3.728,6.034,7.075,10.7,6.609a2.468,2.468,0,0,0,2.4-2.4,2.417,2.417,0,0,0-2.4-2.4c-3.643.364-5.987-2.883-7.425-5.813a20.265,20.265,0,0,1-2.114-7.746c-.132-2.6,0-5.754,1.632-7.92-.341.453.249-.238.327-.312.314-.3-.122.034.3-.25a4.141,4.141,0,0,1,1.732-.669,4.628,4.628,0,0,1,4.01,1.16c2.232,2.135,5.631-1.254,3.394-3.4Z"/><path class="b" d="M152.662,73.623a4.615,4.615,0,0,1,4.112-.749,3.447,3.447,0,0,1,2.095,1.307c1.523,2.23,1.476,5.487,1.164,8.066a20.7,20.7,0,0,1-2.7,7.695c-1.4,2.434-3.993,5.807-7.216,5.275a2.473,2.473,0,0,0-2.953,1.676,2.421,2.421,0,0,0,1.677,2.953c7.877,1.3,12.671-6.26,14.962-12.693,1.908-5.359,2.2-13.89-2.94-17.608a9.6,9.6,0,0,0-11.6.684,2.42,2.42,0,0,0,0,3.394,2.451,2.451,0,0,0,3.394,0Z"/><path class="b" d="M62.805,92.076a53.7,53.7,0,0,0,7.123,18.209c3.7,5.914,8.634,11.467,14.674,15.059a30.158,30.158,0,0,0,10.007,3.746,2.467,2.467,0,0,0,2.952-1.677,2.421,2.421,0,0,0-1.676-2.952c-7.734-1.4-13.74-6.1-18.606-12.089A48.941,48.941,0,0,1,67.434,90.8a2.425,2.425,0,0,0-2.953-1.676,2.45,2.45,0,0,0-1.676,2.952Z"/><path class="b" d="M139.754,9.7a55.338,55.338,0,0,0-51.81-5.728A54.33,54.33,0,0,0,57.912,35.28,57.354,57.354,0,0,0,56.2,67.386c.669,3.014,5.3,1.738,4.629-1.276-3.509-15.8.011-32.722,10.966-44.885a49.922,49.922,0,0,1,65.537-7.386,2.422,2.422,0,0,0,3.284-.861,2.448,2.448,0,0,0-.861-3.283Z"/><path class="b" d="M160.251,70.581a62.667,62.667,0,0,0,2.382-13.191,61.15,61.15,0,0,0-.765-13.267,50.252,50.252,0,0,0-7.858-20.118,52.218,52.218,0,0,0-6.881-8.183c-2.22-2.151-5.618,1.239-3.394,3.394a45.943,45.943,0,0,1,10.15,14.466,51.81,51.81,0,0,1,4.021,21.765A55.209,55.209,0,0,1,155.622,69.3c-.831,2.981,3.8,4.252,4.629,1.277Z"/><path class="b" d="M100.374,106.6a17.625,17.625,0,0,0,8.306,2.2c2.765.089,6.013-.275,8.323-1.959a2.456,2.456,0,0,0,.861-3.283,2.425,2.425,0,0,0-3.283-.861,6.488,6.488,0,0,1-.9.545c-.09.045-.184.081-.272.129-.245.135.544-.2.15-.063-.258.093-.514.187-.777.264q-.454.133-.918.228c-.156.032-.311.061-.468.087-.234.039-.4.047-.068.014a20.248,20.248,0,0,1-2.652.1c-.429-.014-.859-.04-1.286-.08-.033,0-.8-.1-.286-.024q-.267-.039-.532-.087a13.987,13.987,0,0,1-1.882-.468c-.263-.086-.519-.189-.778-.284-.285-.105.505.242.144.057-.107-.055-.22-.1-.329-.155-.318-.157-.627-.329-.934-.505a2.4,2.4,0,1,0-2.423,4.145Z"/><path class="b" d="M108.139,86.985c.286,1.256.552,2.526.727,3.8l-.086-.638c.043.319.083.637.13.955l-.086-.638a2.712,2.712,0,0,1,.015.731l.086-.638a1.375,1.375,0,0,1-.073.26l.242-.573a1.02,1.02,0,0,1-.1.166l.375-.486a.6.6,0,0,1-.089.093l.485-.376a1.806,1.806,0,0,1-.394.207l.574-.242a2.607,2.607,0,0,1-.5.137l.638-.086a2.161,2.161,0,0,1-.545,0l.638.086c-.22-.033-.434-.095-.654-.132a2.6,2.6,0,0,0-1.849.242,2.4,2.4,0,0,0-.861,3.284,2.335,2.335,0,0,0,1.434,1.1c.478.081.926.194,1.418.231a4.472,4.472,0,0,0,2.217-.517,3.089,3.089,0,0,0,1.654-2.053,5.357,5.357,0,0,0-.024-2.216l.086.638a45.8,45.8,0,0,0-.836-4.616,2.42,2.42,0,0,0-2.952-1.676,2.452,2.452,0,0,0-1.676,2.952Z"/><path class="b" d="M86.335,74.145c-.781,2.276-.49,7.577,3.849,8.167,5.756.15,6.267-6.231,4.427-9.3C93.1,70.5,88.474,69.329,86.335,74.145Z"/><path class="b" d="M132.415,75.626c.633,2.321,0,7.593-4.365,7.9-5.754-.22-5.855-6.621-3.821-9.564C125.894,71.555,130.59,70.682,132.415,75.626Z"/><path class="b" d="M123.734,46.838a34.232,34.232,0,0,1,10.713,8.37,37.577,37.577,0,0,1,7.6,11.772A2.465,2.465,0,0,0,145,68.656a2.419,2.419,0,0,0,1.676-2.952A43.418,43.418,0,0,0,138.094,52.1a38.083,38.083,0,0,0-11.937-9.4,2.466,2.466,0,0,0-3.284.861,2.422,2.422,0,0,0,.861,3.284Z"/><path class="b" d="M74.263,65.366A95.554,95.554,0,0,1,91.706,50.537c.683-.432,1.378-.847,2.089-1.232a5.307,5.307,0,0,0,.534-.282c.332-.235.237.049.021-.088-.1-.063-1.607.558-1.046-.257-.083.121.048.4.06.536.075.863-.119,1.715-.042,2.57a3.954,3.954,0,0,0,1.635,2.875c1.948,1.391,3.8.442,5.646-.542,1.595-.85,3.18-1.718,4.771-2.576a106.066,106.066,0,0,1,11.758-5.776,2.473,2.473,0,0,0,1.676-2.953,2.419,2.419,0,0,0-2.953-1.676,103.523,103.523,0,0,0-11.033,5.257c-1.742.927-3.473,1.873-5.21,2.81-.7.377-1.4.753-2.1,1.122-.555.292-.866.211-.119.448s.708.635.773-.314c.148-2.137-.336-4.739-2.376-5.852-1.928-1.052-3.858.2-5.517,1.178a73.949,73.949,0,0,0-9.753,7.171,124.451,124.451,0,0,0-9.653,9.016c-2.14,2.229,1.25,5.628,3.4,3.394Z"/><path class="b" d="M72.635,140.666q3.219-1.228,6.434-2.464a34.252,34.252,0,0,0,3.95-1.59c4.513-2.423,5.252-8.2,5.813-12.764a2.4,2.4,0,0,0-2.4-2.4,2.473,2.473,0,0,0-2.4,2.4q-.057.458-.02.174-.038.267-.08.534c-.041.265-.086.531-.133.8-.111.626-.236,1.249-.37,1.871a20.8,20.8,0,0,1-.71,2.679c-.042.119-.087.237-.133.354q.183-.423.018-.054c-.085.167-.163.336-.253.5-.105.191-.226.371-.339.557-.308.508.184-.143-.134.182-.133.136-.255.28-.393.411-.093.089-.189.175-.287.257.232-.17.236-.176.015-.016-.175.109-.343.224-.523.325a4.783,4.783,0,0,0-.5.251c.2-.075-.093.026-.139.043-.21.074-.418.157-.626.237q-1.046.4-2.09.8-2.986,1.146-5.976,2.289a2.456,2.456,0,0,0-1.676,2.952,2.427,2.427,0,0,0,2.952,1.676Z"/><path class="b" d="M70.492,135.877c-9.936,3.645-20.009,7.159-29.4,12.1-8.338,4.387-16.242,10.139-20.949,18.489-4.528,8.033-6.822,17.242-8.655,26.21-1.957,9.57-3.772,19.176-5.555,28.78-1.889,10.167-3.918,20.4-5.175,30.667-1.073,8.768-1.163,18.058.71,26.723,1.911,8.847,7.726,17.043,14.859,22.494,5.81,4.44,12.756,6.3,19.729,8.014A299.8,299.8,0,0,0,94.386,317.5q4.574.2,9.152.265c3.09.044,3.091-4.756,0-4.8a301.7,301.7,0,0,1-60.658-6.944c-3.142-.694-6.273-1.445-9.381-2.278A60.743,60.743,0,0,1,25.68,301.3C17.606,297.9,10.971,290.527,7.6,282.6a38.634,38.634,0,0,1-2.458-11.794,94.16,94.16,0,0,1-.071-13.247,118.905,118.905,0,0,1,1.634-12.707q1.265-7.716,2.635-15.415c1.8-10.093,3.791-20.153,5.743-30.218,1.58-8.151,3.24-16.334,6.27-24.094a38.968,38.968,0,0,1,6.1-10.9,43.872,43.872,0,0,1,9.978-8.567C45.8,150.25,55.2,146.624,64.5,143.174c2.419-.9,4.844-1.78,7.267-2.668a2.465,2.465,0,0,0,1.676-2.953,2.421,2.421,0,0,0-2.952-1.676Z"/><path class="b" d="M52.812,209.951c-1.5,11.98-3.646,24.436-5.663,36.558q-.813,4.89-1.636,9.779a2.473,2.473,0,0,0,1.677,2.953,2.42,2.42,0,0,0,2.952-1.676c2.128-12.684,4.272-25.367,6.153-38.09.469-3.171.918-6.344,1.317-9.524a2.413,2.413,0,0,0-2.4-2.4,2.46,2.46,0,0,0-2.4,2.4Z"/><path class="b" d="M249.7,276.945c0,.044.125-.709.049-.419-.023.089-.036.182-.054.273-.021.112-.039.225-.06.338q-.074.4-.162.8a12.562,12.562,0,0,1-.449,1.559c-.035.095-.233.585-.061.17.163-.395-.016.02-.06.11a7.83,7.83,0,0,1-.432.776c-.082.129-.171.252-.256.378-.232.343.326-.38.047-.064a9.559,9.559,0,0,1-.675.7c-.127.116-.26.223-.391.335-.194.166.188-.145.185-.144a1.122,1.122,0,0,0-.191.135c-.153.106-.325.193-.473.3-.325.248.239-.06.246-.06a4.383,4.383,0,0,0-1.123.485c-.771.353-1.538.716-2.306,1.077-.65.306-1.295.63-1.955.913a2.391,2.391,0,0,0-1.1,1.434,2.449,2.449,0,0,0,.242,1.85,2.425,2.425,0,0,0,1.434,1.1,2.818,2.818,0,0,0,1.849-.242c1.418-.607,2.795-1.317,4.2-1.96l.4-.18c.432-.2-.61.278-.322.136a9.89,9.89,0,0,0,1.341-.716,13.241,13.241,0,0,0,1.26-.98,10.262,10.262,0,0,0,2.622-3.89,12.1,12.1,0,0,0,.58-1.844,11.334,11.334,0,0,0,.425-2.384,2.4,2.4,0,0,0-4.8,0Z"/><path class="b" d="M278.461,276.131c.4,3.025,1.014,5.991,3.128,8.326a10.535,10.535,0,0,0,1.974,1.649,5.368,5.368,0,0,0,1.259.656c.163.055-.729-.322-.457-.193.059.028.119.053.179.08.792.357,1.577.731,2.363,1.1.719.338,1.433.685,2.156,1.013a2.462,2.462,0,0,0,3.284-.861,2.429,2.429,0,0,0-.861-3.284c-1.376-.623-2.733-1.29-4.1-1.923-.218-.1-.437-.2-.658-.3s-.412-.192-.626-.264c.025.009.541.289.328.1a2.037,2.037,0,0,0-.225-.136c-.144-.09-.283-.187-.424-.282-.053-.036-.28-.212-.019-.008s-.015-.018-.067-.063a7.623,7.623,0,0,1-.707-.685c-.1-.106-.179-.233-.282-.331-.006-.005.29.417.161.2-.048-.078-.109-.152-.16-.228a7.882,7.882,0,0,1-.449-.762c-.062-.119-.116-.24-.175-.36-.17-.346.19.515.014.027a14.269,14.269,0,0,1-.514-1.781c-.061-.282-.116-.566-.167-.85q-.055-.314-.107-.629c-.028-.168-.137-.932-.044-.222a2.636,2.636,0,0,0-.7-1.7,2.434,2.434,0,0,0-1.7-.7c-1.16.052-2.575,1.066-2.4,2.4Z"/><path class="b" d="M283.531,193.942c2.521-5.17,10.488-6.425,15.395-4.292a16.1,16.1,0,0,1,7.355,6.413c1.788,3.115,2.487,6.926,3.289,10.385a20.39,20.39,0,0,0,5.046,9.9l1.059-4.011c-4,1.224-7.955,1.75-11.921.149a2.416,2.416,0,0,0-2.952,1.676,2.46,2.46,0,0,0,1.676,2.953c4.681,1.889,9.759,1.295,14.473-.149a2.428,2.428,0,0,0,1.059-4.012c-2.475-2.587-3.329-5.634-4.095-9.051-.889-3.966-2-8.373-4.428-11.694a21.6,21.6,0,0,0-9.191-7.156,18.74,18.74,0,0,0-11.073-.541c-4.071.905-7.957,3.15-9.837,7.006a2.463,2.463,0,0,0,.861,3.284,2.422,2.422,0,0,0,3.284-.861Z"/><path class="b" d="M300.752,238.379a2.5,2.5,0,0,1,3.624.6,6.342,6.342,0,0,1,.438,2.742,16.628,16.628,0,0,1-.236,3.335,17.665,17.665,0,0,1-2.367,6.262,8.665,8.665,0,0,1-1.84,2.16,1.611,1.611,0,0,1-1.755.473c-2.987-.8-4.262,3.832-1.276,4.628,3.709.99,6.616-1.386,8.639-4.271a21.489,21.489,0,0,0,3.481-9.691c.394-3.236.373-7.32-2.242-9.673a7.463,7.463,0,0,0-9.86.041,2.418,2.418,0,0,0,0,3.394,2.452,2.452,0,0,0,3.394,0Z"/><path class="b" d="M233.034,235.19a7.466,7.466,0,0,0-9.86-.041c-2.614,2.351-2.636,6.439-2.242,9.673a21.477,21.477,0,0,0,3.481,9.691c2.024,2.887,4.926,5.261,8.638,4.271,2.982-.8,1.717-5.426-1.276-4.628a1.6,1.6,0,0,1-1.755-.473,8.76,8.76,0,0,1-1.839-2.16,17.66,17.66,0,0,1-2.368-6.262,16.41,16.41,0,0,1-.239-3.154,6.6,6.6,0,0,1,.442-2.923,2.5,2.5,0,0,1,3.624-.6,2.466,2.466,0,0,0,3.394,0,2.42,2.42,0,0,0,0-3.394Z"/><path class="b" d="M295.448,253.618a19.82,19.82,0,0,1-.686,2.982,14.572,14.572,0,0,0-.7,2.054c-.052.366.28-.534.063-.155-.09.157-.156.334-.236.5-.174.348-.359.691-.549,1.031a41.869,41.869,0,0,1-3.609,5.38c-3.338,4.18-7.563,8.394-12.831,9.546-3.016.659-1.739,5.287,1.277,4.628,6.118-1.337,11.161-6.02,14.948-10.78,3.277-4.119,6.173-8.6,6.957-13.906a2.48,2.48,0,0,0-1.676-2.953,2.419,2.419,0,0,0-2.953,1.677Z"/><path class="b" d="M230.542,254.167a38.963,38.963,0,0,0,9.5,17.082c4.518,4.738,10.351,8.589,16.935,9.523a2.482,2.482,0,0,0,2.953-1.676,2.418,2.418,0,0,0-1.677-2.953c-11.571-1.64-20.29-12.45-23.087-23.252-.774-2.988-5.405-1.722-4.629,1.276Z"/><path class="b" d="M305.074,235.866c1.695-10.389.659-21.4-5.112-30.438a40.294,40.294,0,0,0-24.254-17.2,43.056,43.056,0,0,0-29.67,3.388,40.2,40.2,0,0,0-16.188,15.623,38.839,38.839,0,0,0-4.629,14.586,50.763,50.763,0,0,0,.657,14.041,2.419,2.419,0,0,0,2.952,1.677,2.459,2.459,0,0,0,1.676-2.953,49.975,49.975,0,0,1-.676-10.667,33.407,33.407,0,0,1,2.837-11.65,35.616,35.616,0,0,1,12.722-14.709,37.363,37.363,0,0,1,25.108-5.439,36.146,36.146,0,0,1,23.256,12.854c6.762,8.221,8.367,19.343,6.692,29.608a2.474,2.474,0,0,0,1.677,2.952,2.418,2.418,0,0,0,2.952-1.676Z"/><path class="b" d="M326.313,316.09a69.925,69.925,0,0,0-12.329-19.3c-5.117-5.654-12.666-9.073-19.631-11.805a2.418,2.418,0,0,0-2.952,1.677,2.456,2.456,0,0,0,1.676,2.952c6.292,2.468,13.192,5.633,17.733,10.817a68.188,68.188,0,0,1,11.358,18.086,2.415,2.415,0,0,0,3.284.861,2.464,2.464,0,0,0,.861-3.284Z"/><path class="b" d="M212.227,318.548c2.365-6.826,5.288-14.176,10.81-19.126A39.8,39.8,0,0,1,232.2,293.8c3.655-1.792,7.418-3.348,11.22-4.8a2.47,2.47,0,0,0,1.676-2.953,2.417,2.417,0,0,0-2.952-1.676c-6.339,2.419-12.792,5.018-18.527,8.687a34.523,34.523,0,0,0-11.745,13.659,81.6,81.6,0,0,0-4.276,10.55c-1.013,2.925,3.622,4.182,4.628,1.276Z"/><path class="b" d="M259.225,263.308c1.788,1.75,4.552,2.315,6.965,2.313s5.177-.562,6.966-2.313a2.4,2.4,0,0,0-3.394-3.394c-.093.09-.438.365-.04.058s-.035.013-.152.085c-.136.083-.277.161-.42.233-.095.047-.2.085-.293.137.112-.063.571-.218.193-.088a9.875,9.875,0,0,1-1.4.383c-.077.015-.155.028-.233.041-.182.029-.105.019.232-.028a1.369,1.369,0,0,1-.43.044c-.342.029-.685.042-1.028.042-.315,0-.629-.011-.942-.035a4.8,4.8,0,0,0-.519-.051c.23-.01.44.066.076,0a8.513,8.513,0,0,1-1.42-.376c-.192-.069-.5-.27.136.067-.079-.042-.165-.075-.245-.114-.16-.079-.316-.163-.467-.257-.115-.071-.222-.157-.337-.228.7.429.341.276.147.086a2.4,2.4,0,0,0-3.394,3.394Z"/><path class="b" d="M265.85,250.236a1.892,1.892,0,0,1-.2.1l.573-.242a1.364,1.364,0,0,1-.325.09l.638-.086a1.3,1.3,0,0,1-.324,0l.638.086c-.063-.009-.125-.021-.188-.034-.263-.052-.533-.08-.8-.113a2.467,2.467,0,0,0-2.4,2.4l.086.638a2.4,2.4,0,0,0,.617,1.059l.486.375a2.385,2.385,0,0,0,1.211.328h.011l-.638-.085c.08.011.158.028.237.043.25.046.505.074.757.1a1.337,1.337,0,0,0,.142.011,1.206,1.206,0,0,0,.147-.007c.217-.023.455-.057.67-.09l.039-.006c.028,0,.056-.011.083-.018a1.711,1.711,0,0,0,.187-.063,6.562,6.562,0,0,0,.77-.339,2.314,2.314,0,0,0,1.146-2.392,1.774,1.774,0,0,0-.285-.892l-.375-.486a2.4,2.4,0,0,0-1.059-.617l-.638-.086a2.4,2.4,0,0,0-1.211.328Z"/><path class="b" d="M248.48,239.88c-.537,1.744-.187,5.755,3.117,6.1,4.366-.027,4.6-4.876,3.129-7.157C253.522,236.953,249.984,236.177,248.48,239.88Z"/><path class="b" d="M283.3,239.88c.537,1.744.188,5.755-3.116,6.1-4.366-.027-4.6-4.877-3.129-7.157C278.259,236.953,281.8,236.177,283.3,239.88Z"/><path class="b" d="M247.328,217.572a23.967,23.967,0,0,0-11.632,9.092,30.223,30.223,0,0,0-3.434,6.75,20.542,20.542,0,0,0-1.044,3.435c-.3,1.677.719,3.774,2.7,3.6a2.464,2.464,0,0,0,2.4-2.4,2.417,2.417,0,0,0-2.4-2.4l-.143.012,1.211.328-.11-.074.861.861c.171.3-.038,1.795.254.723.068-.25.138-.5.212-.746q.2-.671.426-1.33a24.431,24.431,0,0,1,.913-2.3,24.819,24.819,0,0,1,2.843-4.78A18.494,18.494,0,0,1,248.6,222.2a2.461,2.461,0,0,0,1.676-2.953,2.421,2.421,0,0,0-2.952-1.676Z"/><path class="b" d="M246.8,212.585a19.935,19.935,0,0,0,5,10.04,26.438,26.438,0,0,0,4.3,3.821,12.739,12.739,0,0,0,5.7,2.672,2.4,2.4,0,0,0,2.4-2.4,2.475,2.475,0,0,0-2.4-2.4c.433.058-.283-.137-.306-.146.3.119-.107-.071-.206-.124-.371-.2-.733-.41-1.091-.629-.668-.409-1.313-.853-1.944-1.318-.207-.152.2.165-.136-.1-.174-.141-.348-.282-.52-.427q-.429-.361-.84-.742a22.774,22.774,0,0,1-1.709-1.765c-.122-.14-.241-.282-.359-.425-.1-.12-.313-.392-.107-.123-.247-.322-.482-.654-.707-.991a18.267,18.267,0,0,1-1.161-1.994c-.1-.2-.189-.4-.282-.594-.189-.4.04.12-.057-.132-.146-.375-.283-.751-.4-1.135a15.9,15.9,0,0,1-.539-2.36,2.407,2.407,0,0,0-2.952-1.676,2.472,2.472,0,0,0-1.676,2.952Z"/><path class="b" d="M264.738,213.739a37.067,37.067,0,0,0,6.474,9.331,19.4,19.4,0,0,0,9.4,5.062c3.016.8,6.108,1.444,8.553,3.514a13.209,13.209,0,0,1,4.44,7.683,2.423,2.423,0,0,0,2.952,1.677,2.451,2.451,0,0,0,1.677-2.953,17.679,17.679,0,0,0-4.607-8.79,19.207,19.207,0,0,0-8.966-5.032c-3.268-.912-6.726-1.449-9.311-3.829a30.91,30.91,0,0,1-6.464-9.086,2.4,2.4,0,1,0-4.145,2.423Z"/><path class="b" d="M239.957,290.075c5.433,5.71,13.167,7.8,20.771,8.591,8,.833,16.092.148,23.5-3.14a23.558,23.558,0,0,0,8.73-6.208,2.471,2.471,0,0,0,0-3.394,2.418,2.418,0,0,0-3.394,0c-5,6.1-14.07,8.111-21.555,8.247-8.51.155-18.471-.993-24.653-7.49-2.133-2.243-5.524,1.155-3.394,3.394Z"/><path class="b" d="M299.992,96.643a4.247,4.247,0,0,1,3.8-.838,4.425,4.425,0,0,1,1.38.58c.007,0,.373.346.49.462.354.353-.127-.243.145.165,1.414,2.119,1.443,5.017,1.237,7.476a19.077,19.077,0,0,1-2.294,7.253c-1.206,2.247-3.556,5.632-6.543,5.224a2.484,2.484,0,0,0-2.952,1.677,2.416,2.416,0,0,0,1.676,2.952c7.584,1.034,12.017-6.168,14.054-12.454,1.672-5.162,1.743-13.2-3.14-16.714a9.222,9.222,0,0,0-11.249.823c-2.318,2.051,1.087,5.436,3.394,3.394Z"/><path class="b" d="M295.517,115.578a48.52,48.52,0,0,1-2.783,8.337c.287-.7-.1.213-.218.453-.2.423-.415.84-.635,1.254-.489.922-1.011,1.826-1.556,2.716a50.439,50.439,0,0,1-10.915,12.913,19.776,19.776,0,0,1-8.006,4.119c-3.01.688-1.736,5.317,1.276,4.629,6.257-1.429,11.48-5.976,15.571-10.717a55.126,55.126,0,0,0,8.615-12.931c.155-.343.3-.69.446-1.037.06-.144.293-.673.029-.073.347-.791.686-1.584.992-2.391a40.51,40.51,0,0,0,1.813-6c.634-3.013-3.992-4.3-4.629-1.276Z"/><path class="b" d="M215.053,116.4A51.243,51.243,0,0,0,226.1,138.524c5.25,6.142,12.031,11.028,20.163,12.27a2.479,2.479,0,0,0,2.953-1.677,2.419,2.419,0,0,0-1.677-2.952c-7.417-1.132-13.256-5.433-18.045-11.035a46.236,46.236,0,0,1-9.81-20.009c-.672-3.014-5.3-1.738-4.628,1.276Z"/><path class="b" d="M248.46,129.2a16.871,16.871,0,0,0,8.121,1.914,13.279,13.279,0,0,0,8.273-2.44,2.4,2.4,0,0,0,0-3.394,2.475,2.475,0,0,0-3.394,0c.748-.579.236-.187.045-.065-.16.1-.325.195-.493.283-.24.124-.76.221-.1.068-.228.053-.455.173-.679.244a12.245,12.245,0,0,1-1.9.426c.357-.053.138-.021-.093,0q-.279.027-.56.044c-.449.027-.9.037-1.35.032-.4,0-.806-.019-1.209-.048-.185-.013-.369-.032-.553-.048-.7-.06.473.09-.179-.02a14.337,14.337,0,0,1-1.773-.4c-.248-.075-.491-.165-.735-.25-.582-.2.432.214-.093-.037-.3-.145-.6-.3-.9-.454a2.4,2.4,0,0,0-2.423,4.145Z"/><path class="b" d="M255.283,110.279a37.439,37.439,0,0,1,.864,4.025l-.086-.638a2.4,2.4,0,0,1,.013.555l.086-.638a1.428,1.428,0,0,1-.062.25l.242-.574a1.012,1.012,0,0,1-.089.161l.375-.486a.848.848,0,0,1-.132.129l.486-.376a2.552,2.552,0,0,1-.319.168l.573-.242a2.339,2.339,0,0,1-.537.154l.638-.085a2.178,2.178,0,0,1-.5,0l.638.086c-.19-.028-.376-.075-.566-.1a1.823,1.823,0,0,0-.957-.043,1.8,1.8,0,0,0-.893.285,2.4,2.4,0,0,0-.861,3.284,2.305,2.305,0,0,0,1.435,1.1c.462.064.91.18,1.381.2a4.461,4.461,0,0,0,2.076-.5,3.066,3.066,0,0,0,1.68-2.011,4.926,4.926,0,0,0-.015-2.131c-.214-1.3-.509-2.582-.837-3.854a2.4,2.4,0,0,0-4.629,1.276Z"/><path class="b" d="M234.388,98.71c-.68,2.18-.262,7.2,3.871,7.645,5.465-.011,5.779-6.08,3.951-8.941C240.713,95.072,236.288,94.083,234.388,98.71Z"/><path class="b" d="M278.148,98.881c.663,2.185.206,7.2-3.93,7.614-5.464-.054-5.732-6.125-3.881-8.971C271.852,95.193,276.284,94.239,278.148,98.881Z"/><path class="b" d="M287.382,35.015a49,49,0,0,0-28.038-8.806,73.949,73.949,0,0,0-12.455.763,49.025,49.025,0,0,0-11.272,3.567c-14.03,6.278-25.95,19.647-28.543,35.071a61.114,61.114,0,0,0-.455,14.175c.306,4.574.865,9.265,2.793,13.47a2.42,2.42,0,0,0,3.284.861,2.457,2.457,0,0,0,.861-3.284c-1.534-3.343-1.825-6.878-2.088-10.344a69.036,69.036,0,0,1,0-11.769c.665-6.941,3.768-13.613,7.87-19.175,8.429-11.426,22.5-18.834,36.766-18.549,2.528.05,5.054-.045,7.578.181a40.99,40.99,0,0,1,7.389,1.392A47.016,47.016,0,0,1,284.96,39.16c2.554,1.75,4.958-2.408,2.422-4.145Z"/><path class="b" d="M307.5,94.882c2.787-6.636,2.447-14.573,1.68-21.583a78.4,78.4,0,0,0-1.607-9.849,47.365,47.365,0,0,0-5.1-12.48,44.7,44.7,0,0,0-8.519-10.5c-2.27-2.088-5.673,1.3-3.394,3.394a41.7,41.7,0,0,1,11.982,19.323,67.131,67.131,0,0,1,2.293,19.637,29.514,29.514,0,0,1-1.963,10.78,2.414,2.414,0,0,0,1.677,2.952,2.462,2.462,0,0,0,2.952-1.676Z"/><path class="b" d="M281.178,65.889a55.2,55.2,0,0,0,5.057,15.93c1.982,4.3,4.132,8.545,8.724,10.468a2.414,2.414,0,0,0,2.952-1.677,2.461,2.461,0,0,0-1.676-2.952c-3.195-1.338-4.725-5.786-6.04-8.666a46.629,46.629,0,0,1-4.217-13.1,2.478,2.478,0,0,0-2.4-2.4,2.413,2.413,0,0,0-2.4,2.4Z"/><path class="b" d="M193.46,181.036a59.236,59.236,0,0,1,14.4-11.41c4.942-2.868,10.733-4.443,16.148-6.135,2.939-.919,1.684-5.554-1.276-4.629-5.8,1.814-12,3.547-17.294,6.619a63.456,63.456,0,0,0-15.375,12.161c-2.053,2.3,1.33,5.7,3.394,3.394Z"/><path class="b" d="M218.882,92.933a9.283,9.283,0,0,0-10.135-1.52,8.874,8.874,0,0,0-4.625,5.974c-1.631,5.944-.121,12.876,3.248,17.967,2.287,3.456,5.921,6.583,10.349,6.015a2.478,2.478,0,0,0,2.4-2.4,2.413,2.413,0,0,0-2.4-2.4c-3.293.423-5.514-2.259-6.962-4.9a19.146,19.146,0,0,1-2.4-7.587,16.864,16.864,0,0,1,.161-4.426,9.651,9.651,0,0,1,.583-2.078c.068-.154.19-.367.28-.521.032-.055.39-.6.212-.356-.166.225.32-.349.38-.409s.535-.421.3-.259a3.9,3.9,0,0,1,1.6-.632,4.212,4.212,0,0,1,3.613.922c2.286,2.067,5.691-1.317,3.394-3.394Z"/><path class="b" d="M299.526,168.072a127.491,127.491,0,0,1,14.656,6.5c4.331,2.272,8.622,4.67,12.1,8.155,7.158,7.165,10.071,16.926,12.715,26.43,2.98,10.715,6.156,21.4,8.313,32.319,1.825,9.238,3.432,18.917,2.533,28.352a29.989,29.989,0,0,1-4.924,14.159c-3.063,4.527-7.251,8.205-11.432,11.668a2.418,2.418,0,0,0,0,3.394,2.454,2.454,0,0,0,3.394,0c7.882-6.527,15.016-14.054,17.076-24.425,1.95-9.813.48-19.949-1.155-29.695-1.911-11.385-5.1-22.489-8.213-33.59-2.928-10.459-5.673-21.2-12.8-29.7-3.743-4.464-8.483-7.576-13.553-10.341a134.988,134.988,0,0,0-17.436-7.862,2.422,2.422,0,0,0-2.953,1.677,2.452,2.452,0,0,0,1.677,2.952Z"/><path class="b" d="M316.045,263.476a23.311,23.311,0,0,1,7.407-.534,21.453,21.453,0,0,1,3.427.573,26.119,26.119,0,0,1,3.775,1.249,2.406,2.406,0,0,0,2.952-1.677,2.475,2.475,0,0,0-1.676-2.952,28.132,28.132,0,0,0-17.162-1.287,2.4,2.4,0,1,0,1.277,4.628Z"/><path class="b" d="M275.636,145.846a28.632,28.632,0,0,0,2.784,9.545,15.765,15.765,0,0,0,5.345,5.284c4.839,3.2,10.43,5.2,15.761,7.4a2.415,2.415,0,0,0,2.952-1.676,2.461,2.461,0,0,0-1.676-2.953c-4.78-1.973-9.709-3.811-14.1-6.582a16.479,16.479,0,0,1-2.4-1.763,6.389,6.389,0,0,1-1.646-1.961c-1.482-2.576-1.937-5.673-2.394-8.567a2.416,2.416,0,0,0-2.952-1.676,2.459,2.459,0,0,0-1.676,2.952Z"/><path class="b" d="M224.011,163.491a85.1,85.1,0,0,0,12.1-4.526c1.785-.9,3.872-1.965,4.468-4.011a31.407,31.407,0,0,0,.6-3.278l.65-3.643a2.468,2.468,0,0,0-1.677-2.952,2.42,2.42,0,0,0-2.952,1.676c-.379,2.124-.731,4.256-1.137,6.375-.008.043-.1.549-.115.546s.179-.338.2-.293c0,0-.844.523-.938.582a19.443,19.443,0,0,1-1.923,1.05c-.8.388-1.251.577-1.858.82-.878.352-1.764.68-2.655,1-2,.713-4.023,1.369-6.043,2.028a2.453,2.453,0,0,0-1.676,2.952,2.426,2.426,0,0,0,2.952,1.677Z"/><path class="b" d="M223.054,170.952a95.668,95.668,0,0,0,15.815,6.074,71.415,71.415,0,0,0,15.185,2.286,115.813,115.813,0,0,0,17.39-.49,57.976,57.976,0,0,0,11.777-2.257,50.6,50.6,0,0,0,8.906-3.992c2.707-1.489.288-5.636-2.423-4.144-1.123.618-2.252,1.224-3.408,1.779-.544.262-1.093.513-1.648.749.47-.2-.48.189-.6.234q-.51.2-1.026.381a47.646,47.646,0,0,1-10.167,2.292c-10.143,1.229-20.928,1.377-30.915-1.009a85.315,85.315,0,0,1-16.469-6.048,2.466,2.466,0,0,0-3.283.861,2.421,2.421,0,0,0,.861,3.284Z"/><path class="b" d="M205.44,265.026a242.072,242.072,0,0,0,7.3,23.406,2.465,2.465,0,0,0,2.952,1.676,2.42,2.42,0,0,0,1.677-2.952,242.078,242.078,0,0,1-7.3-23.406c-.769-2.99-5.4-1.723-4.628,1.276Z"/><path class="b" d="M254.692,83.131a3.933,3.933,0,0,0,1.634,4.425,8.093,8.093,0,0,0,4.447.746,20.721,20.721,0,0,0,10.239-3.23c4.944-3.2,8.259-8.949,10.1-14.422a38.9,38.9,0,0,0,1.66-10.85c.124-3.088-4.676-3.083-4.8,0-.234,5.808-1.385,11.251-4.638,16.05a16.793,16.793,0,0,1-7.427,6.483,15.537,15.537,0,0,1-4.664,1.143,12.484,12.484,0,0,1-2.028.008c-.045,0-.5-.019-.458-.064.129-.128.625.733.564.987.728-3-3.9-4.282-4.629-1.276Z"/><path class="b" d="M233.849,83.635a4.4,4.4,0,0,0,2.393,4.443,11.686,11.686,0,0,0,5.176.625,23.822,23.822,0,0,0,9.785-2.337c6.161-2.874,10.7-9.341,12.938-15.6a50.023,50.023,0,0,0,2.2-11.163,2.414,2.414,0,0,0-2.4-2.4,2.457,2.457,0,0,0-2.4,2.4,44.244,44.244,0,0,1-2.029,9.887,26.864,26.864,0,0,1-5.212,8.531,17.132,17.132,0,0,1-8.733,5.354,17.728,17.728,0,0,1-4.31.534c-.73.008-1.472.022-2.2-.035a3.671,3.671,0,0,1-.683-.063c.285.091.226.456.275-.173a2.421,2.421,0,0,0-2.4-2.4,2.446,2.446,0,0,0-2.4,2.4Z"/><path class="b" d="M223.044,92.116c5.265-3.515,11.695-4.8,16.734-8.627,5.1-3.872,7.6-9.77,9.089-15.831.736-3-3.892-4.279-4.628-1.276-1.293,5.274-3.305,10.475-7.906,13.711-2.452,1.725-5.23,2.678-7.964,3.858a48.255,48.255,0,0,0-7.748,4.02c-2.557,1.706-.156,5.866,2.423,4.145Z"/><path class="a" d="M321.164,307.429l-1.639-1.64a26.238,26.238,0,0,1-7.04,7.024,4.187,4.187,0,0,1-2.629.917,4.245,4.245,0,0,1-2.327-.826,6.138,6.138,0,0,1-1.925-4.415c-2.011,2.074-3.2,3.168-6.071,2.719a5.149,5.149,0,0,1-2.487-1.548,5.66,5.66,0,0,1-.9-4.145s.251-.777.62-1.913a4.384,4.384,0,0,1-4.886-.465,4.223,4.223,0,0,1-.921-3.933,12.448,12.448,0,0,1,1.825-3.783l4.056-6.435.842-1.334-3.056,1.981c-3.284,2.128-6.509-1.71-5.25-5.007a26.311,26.311,0,0,1,3-6.053c1.989-2.653,6.693-6.211,10.337-3.719l6.782-.473c3.614-.5,6.156,1.609,9,2.9a19.318,19.318,0,0,1,6.977,6.241c2.3,3.128,3.7,6.1,3.582,8.966a20.029,20.029,0,0,1-7.881,14.938"/><path class="b" d="M303.919,272.782c-4.366-2.853-9.821.035-12.812,3.554a23.64,23.64,0,0,0-3.737,6.853,6.994,6.994,0,0,0,.511,6.778,5.824,5.824,0,0,0,7.955,1.738,2.4,2.4,0,0,0-2.422-4.145,4.341,4.341,0,0,1-.379.22c.259-.095.263-.1.01-.007a3.349,3.349,0,0,1-.37.1q.5-.053.093-.024a2.975,2.975,0,0,1-.353-.012q.525.078.127-.006a3.03,3.03,0,0,1-.326-.107c.308.133.345.139.109.019-.1-.058-.2-.121-.29-.188q.381.3.083.04c-.085-.081-.167-.166-.244-.255.185.257.2.277.048.061-.125-.21-.249-.412-.354-.634.248.525.03.018-.007-.122-.032-.12-.06-.241-.082-.364.038.328.046.353.022.076,0-.147.1-.925-.025-.322a9.758,9.758,0,0,1,.523-1.566c.112-.284.225-.568.342-.849-.159.382.2-.449.234-.524.251-.554.518-1.1.81-1.634.283-.516.6-1,.926-1.493q.282-.379-.035.037c.074-.092.149-.183.225-.272q.241-.284.5-.553c.369-.387.769-.734,1.167-1.091.213-.17.213-.174,0-.012.111-.085.224-.168.338-.249.2-.142.4-.278.613-.408s.421-.254.637-.37c.088-.047.881-.409.37-.2a7.555,7.555,0,0,1,1.558-.446c-.608.106.215.008.347.01s.262.008.393.019c-.313-.048-.33-.047-.054,0,.1.03.89.3.384.075a5.25,5.25,0,0,1,.741.42,2.419,2.419,0,0,0,3.284-.861,2.455,2.455,0,0,0-.861-3.284Z"/><path class="b" d="M298.244,282.26l-5.86,9.294c-1.75,2.777-4.247,5.855-3.926,9.344a6,6,0,0,0,6.645,5.588c3.2-.317,5.621-2.627,7.667-4.933a84.544,84.544,0,0,0,6.425-8.823,2.4,2.4,0,1,0-4.144-2.423,75.332,75.332,0,0,1-5.675,7.852,17.918,17.918,0,0,1-3.175,3,3.034,3.034,0,0,1-1.418.559,1.666,1.666,0,0,1-1.059-.176c-.326-.2-.362-.324-.454-.729a2.776,2.776,0,0,1,.194-1.648,24.068,24.068,0,0,1,2.647-4.528l6.278-9.958c1.652-2.62-2.5-5.032-4.145-2.422Z"/><path class="b" d="M293.831,304.877a7.073,7.073,0,0,0,9.98,8.13,15.333,15.333,0,0,0,4.333-3.7q1.93-2.052,3.788-4.171c1.921-2.181,3.788-4.407,5.538-6.728a2.415,2.415,0,0,0-.861-3.284,2.458,2.458,0,0,0-3.283.861,124.25,124.25,0,0,1-8.731,10.092c-.662.7-1.323,1.408-2.044,2.046-.021.019-.6.462-.236.206a6.62,6.62,0,0,1-.735.445c.426-.223-.118.032-.217.059-.141.038-.283.07-.427.094q.393-.057-.058-.02c-.259-.016-.516.009-.775-.027.276.039-.6-.227-.256-.073a6.587,6.587,0,0,1-.748-.461c-.352-.218-.018.043-.229-.251-.248-.346,0,.16-.155-.306a7.835,7.835,0,0,1-.231-.866q-.045-.26-.01.018c-.017-.156-.027-.313-.031-.47s0-.286.009-.428q-.079.48.008.111c.8-2.988-3.832-4.263-4.629-1.276Z"/><path class="b" d="M303.677,311.189a6.855,6.855,0,0,0,5.064,4.8c2.527.465,4.477-.666,6.41-2.144a32.437,32.437,0,0,0,8.727-10.553,2.4,2.4,0,0,0-4.145-2.422,28.01,28.01,0,0,1-6.311,8.227,14.137,14.137,0,0,1-1.724,1.359c-.33.227-.667.439-1.006.651-.169.106-.39.2-.077.077a3.069,3.069,0,0,1-.532.158q-.245.053.038-.012h-.265c-.532-.218.5.165-.159-.035-.182-.055-.367-.1-.548-.162-.258-.092.284.006-.117-.077q.332.277.1.059-.134-.135-.261-.276c-.086-.089-.23-.279-.075-.069-.138-.186-.245-.384-.366-.58-.254-.408.055.231-.127-.277a2.463,2.463,0,0,0-2.953-1.676,2.421,2.421,0,0,0-1.676,2.952Z"/><path class="b" d="M309.49,276.781a7.783,7.783,0,0,1,4.562.914c1.433.717,2.926,1.42,4.308,2.228a20.308,20.308,0,0,1,7.208,8.27c2.935,5.775-.765,13.564-5.615,17.164a2.474,2.474,0,0,0-.861,3.283,2.418,2.418,0,0,0,3.284.861c6.762-5.018,11.406-14.831,7.7-22.979a25.154,25.154,0,0,0-8.94-10.529,46.951,46.951,0,0,0-5.312-2.758,11.791,11.791,0,0,0-6.331-1.254,2.472,2.472,0,0,0-2.4,2.4,2.416,2.416,0,0,0,2.4,2.4Z"/><path class="a" d="M109.657,170.821c-3.02-2.833-6.793-4.931-10.806-4.427-5.426.682-9.356,6.335-9.173,11.8.223,6.706,5.548,12.622,11.551,15.153a61.128,61.128,0,0,0,15.141-6.811l2.1-3.568a11.443,11.443,0,0,0,1.333-8.017c-.416-2.035-1.777-4.2-3.851-4.309-1.662-.085-3.051,1.179-4.227,2.356A27.113,27.113,0,0,0,109.657,170.821Z"/><path class="e" d="M193.159,204.982c-1.883-7.548-4.866-14.794-9.7-20.827-6.645-8.29-16.274-13.287-26.78-11.708-4,.6-8.832,1.575-12.417,3.443-7.593,3.956-14.4,8.418-19.23,16.931a54.36,54.36,0,0,0-5.095-8.7,60.875,60.875,0,0,1-20.108,9.622c-.594,8.206,4.4,26.856,6.309,33.323,1.26,4.271,3.088,8.751,6.97,11.232a15.91,15.91,0,0,0,6.852,2.185l-.579,1.856c-9.586.99-16.53,12.357-13.036,21.338l5.413,13.206,44.128,6.384c14.881-1.36,27.777-12.33,34.178-25.832s7.038-29.135,4.787-43.908C194.413,210.668,193.863,207.8,193.159,204.982Z"/><path class="b" d="M138.035,232.375a22.821,22.821,0,0,1-14.478,5.838,17.254,17.254,0,0,1-8.136-1.364,11.517,11.517,0,0,1-5.067-5.371c-1.739-3.392-2.584-7.311-3.555-10.981-1.177-4.449-2.254-8.928-3.139-13.445-.857-4.369-1.729-8.829-1.434-13.31l-1.762,2.314a63.721,63.721,0,0,0,20.682-9.864l-3.284-.861a53.722,53.722,0,0,1,6.793,12.833,2.463,2.463,0,0,0,2.952,1.676,2.42,2.42,0,0,0,1.677-2.952,58.254,58.254,0,0,0-7.277-13.979c-.693-.974-2.161-1.678-3.284-.861a59.97,59.97,0,0,1-19.535,9.379,2.469,2.469,0,0,0-1.762,2.315c-.293,4.461.562,9.05,1.38,13.416.922,4.914,2.086,9.783,3.365,14.615,1.143,4.322,2.192,8.865,4.393,12.79a15.736,15.736,0,0,0,6.058,6.235,21.005,21.005,0,0,0,9.734,2.23,27.948,27.948,0,0,0,19.073-7.259c2.284-2.09-1.118-5.477-3.394-3.394Z"/><path class="b" d="M119.378,239.938a18.832,18.832,0,0,0-15.35,24.376,2.467,2.467,0,0,0,2.952,1.676,2.418,2.418,0,0,0,1.676-2.952,13.213,13.213,0,0,1,1.3-11.7,15,15,0,0,1,3.895-4.324,12.323,12.323,0,0,1,5.527-2.277,2.473,2.473,0,0,0,2.4-2.4,2.415,2.415,0,0,0-2.4-2.4Z"/><path class="b" d="M140.217,174.949a9.086,9.086,0,0,1-6.944-1.985,18.238,18.238,0,0,1-5.6-6.336c-2.779-5.527-1.578-12.133-1.219-18.033.189-3.112.137-6.248.472-9.348a35.814,35.814,0,0,1,1.734-7.7c1.637-4.779,4.563-9.279,8.9-12,5.305-3.324,11.7-4.259,17.859-4.2a46.766,46.766,0,0,1,14.405,2.326c8.749,2.933,15.963,9.254,18.324,18.381,1.658,6.409,1.2,13.609-.3,20a26.948,26.948,0,0,1-10.854,16.794,2.476,2.476,0,0,0-.861,3.284,2.417,2.417,0,0,0,3.284.861,32.964,32.964,0,0,0,12.222-16.6,50.855,50.855,0,0,0,1.967-21.06,30.685,30.685,0,0,0-6.394-15.624,32.254,32.254,0,0,0-12.428-9.237,49.007,49.007,0,0,0-16.349-3.813c-6.883-.451-13.968.28-20.3,3.141a25.781,25.781,0,0,0-12.755,13.081c-2.619,5.814-3.3,11.8-3.545,18.1-.274,7.094-1.837,14.695.631,21.572a20.913,20.913,0,0,0,5.672,8.327c2.318,2.157,5.093,4.132,8.268,4.72a14.04,14.04,0,0,0,5.089-.03,2.419,2.419,0,0,0,1.676-2.952,2.454,2.454,0,0,0-2.952-1.676Z"/><path class="b" d="M149.622,147.979a15.325,15.325,0,0,1-2.451-.11l.638.085c-.329-.044-.655-.1-.979-.168a2.553,2.553,0,0,0-1.849.242,2.4,2.4,0,0,0-.861,3.284,2.4,2.4,0,0,0,1.434,1.1,17.154,17.154,0,0,0,4.068.364,2.511,2.511,0,0,0,1.7-.7,2.678,2.678,0,0,0,.7-1.7,2.4,2.4,0,0,0-2.4-2.4Z"/><path class="b" d="M131.5,146.967a11.736,11.736,0,0,1-2.582-.057l.638.086a5.006,5.006,0,0,1-.5-.09,2.508,2.508,0,0,0-1.849.242,2.677,2.677,0,0,0-1.1,1.434,2.4,2.4,0,0,0,1.676,2.952,10.281,10.281,0,0,0,1.219.186c.266.033.534.054.8.068a11.762,11.762,0,0,0,1.7-.021,1.815,1.815,0,0,0,.925-.207,2.462,2.462,0,0,0,1.475-2.193,2.421,2.421,0,0,0-.7-1.7,2.342,2.342,0,0,0-1.7-.7Z"/><path class="b" d="M137.076,163.619a22.306,22.306,0,0,0-2.929-.343,2.317,2.317,0,0,0-2.193,1.475,1.815,1.815,0,0,0-.207.925l.086.638a2.407,2.407,0,0,0,.617,1.059l.486.375a2.385,2.385,0,0,0,1.211.328c.571.039,1.142.084,1.709.16l-.638-.086c.2.027.389.058.582.1a1.823,1.823,0,0,0,.957.043,2.469,2.469,0,0,0,2-1.719l.086-.638a2.4,2.4,0,0,0-.328-1.212l-.375-.485a2.4,2.4,0,0,0-1.059-.617Z"/><path class="b" d="M171.26,155.556c.039-.025.638-.345.211-.165a4.335,4.335,0,0,1,.662-.195c.42-.1-.078-.018.179-.014.092,0,.719.037.509,0-.271-.043.318.09.373.1.561.153-.212-.178.274.119.1.06.564.445.233.134.049.046.407.468.234.222-.191-.273.141.278.008-.01.023.049.177.743.119.344a10.557,10.557,0,0,1,.051,1.53c0,.428-.014.856-.045,1.283-.018.253-.037.509-.073.761.057-.4-.078.368-.077.364a10.277,10.277,0,0,1-.372,1.346,4.473,4.473,0,0,1-.458.959c-.128.222-.267.437-.411.648-.03.043-.378.519-.215.309.129-.167-.262.3-.317.361-.128.138-.259.274-.4.4-.008.007-.55.472-.229.224a6.1,6.1,0,0,1-.617.415c-.136.081-.275.154-.417.224s-.426.17-.119.056a13.452,13.452,0,0,1-1.345.425c-.223.056-.449.1-.673.149-.52.121.344-.022-.184.024a2.4,2.4,0,1,0,0,4.8,11.337,11.337,0,0,0,7.141-3.081,12.512,12.512,0,0,0,3.456-7.374c.335-2.624.431-5.83-1.666-7.776a6.947,6.947,0,0,0-8.259-.739,2.4,2.4,0,0,0,2.423,4.145Z"/><path class="b" d="M120.542,184.179c2.111-3.749,2.785-8.965.411-12.775a6.213,6.213,0,0,0-5-3.162c-2.41-.041-4.3,1.449-5.924,3.059h3.394c-4.739-5.489-12.726-10.062-19.67-5.525-6.134,4.007-7.88,11.915-5.095,18.465a21.921,21.921,0,0,0,8.126,9.442c2.57,1.729,4.975-2.427,2.423-4.145-5.414-3.643-9.422-10.823-5.553-16.982a7.632,7.632,0,0,1,7.531-3.772c3.606.56,6.551,3.255,8.844,5.911a2.426,2.426,0,0,0,3.394,0c.565-.559,1.607-1.85,2.53-1.653.57.121,1.048,1.018,1.264,1.554a8.642,8.642,0,0,1-.818,7.16c-1.518,2.695,2.627,5.118,4.144,2.423Z"/><path class="b" d="M127.936,192.632a37.327,37.327,0,0,1,12.227-11.69,42.719,42.719,0,0,1,7.244-3.841,47.313,47.313,0,0,1,9.148-2.223c11.433-1.813,21.576,4.9,27.534,14.276,6.722,10.579,9.059,23.878,9.486,36.229.434,12.525-1.725,25.495-8.556,36.2-6.41,10.048-17.023,18.106-29.136,19.279a2.465,2.465,0,0,0-2.4,2.4,2.417,2.417,0,0,0,2.4,2.4c12.214-1.182,23.006-8.061,30.444-17.656,8.38-10.81,11.854-24.477,12.09-37.99a102.434,102.434,0,0,0-1.9-20.912,67.8,67.8,0,0,0-6.579-19.462c-5.949-11.066-16.869-20.182-29.985-19.882a43.33,43.33,0,0,0-20.588,6.066,44.013,44.013,0,0,0-15.572,14.379c-1.66,2.616,2.492,5.027,4.144,2.423Z"/><path class="b" d="M138.347,127.676a13.61,13.61,0,0,1-2.311,2.454l.486-.375a8.294,8.294,0,0,1-1.437.875,2.424,2.424,0,0,0-1.1,1.434,2.4,2.4,0,0,0,1.677,2.953l.638.085a2.384,2.384,0,0,0,1.211-.327,10.371,10.371,0,0,0,2.511-1.749,16.676,16.676,0,0,0,1.723-1.956,2.672,2.672,0,0,0,.7-1.7,2.443,2.443,0,0,0-.7-1.7,2.414,2.414,0,0,0-1.7-.7l-.639.086a2.4,2.4,0,0,0-1.059.617Z"/><path class="b" d="M147.16,131.655c-.22.343-.457.673-.706,1l.376-.486a18.009,18.009,0,0,1-3.126,3.159l.486-.375c-.18.137-.363.27-.554.393a2.537,2.537,0,0,0-1.1,1.435,2.457,2.457,0,0,0,.242,1.849,2.4,2.4,0,0,0,3.284.861,16.292,16.292,0,0,0,2.706-2.268,19.67,19.67,0,0,0,2.54-3.142,2.4,2.4,0,0,0-.861-3.283,2.423,2.423,0,0,0-1.849-.242,2.592,2.592,0,0,0-1.435,1.1Z"/><path class="a" d="M200.121,247.584q1.069-1.086,2.082-2.308c5.627-6.794,5.324-14.315,3.51-21.807-1.543-4.221-5.961-9.026-8.794-9.7-3.835-.913-5.876-.592-9.465.315a41.566,41.566,0,0,1-13.675,1.42,32.3,32.3,0,0,0-8.763.71c-3,.631-4.293,2.41-3.943,5.205.394,3.155,3.943,5.442,7.871,5.811l5.4.508a49.079,49.079,0,0,1-7.167,3.006c-3.363,1.1-6.657,2.046-10.026,3.45a4.687,4.687,0,0,0-2.881,4.42,5,5,0,0,0,6.144,4.93l4-.668-.644,2.653a4.858,4.858,0,0,0,1.442,4.893c2.317,6.488,9.761,7.371,15.926,6.475A32.082,32.082,0,0,0,200.121,247.584Z"/><path class="b" d="M168.944,224.829c-2.519-.277-6.171-2.067-5.462-4.879a1.732,1.732,0,0,1,.389-.711,5.055,5.055,0,0,1,2.179-.793,29.645,29.645,0,0,1,6.33-.609c2.3.035,4.546.245,6.849.064a51.551,51.551,0,0,0,7.463-1.166,29.964,29.964,0,0,1,5.762-1.107,10.118,10.118,0,0,1,4.741.85c6.375,3.711,8.3,12.463,6.977,19.248-1.471,7.547-8.08,13.538-14.919,16.49a31.2,31.2,0,0,1-11.585,2.569c-3.454.063-7.479-.6-9.5-3.725-1.669-2.587-5.826-.184-4.145,2.423,5.126,7.947,16.579,6.8,24.354,4.174,8.826-2.975,17.621-10.022,20.112-19.32,1.276-4.765.826-9.762-.236-14.52-.965-4.328-4.324-8.484-7.9-11-3.925-2.766-9.164-2.122-13.541-1.045a46.1,46.1,0,0,1-8.3,1.382c-2.685.159-5.35-.22-8.032-.073-4.8.264-11.484,1.012-11.856,7.077-.355,5.8,5.29,8.922,10.313,9.474a2.414,2.414,0,0,0,2.4-2.4,2.456,2.456,0,0,0-2.4-2.4Z"/><path class="b" d="M176.833,223.6a51.619,51.619,0,0,1-10.711,4.964c-1.946.633-3.905,1.228-5.84,1.9a21.006,21.006,0,0,0-5.331,2.235,7.321,7.321,0,0,0-2.2,9.388c1.585,3.224,4.954,4.252,8.3,3.774a2.415,2.415,0,0,0,1.677-2.952,2.464,2.464,0,0,0-2.953-1.676,2.559,2.559,0,0,1-3.079-2.357c-.392-2.4,2.825-3.078,4.65-3.711,3.015-1.048,6.11-1.875,9.081-3.046a58.965,58.965,0,0,0,8.825-4.37c2.643-1.592.233-5.744-2.423-4.144Z"/><path class="b" d="M160.417,245.943a42.477,42.477,0,0,0,10.318-2.307,95.122,95.122,0,0,0,9.648-3.8,2.419,2.419,0,0,0,.861-3.284,2.458,2.458,0,0,0-3.284-.861q-.91.417-1.831.811c-.361.155.007,0-.217.092l-.468.193q-.544.224-1.093.441-2.421.959-4.892,1.782c-1.617.536-3.251,1.024-4.906,1.425-.768.185-1.54.352-2.317.489-.164.029-.328.055-.492.082-.145.024-.55.077-.2.033q-.564.069-1.13.107a2.457,2.457,0,0,0-2.4,2.4,2.421,2.421,0,0,0,2.4,2.4Z"/><path class="a" d="M122.4,269.6c1.257-1.045,3.089-1.737,5.9-2.429a122.81,122.81,0,0,0,14.623-4.836c2.414-1.047,4.443-2.966,7.01-3.543s5.706.259,6.782,2.66a5.621,5.621,0,0,1-.378,4.8,58.435,58.435,0,0,1-5.921,7.349l-.348.348.837,1.039c2.283,2.96,6.212,4.244,9.964,4.37a22.637,22.637,0,0,0,9.53-1.189c2.2-.764,5-1.313,6.688-.764s3.372,2.116,3.439,3.885c.036.943-1.056,2.62-1.528,3.44-1.045,1.811-4.116,3.464-8.064,4.864-.78,2.033-1.236,3.225-1.236,3.225-2.9,7.569-10.618,13.409-19.857,14.994-8.566,1.347-21.114,1.619-24.763.524-1.021-.306-3.584-1.583-4.625-1.814-2-.443-6.707-.527-11.409-.851,0,0-.855-.059-2.287-.155.992-10.641,1.992-24.453,1.393-32.266,1,.118,2.677.312,2.677.312,2.109.243,5.109.892,6.811.73l1.1-.105a20.27,20.27,0,0,1,3.527-4.471C122.313,269.674,122.357,269.636,122.4,269.6Z"/><path class="b" d="M161.456,244.89c-.642,3,.264,6.475,3.154,7.986a10.958,10.958,0,0,0,7.794.541,76.31,76.31,0,0,0,12.5-5.163,2.423,2.423,0,0,0,.861-3.284,2.452,2.452,0,0,0-3.284-.861,89.713,89.713,0,0,1-10.017,4.258,8.889,8.889,0,0,1-4.412.649c-.014,0-.418-.092-.543-.126a3.961,3.961,0,0,0-.481-.158c-.072-.035-.574-.4-.4-.245-.211-.183-.121-.107-.215-.247a2.805,2.805,0,0,1-.334-2.074,2.456,2.456,0,0,0-1.676-2.952,2.424,2.424,0,0,0-2.952,1.676Z"/><path class="b" d="M109.046,308.067c2.946.2,5.9.283,8.845.525a13.9,13.9,0,0,1,4.556,1.257c3.4,1.451,7.007,1.548,10.666,1.561a111.861,111.861,0,0,0,14.633-.9,33.024,33.024,0,0,0,14.133-4.839,25.926,25.926,0,0,0,10.135-12.216,2.417,2.417,0,0,0-1.676-2.952,2.456,2.456,0,0,0-2.952,1.676c-3.2,8.135-11.755,12.536-20,13.577a111.553,111.553,0,0,1-13.925.857c-1.888,0-3.784-.04-5.665-.222-.153-.015-1.118-.143-.644-.069-.292-.046-.584-.094-.873-.158a10.161,10.161,0,0,1-1.7-.58,29.714,29.714,0,0,0-3.2-1.3,16.609,16.609,0,0,0-3.148-.463c-3.057-.273-6.131-.348-9.192-.554a2.4,2.4,0,1,0,0,4.8Z"/><path class="b" d="M149.21,276.681c2.92,3.627,7.64,4.951,12.122,5.086a28.645,28.645,0,0,0,6.868-.48c2.189-.466,4.264-1.508,6.514-1.681a3.444,3.444,0,0,1,2.324.409,2.851,2.851,0,0,1,.839.757c.068.1.286.706.28.357.011.633-.717,1.516-1.042,2.066-.058.1-.46.725-.305.521.195-.257-.064.07-.12.125-.123.118-.239.243-.363.361.026-.024-.506.436-.264.24.21-.169-.181.132-.226.163-.279.19-.56.375-.85.549a21.522,21.522,0,0,1-2.29,1.18,42.46,42.46,0,0,1-5.218,1.855,92.235,92.235,0,0,1-14.085,2.989,2.48,2.48,0,0,0-2.4,2.4c0,1.163,1.106,2.574,2.4,2.4a102.887,102.887,0,0,0,14.465-2.9c3.726-1.059,7.745-2.317,10.873-4.68a11.3,11.3,0,0,0,3.218-3.989,5.819,5.819,0,0,0-.711-7.084,8,8,0,0,0-6.912-2.485c-2.642.261-5.013,1.336-7.59,1.855a22.121,22.121,0,0,1-7.673.091,10.057,10.057,0,0,1-6.46-3.5,2.416,2.416,0,0,0-3.394,0,2.457,2.457,0,0,0,0,3.395Z"/><path class="b" d="M120.276,276.245a21.658,21.658,0,0,1,3.536-4.694,7.125,7.125,0,0,1,1.471-.92,15.946,15.946,0,0,1,2.355-.8c4.192-1.182,8.41-2.321,12.5-3.816a34.617,34.617,0,0,0,5.916-2.62c1.5-.895,3.051-2.118,4.838-2.35a3.947,3.947,0,0,1,3.316.923c.886.984.433,2.491-.192,3.491a39.154,39.154,0,0,1-5.3,6.445c-2.171,2.2,1.221,5.6,3.394,3.394a48.363,48.363,0,0,0,5.943-7.252c2.671-4.071,1.414-9.433-3.229-11.234a9.533,9.533,0,0,0-6.287-.119c-2.228.736-4.047,2.186-6.115,3.236-4.5,2.283-9.7,3.511-14.539,4.866-2.25.63-4.6,1.186-6.519,2.595-2.257,1.661-3.76,4.106-5.237,6.437-1.659,2.617,2.493,5.028,4.144,2.423Z"/><path class="b" d="M110.829,275.958c.16.019.32.039.479.06l-.638-.086c1.136.153,2.266.347,3.4.5a16.308,16.308,0,0,0,3.568.255,2.577,2.577,0,0,0,1.7-.7,2.4,2.4,0,0,0,0-3.4,2.349,2.349,0,0,0-1.7-.7,13.509,13.509,0,0,1-2.93-.169l.638.086c-1.508-.2-3.007-.47-4.519-.647a2.391,2.391,0,0,0-1.7.7,2.4,2.4,0,0,0,0,3.394l.486.375a2.4,2.4,0,0,0,1.211.328Z"/><path class="b" d="M54.9,263.024c9.036,2.073,18.287,2.811,27.446,4.13,7.606,1.094,15.252,1.459,22.89,2.236a2.417,2.417,0,0,0,2.4-2.4,2.454,2.454,0,0,0-2.4-2.4c-7.356-.748-14.728-1.076-22.053-2.128-9.014-1.3-18.115-2.026-27.007-4.067-3.007-.69-4.291,3.937-1.276,4.629Z"/><path class="b" d="M105.321,269.387c-.64-.463-.375-.285-.2-.109-.494-.491-.262-.317-.092-.052.275.428-.011-.049-.013-.059.042.187.13.373.184.557a12.771,12.771,0,0,1,.29,1.282c.042.233.077.466.113.7.053.347-.052-.436-.011-.075.019.164.039.328.056.492a71.135,71.135,0,0,1,.27,8.513c-.1,7.295-.649,14.587-1.287,21.852q-.471,5.355-1.037,10.7a2.415,2.415,0,0,0,2.4,2.4,2.454,2.454,0,0,0,2.4-2.4c.748-7.122,1.4-14.257,1.856-21.4.416-6.586.926-13.38.165-19.96-.274-2.371-.595-5.08-2.674-6.583a2.418,2.418,0,0,0-3.283.861,2.453,2.453,0,0,0,.861,3.284Z"/></svg>