<?xml version="1.0" encoding="iso-8859-1"?>
<!-- Uploaded to: SVG Repo, www.svgrepo.com, Generator: SVG Repo Mixer Tools -->
<svg version="1.1" id="Layer_1" xmlns="http://www.w3.org/2000/svg" xmlns:xlink="http://www.w3.org/1999/xlink" 
	 viewBox="0 0 512 512" xml:space="preserve">
<g>
	<path style="fill:#FFC61B;" d="M432.199,385.703H79.801c-8.068,0-14.61-6.541-14.61-14.61v-15.396
		c0-105.213,85.597-190.81,190.81-190.81c19.899,0,39.513,3.052,58.298,9.073c7.684,2.463,11.916,10.689,9.453,18.372
		c-2.462,7.684-10.679,11.919-18.372,9.454c-15.897-5.096-32.511-7.679-49.378-7.679c-89.099,0-161.589,72.489-161.589,161.589
		v0.786h323.177v-0.786c0-43.43-16.987-84.187-47.834-114.765c-5.73-5.68-5.771-14.932-0.091-20.662
		c5.68-5.732,14.93-5.77,20.662-0.091c36.425,36.106,56.483,84.234,56.483,135.517v15.396
		C446.809,379.162,440.268,385.703,432.199,385.703z"/>
	<path style="fill:#FFC61B;" d="M256.001,190.702c-8.068,0-14.61-6.541-14.61-14.61v-41.395c0-8.069,6.542-14.61,14.61-14.61
		s14.61,6.541,14.61,14.61v41.395C270.611,184.161,264.069,190.702,256.001,190.702z"/>
	<path style="fill:#FFC61B;" d="M291.796,145.896h-71.59c-8.068,0-14.61-6.541-14.61-14.61s6.542-14.61,14.61-14.61h71.59
		c8.068,0,14.61,6.541,14.61,14.61S299.864,145.896,291.796,145.896z"/>
</g>
<rect x="128.044" y="371.1" style="fill:#FEE187;" width="255.913" height="61.509"/>
<path style="fill:#FFC61B;" d="M383.956,447.208h-255.91c-8.068,0-14.61-6.541-14.61-14.61v-61.505c0-8.069,6.542-14.61,14.61-14.61
	h255.91c8.068,0,14.61,6.541,14.61,14.61v61.505C398.566,440.667,392.024,447.208,383.956,447.208z M142.656,417.987h226.69v-32.284
	h-226.69V417.987z"/>
<path style="fill:#FEE187;" d="M433.88,479.491H78.12c-16.984,0-30.753-13.769-30.753-30.753l0,0
	c0-16.984,13.769-30.753,30.753-30.753H433.88c16.984,0,30.753,13.769,30.753,30.753l0,0
	C464.634,465.722,450.865,479.491,433.88,479.491z"/>
<g>
	<path style="fill:#FFC61B;" d="M433.882,494.101H78.12c-25.013,0-45.362-20.349-45.362-45.362
		c0-25.013,20.349-45.363,45.362-45.363h355.762c25.013,0,45.362,20.351,45.362,45.363
		C479.244,473.752,458.895,494.101,433.882,494.101z M78.12,432.596c-8.901,0-16.141,7.242-16.141,16.143
		s7.241,16.141,16.141,16.141h355.762c8.901,0,16.141-7.241,16.141-16.141s-7.241-16.143-16.141-16.143H78.12z"/>
	<path style="fill:#FFC61B;" d="M256.001,75.517c-8.068,0-14.61-6.541-14.61-14.61V32.509c0-8.069,6.542-14.61,14.61-14.61
		s14.61,6.541,14.61,14.61v28.398C270.611,68.976,264.069,75.517,256.001,75.517z"/>
	<path style="fill:#FFC61B;" d="M497.39,273.898H468.99c-8.068,0-14.61-6.541-14.61-14.61c0-8.069,6.542-14.61,14.61-14.61h28.399
		c8.068,0,14.61,6.541,14.61,14.61C512,267.357,505.459,273.898,497.39,273.898z"/>
	<path style="fill:#FFC61B;" d="M43.01,273.898H14.61c-8.068,0-14.61-6.541-14.61-14.61c0-8.069,6.542-14.61,14.61-14.61H43.01
		c8.068,0,14.61,6.541,14.61,14.61C57.62,267.357,51.077,273.898,43.01,273.898z"/>
	<path style="fill:#FFC61B;" d="M396.275,133.622c-3.74,0-7.478-1.426-10.331-4.279c-5.705-5.705-5.705-14.957,0-20.662l20.08-20.08
		c5.71-5.704,14.958-5.705,20.663,0c5.705,5.705,5.705,14.957,0,20.662l-20.08,20.08
		C403.754,132.195,400.014,133.622,396.275,133.622z"/>
	<path style="fill:#FFC61B;" d="M115.725,133.622c-3.74,0-7.478-1.426-10.331-4.279l-20.08-20.08
		c-5.705-5.705-5.705-14.957,0-20.662c5.707-5.705,14.955-5.707,20.663,0l20.08,20.08c5.705,5.705,5.705,14.957,0,20.662
		C123.202,132.195,119.465,133.622,115.725,133.622z"/>
</g>
</svg>